<svg xmlns="http://www.w3.org/2000/svg" viewBox="0 0 256 256"><style>.st2{fill:#32c192}.st3{fill:#fff}.st5{fill:#32c192;stroke:#fff;stroke-width:6;stroke-linecap:round;stroke-miterlimit:10}</style><circle cx="133.29" cy="130.29" r="117.6" fill="#abe5d3" id="Layer_3"/><g id="Layer_1"><path class="st2" d="M133.27 84.6s16.76-4.37 24.48 0c6.27 4.66 12.24 15.74 12.24 15.74l-4.52 8.16c.01 0-10.19-19.23-32.2-23.9z"/><path class="st2" d="M165.19 114.62s-12.1-22.01-39.06-26.82c-21.13 7.77-28.86 34.98-28.86 34.98s40.51-5.39 67.04 3.35c-.58-5.71.88-11.51.88-11.51z"/><path class="st2" d="M96.54 128.18s28.13-8.89 68.64 2.19c1.75 8.45 9.76 16.61 9.76 16.61s-11.95-5.39-40.37 8.89c-9.62-34.1-38.62-22.88-38.62-22.88l.59-4.81z"/><path class="st2" d="M135.46 159.66s26.23-15.16 39.49-8.45c-10.35 21.86-39.49 37.75-39.49 37.75s-11.66-3.79-11.66-4.66 11.66-24.64 11.66-24.64zM142.6 188.95s21.86-12.68 30.6-25.5c3.93 7.58 9.62 9.91 9.62 9.91s-17.34 20.98-40.22 15.59zM166.02 87.81l6.89 9.36 4.59-3.28s-8.2-6.89-11.48-6.56v.48z"/><path class="st2" d="M182.82 164.5s9.26-5.02 3.63-11.16a4.473 4.473 0 00-5.01-1.13c-9.07 3.73-1.09 13.28-1.09 13.28s2.3 2.84 5.25 2.95 6.82-1.12 8.85-2.95c1.86-1.68 4.48-3.83 3.61-11.26-.87-7.43-1.97-11.7-1.97-11.7s13.66-9.18 6.56-23.39c-6.45-8.62-12.68-6.56-12.68-6.56L188 102.09s11.7-12.13 10.27-26.89-8.42-12.79-8.42-12.79-12.35 4.15-5.79 32.35c-31.16 34.07-5.61 46.21-1.04 47.97.36.14 1.04.38 1.43.46 1.03.2 2.82.22 8.79.22 3.42 14.87 1.2 18.03 1.2 18.03s-2.59 7.65-11.62 3.06z"/><path class="st3" d="M191.36 70.75c-3.25 2.49-9.52 9.41-5.34 22.16 9.27-7.7 9.85-16.9 8.69-21.02a2.132 2.132 0 00-3.35-1.14zM185.95 105.3l1.53 7.65s-9.25 4.81-8.53 14.65c2.04 7.58 8.53 9.25 8.53 9.25s-8.23-10.78 1.02-15.78c1.75 3.73 4.23 18.62 4.23 18.62s-9.69 3.57-15.67-5.32-1.09-17.27-1.09-17.27 5.61-10.2 9.98-11.8zM191.71 120.42l4.08 18.76s6.27-4.88 3.72-13.04c-2.63-6.56-7.8-5.72-7.8-5.72z"/><path class="st2" d="M105 63.03s15.45-11.8 34.83-11.51c16.47 2.19 3.64 18.79 3.64 18.79l-7 5.4-21.57 13.12-2.91-5.1s-1.31-5.25-7-11.37c.88-4.23.01-9.33.01-9.33zM86.78 76s7.14 3.21 7.72 4.37c.58 1.17 2.62 6.46 2.77 6.95S105 98.45 105 98.45s-13.26 17.49-12.68 34.54c-25.21-5.39-18.51-35.81-18.51-35.81S75.85 86.06 86.78 76z"/><circle class="st3" cx="86.67" cy="92.91" r="5.79"/><circle class="st3" cx="89" cy="113.24" r="5.79"/><circle class="st3" cx="118.07" cy="70.94" r="5.79"/><circle class="st3" cx="135.46" cy="62.33" r="5.79"/><path class="st2" d="M82.08 49.52s-3.61 28.53 14.65 28.2c-1.93 6.34 4.92 12.13 4.92 12.13l4.48 7.32s6.45-7.54 7.43-7.65c.98-.11-3.61-6.23-3.61-6.23s.87-3.17-5.68-8.96c-.58-.51-1.2.11-1.2.11l.22-1.64s2.08-8.74-2.51-12.79-7.88.11-18.7-10.49z"/><circle class="st2" cx="100.82" cy="66.73" r=".74"/><path d="M85.74 65.99s3.33 6.86 6.72 8.22" fill="#32c192" stroke="#fff" stroke-width="2" stroke-linecap="round" stroke-miterlimit="10"/><path class="st2" d="M91.95 137.22c-4.27-2.81-19.6-11.1-36.36 1.56-.73.55-1.2 1.39-1.26 2.31-3.27 47.91 20.43 50.52 20.43 50.52s27.71-4.4 18.61-52.27c-.17-.87-.69-1.63-1.42-2.12z"/><path class="st5" d="M59.31 153.9s2.77-4.96 8.6-1.97M80.37 152.01s5.17-3.35 8.96 1.46"/><path class="st3" d="M62.59 166.8s12.17 11.08 24.63-.51c3.01-.3 1.14 2.52.33 3.6-.22.29-.42.59-.59.91-1.1 1.98-5.53 9.15-11.92 9.12-7.87-.44-13.61-10.69-13.61-10.69s-1.61-3.09 1.16-2.43z"/><path class="st2" d="M96.82 137.91s16.29-7.05 33.88 13.47c-3.28 36.59-27.54 43.7-27.54 43.7s-9.07 3.83-14.43-6.23c4.04-4.81 7.54-13.66 7.54-13.66s6.34 3.06 10.71 3.17c4.15.66 5.57 5.68 5.57 5.68s1.75.44 2.19-1.53c.44-1.97-3.83-7-3.83-7s-2.91-1.62-5.61-2.01c-2.7-.39-7.72-2.9-7.72-2.9l1.86-12.13s3.72 2.4 3.72-2.19c-1.25-3.43-4.37-4.89-4.37-4.89s-.44-10.86-1.97-13.48z"/><path class="st5" d="M112.79 161.33s4.88-3.93 9.33 1.09"/></g></svg>