<?xml version="1.0" encoding="utf-8"?>
<!-- Generator: Adobe Illustrator 24.0.1, SVG Export Plug-In . SVG Version: 6.00 Build 0)  -->
<svg version="1.1" id="Layer_1" xmlns="http://www.w3.org/2000/svg" xmlns:xlink="http://www.w3.org/1999/xlink" x="0px" y="0px"
	 viewBox="0 0 61 61" style="enable-background:new 0 0 61 61;" xml:space="preserve">
<style type="text/css">
	.st0{fill:none;stroke:#231F20;stroke-width:0.5;stroke-miterlimit:10;}
	.st1{fill:none;stroke:#231F20;stroke-width:0.25;stroke-miterlimit:10;}
</style>
<g>
	<path class="st0" d="M15.05,28.97V14.53h41.43v22.79h-3.43c0,0-0.38-4.23-4-4.36c-3.62-0.13-4.04,4.36-4.04,4.36h-5.33
		c0,0,0.19-4.36-3.91-4.19c-3.98,0-3.9,4.19-3.9,4.19h-5.45c0,0-0.04-4.23-3.92-4.36c-3.89-0.13-3.77,4.55-3.77,4.55h-3.67v-5.02"/>
	<circle class="st0" cx="10.68" cy="24.26" r="2.97"/>
	<circle class="st1" cx="22.57" cy="36.89" r="2.55"/>
	<circle class="st1" cx="35.89" cy="36.89" r="2.55"/>
	<circle class="st1" cx="49.18" cy="36.89" r="2.55"/>
	<path class="st0" d="M4.52,32.96h10.09l8.12-8.66c0,0,0.49-2.2-1.66-1.43c-1.41,1.56-5.86,6.17-5.86,6.17S7.32,25.13,4.52,32.96z"
		/>
	<g>
		<rect x="18.68" y="40.49" class="st1" width="7.77" height="1.74"/>
		<path class="st1" d="M18.68,41.78c-0.4,0.23-1.6,0.74-1.4,2.26c0.2,1.51,0.69,2.43,0.69,2.43h9.17c0,0,0.91-1.37,0.91-2.66
			c0.01-1.91-1.6-2.03-1.6-2.03"/>
	</g>
	<g>
		<rect x="31.91" y="40.49" class="st1" width="7.77" height="1.74"/>
		<path class="st1" d="M31.91,41.78c-0.4,0.23-1.6,0.74-1.4,2.26c0.2,1.51,0.69,2.43,0.69,2.43h9.17c0,0,0.91-1.37,0.91-2.66
			c0.01-1.91-1.6-2.03-1.6-2.03"/>
	</g>
	<g>
		<rect x="45.37" y="40.49" class="st1" width="7.77" height="1.74"/>
		<path class="st1" d="M45.37,41.78c-0.4,0.23-1.6,0.74-1.4,2.26c0.2,1.51,0.69,2.43,0.69,2.43h9.17c0,0,0.91-1.37,0.91-2.66
			c0.01-1.91-1.6-2.03-1.6-2.03"/>
	</g>
</g>
</svg>
