<svg xmlns="http://www.w3.org/2000/svg" viewBox="0 0 256 256"><style>.st2,.st3{fill:none;stroke-linecap:round}.st2{stroke:#32c192;stroke-width:6;stroke-miterlimit:10}.st3{stroke-width:7}.st3,.st4,.st6{stroke:#32c192;stroke-miterlimit:10}.st4{fill:none;stroke-width:6}.st6{fill:#32c192}</style><circle cx="133.29" cy="130.29" r="117.6" fill="#abe5d3" id="Layer_3"/><g id="Layer_1"><path class="st4" d="M59.61 55.62l20.53 14.11c3.8 2.61 8.59 3.33 12.99 1.96l44.25-13.83c4.53-1.42 9.47-.68 13.39 2l50.44 33.91c3.02 2.06 5.06 5.31 5.51 8.94.84 6.69-.06 16.26-11.74 10.64-17.92-8.63-34.51-19.58-34.51-19.58s10.39-20.18-8.96-17.59c-9.42 1.26-36.83 10.95-36.83 10.95"/><path d="M59.61 101.08l27.64 11.8a22.28 22.28 0 0011.52 1.62c11.28-1.42 36.14-6.04 61.71-20.72" fill="none" stroke="#32c192" stroke-width="7" stroke-miterlimit="10"/><path class="st4" d="M101.59 177.56s7.02 22.73 33.79 24.72c26.77 1.99 34.56-25.38 34.56-25.38s11.54-6.07 1.93-13.45a7.42 7.42 0 01-2.61-3.8c-7.46-25.59-21.08-26.56-34.91-29.17-.7-.13-1.42-.16-2.12-.05-21.09 3.32-28.45 22.67-30.19 28.43a5.827 5.827 0 01-1.72 2.67c-3.16 2.81-9.63 9.5 1.27 16.03z"/><path class="st2" d="M134.76 130.36s1.58-10.95 8.21-13.19M131.61 130.36s-2.99-6.39-11.7-5.31"/><circle class="st6" cx="123.15" cy="164.45" r="4.81"/><circle class="st6" cx="147.79" cy="164.45" r="4.81"/><path class="st3" d="M125.14 183.61s10.04 7.63 20.9 0"/></g></svg>