<svg xmlns="http://www.w3.org/2000/svg" viewBox="0 0 256 256"><style>.st2{fill:#32c192}</style><circle cx="133.29" cy="130.29" r="117.6" fill="#abe5d3" id="Layer_3"/><g id="Layer_1"><path class="st2" d="M164.84 158.05v18.37l8.78-3.45v-18.68zM177.61 151.89v18.37l7.11-4.11v-17.3zM164.84 120.63v14.38l8.78-3.88v-15.06zM177.61 114.47v14.49l7.11-2.96-.6-15.25zM177.61 133.53v13.91l6.62-2.96v-14.72zM165.41 139.57v13.92l8.21-3.76v-14.72z"/><path class="st2" d="M184.72 160.34l20.24 8.4-67.09 32.67-72.25-32.67 20.99-9.09v5.87l-7.91 3.37 58.56 23.88 53.24-24.94-5.78-1.68z"/><path class="st2" d="M190.69 150.64l-4.44 6.87c-.54.83.03 1.93 1.02 1.97l11.5.49v7.79h1.77v-7.79h10.23c1.04 0 1.71-1.1 1.23-2.03l-3.82-7.3h3.16c.74 0 1.18-.82.78-1.44l-4.39-6.76h.98c.95 0 1.55-1.02 1.09-1.85l-5.28-9.46h2.19c1.15 0 1.87-1.24 1.3-2.24l-7.21-12.7c-.41-.73-1.46-.74-1.89-.01l-7.55 12.94c-.44.75.01 1.72.88 1.85l1.64.27-5.21 9.07c-.36.62.06 1.4.78 1.45l1.88.12-4.93 7.35c-.4.6.03 1.41.75 1.41h3.54zM104.98 47.79l33.01 14.93 27.99 3.5-33.93-15.98zM115.02 68.04V55.57l9.28 4.26v12.62zM104.1 50.4v12.62l7.76 3.8V54.05zM127.68 61.5v12.63l7.8 3.8 7.56-1.52V66.22h-6.69zM146.24 66.82v8.83l9.58-2.13v-5.63zM158.71 68.34v4.11l8.06-1.22-.79-2.12zM104.1 66.22v11.71l7.76 4.26V69.71zM115.02 71.23V83.4l9.28 4.11V75.65zM127.68 77.93l7.68 3.5 7.68-2.06v9.97l-5.78 3.34-9.58-4.1zM146.24 79.37v9.36l9.58-4.68v-6.88zM158.71 76.41v6.54l8.06-3.58V74.2z"/><path class="st2" d="M100.6 75.65v5.32l36.97 15.97 32.25-14.75v-5.02l13.54 5.78L137.42 105 89.04 83.56zM139.74 109.68v18.37l8.78-3.45v-18.68zM139.74 170.49v18.37l8.78-3.45v-18.69zM152.51 164.1v18.37l8.79-3.45v-18.68zM152.51 103.45v18.36l8.79-3.45V99.68zM164.84 97.7v18.37l8.78-3.45V93.94zM177.61 91.28v18.36l7.11-2.78-.49-19.35zM139.74 133.18v14.26l8.78-4.1v-14.38zM152.51 126.68v14.26l8.79-3.76v-14.04zM152.51 146.19v14.15l8.79-4.8v-14.6zM139.74 152.01v14.14l8.78-4.33v-14.38zM135.48 109.18v18.59l-9.55-3.49v-18.91zM135.48 170.71v18.58l-9.55-3.48V166.9zM121.6 164.25v18.58l-9.55-3.49v-18.9zM108.21 158.13v18.58l-9.54-3.49v-18.9zM94.33 151.89v18.59l-7.72-4.16v-17.51zM121.6 102.87v18.59l-9.55-3.49V99.06zM108.21 97.06v18.59l-9.54-3.49V93.25zM94.33 90.56v18.58l-7.72-2.82.53-19.57zM135.48 132.96v14.43l-9.55-4.15v-14.55zM121.6 126.38v14.43l-9.55-3.81v-14.2zM108.21 120.27v14.54l-9.54-3.92v-15.24zM94.33 114.03v14.66l-7.72-3 .65-15.43zM94.33 133.31v14.08l-7.19-3V129.5zM107.59 139.43v14.08l-8.92-3.81v-14.89zM121.6 146.12v14.32l-9.55-4.85v-14.78zM135.48 152.01v14.31l-9.55-4.38v-14.55zM67.53 156.6l-5.61-.4c-2.5-.18-4.91-1.17-6.72-2.91-2.27-2.19-3.79-5.6.9-9.86-.46-4.53 1.99-5.83 1.99-5.83s-.41-4.14 2.6-5.37c-1.68-4.53 2.62-6.37 2.62-6.37s.08-4.76 5.06-5.37c4.99-.61 5.37 5.29 5.37 5.29s3.45.77 2.99 6.06c3.3 2.06 2.07 5.75 2.07 5.75s3.15 1.07 2.07 5.68c5.45 4.91 3.1 8.29 3.05 8.64-.21 1.41-2.9 3.87-7.11 4.17-4.22.31-7.29.51-7.29.51l-.08 12.22H67.6l-.07-12.21z"/></g></svg>