<?xml version="1.0" encoding="utf-8"?>
<!-- Generator: Adobe Illustrator 24.0.1, SVG Export Plug-In . SVG Version: 6.00 Build 0)  -->
<svg version="1.1" id="Layer_1" xmlns="http://www.w3.org/2000/svg" xmlns:xlink="http://www.w3.org/1999/xlink" x="0px" y="0px"
	 viewBox="0 0 61 61" style="enable-background:new 0 0 61 61;" xml:space="preserve">
<style type="text/css">
	.st0{fill:none;stroke:#333333;stroke-miterlimit:10;}
	.st1{fill:none;stroke:#333333;stroke-linecap:round;stroke-miterlimit:10;}
	.st2{fill:none;stroke:#333333;stroke-width:0.5;stroke-miterlimit:10;}
	.st3{fill:none;stroke:#333333;stroke-width:0.5;stroke-linecap:round;stroke-miterlimit:10;}
</style>
<polygon class="st0" points="7.53,18.89 7.53,25.75 31.44,9.3 54.88,25.75 54.88,18.65 31.2,2.9 "/>
<rect x="25.26" y="23.56" class="st0" width="12.7" height="16.16"/>
<line class="st0" x1="25.26" y1="29.07" x2="37.95" y2="29.07"/>
<line class="st0" x1="31.6" y1="40.26" x2="31.6" y2="29.07"/>
<line class="st0" x1="11.76" y1="22.84" x2="11.14" y2="56.53"/>
<line class="st0" x1="51.76" y1="23.56" x2="51.76" y2="56.59"/>
<line class="st1" x1="11.14" y1="56.53" x2="51.76" y2="56.59"/>
<line class="st0" x1="42.98" y1="2.9" x2="42.98" y2="10.7"/>
<line class="st0" x1="47.78" y1="2.9" x2="47.78" y2="13.87"/>
<line class="st1" x1="42.98" y1="2.9" x2="47.78" y2="2.9"/>
<path class="st2" d="M37.04,47.69c0,0,4.37,0.67,6.54-2.37c0.74,2.1,3.9,2.3,3.9,2.3s3.07,0.72,0.45,2.67
	c-0.84,4.13-5.14,4.12-5.49,4.13c-0.35,0.02-4.5-0.02-5.39-4.02C34.17,48.57,37.04,47.69,37.04,47.69z"/>
<line class="st3" x1="40.14" y1="48.36" x2="40.14" y2="49.69"/>
<line class="st3" x1="44.68" y1="48.3" x2="44.68" y2="49.62"/>
<path class="st3" d="M41.19,51.27c0,0,1.19,1.49,2.46,0.01"/>
<path class="st3" d="M37.15,47.71c0,0,0.89-4.73,5.22-4.69s5.32,3.63,5.37,4.69"/>
<line class="st3" x1="38.1" y1="45.41" x2="35.67" y2="43.77"/>
<path class="st3" d="M40.43,43.37c-1.5-2.68-4.76,0.4-4.76,0.4"/>
<line class="st3" x1="46.91" y1="45.33" x2="49.1" y2="43.77"/>
<path class="st3" d="M44.57,43.41c1.86-2.75,4.53,0.36,4.53,0.36"/>
<g>
	<path class="st3" d="M16.03,45.97c0,0,1.88,1.63,4.13,0.08s2.24-2.17,2.24-2.17s0.75,3.9,4.12,2.37"/>
	<line class="st3" x1="18.89" y1="48.08" x2="18.89" y2="49.5"/>
	<line class="st3" x1="23.62" y1="48.08" x2="23.62" y2="49.49"/>
	<path class="st3" d="M19.76,51.26c0,0,1.36,1.5,2.73,0"/>
	<path class="st3" d="M15.89,46.67v0.68c0,0-2.88,1.36-0.15,3.05c0.83,3.13,3.85,3.75,5.12,3.87c0.38,0.04,0.76,0.02,1.13-0.05
		c1.17-0.22,3.88-1.05,4.9-4.23c2.32-1.64-0.23-2.6-0.23-2.6l-0.04-0.56c-0.02-0.35-0.1-0.69-0.25-1.01
		c-0.49-1.04-1.88-3.19-5.12-3.4c-3.6-0.23-4.92,2.69-5.26,3.66C15.92,46.28,15.89,46.47,15.89,46.67z"/>
</g>
</svg>
