<?xml version="1.0" encoding="utf-8"?>
<!-- Generator: Adobe Illustrator 24.0.1, SVG Export Plug-In . SVG Version: 6.00 Build 0)  -->
<svg version="1.1" id="Layer_1" xmlns="http://www.w3.org/2000/svg" xmlns:xlink="http://www.w3.org/1999/xlink" x="0px" y="0px"
	 viewBox="0 0 61 61" style="enable-background:new 0 0 61 61;" xml:space="preserve">
<style type="text/css">
	.st0{fill:none;stroke:#333333;stroke-width:0.5;stroke-miterlimit:10;}
	.st1{fill:none;stroke:#333333;stroke-width:0.25;stroke-miterlimit:10;}
	.st2{fill:none;stroke:#333333;stroke-width:0.75;stroke-miterlimit:10;}
	.st3{fill:none;stroke:#333333;stroke-miterlimit:10;}
</style>
<g>
	<path class="st0" d="M30.52,2.08c0.21-0.2,0.52-0.25,0.81-0.28c0.51-0.04,1.03-0.02,1.53,0.08c0.76,0.15,1.49,0.47,2.26,0.59
		c0.75,0.12,1.61,0.02,2.16-0.55c-0.13,0.13-0.26,0.58-0.38,0.77c-0.23,0.34-0.51,0.64-0.75,0.97c-0.04,0.05-0.07,0.1-0.08,0.16
		c0,0.05,0.02,0.1,0.04,0.14c0.3,0.7,0.66,1.4,0.91,2.12c-0.29,0.17-0.68,0.14-1,0.07c-0.34-0.07-0.67-0.2-1-0.29
		c-0.26-0.07-1.13-0.26-2.61-0.24c-0.36,0.01-0.73,0.05-1.06,0.21c-0.43,0.21-0.76,0.61-0.88,1.07c-0.08-1.33,0.22-2.67,0.04-3.99
		c-0.04-0.3-0.1-0.64,0.06-0.9"/>
	<path class="st0" d="M29.87,11.15c-0.24,0-0.44-0.2-0.44-0.44V2.17c0-0.24,0.2-0.44,0.44-0.44s0.44,0.2,0.44,0.44v8.54
		C30.31,10.96,30.11,11.15,29.87,11.15z"/>
	<path class="st0" d="M17.92,20.7c0.12,0,0.24-0.03,0.34-0.11l11.78-8.19l11.78,8.19c0.1,0.07,0.22,0.11,0.34,0.11
		c0.19,0,0.38-0.09,0.49-0.26c0.19-0.27,0.12-0.65-0.15-0.84l-12.04-8.37c-0.13-0.09-0.28-0.12-0.43-0.1
		c-0.15-0.02-0.3,0.01-0.43,0.1l-12.04,8.37c-0.27,0.19-0.34,0.56-0.15,0.84C17.54,20.61,17.73,20.7,17.92,20.7z"/>
	<path class="st0" d="M16.86,28.12L3.85,35.2c-0.27,0.14-0.36,0.48-0.22,0.74c0.1,0.18,0.29,0.29,0.48,0.29
		c0.09,0,0.18-0.02,0.26-0.07l13.01-7.08c0.27-0.14,0.36-0.48,0.22-0.74C17.46,28.07,17.12,27.98,16.86,28.12z"/>
	<path class="st0" d="M56.22,35.23l-13.01-6.94c-0.27-0.14-0.6-0.05-0.74,0.21c-0.15,0.26-0.05,0.59,0.22,0.73l13.01,6.94
		c0.08,0.04,0.17,0.07,0.26,0.07c0.19,0,0.38-0.1,0.48-0.28C56.59,35.69,56.49,35.37,56.22,35.23z"/>
	<path class="st1" d="M32.23,47.9c-0.33,0-0.6,0.27-0.6,0.6v1.76c0,0.33,0.27,0.6,0.6,0.6s0.6-0.27,0.6-0.6V48.5
		C32.83,48.17,32.56,47.9,32.23,47.9z"/>
	<path class="st1" d="M28.03,47.9c-0.33,0-0.6,0.27-0.6,0.6v1.76c0,0.33,0.27,0.6,0.6,0.6s0.6-0.27,0.6-0.6V48.5
		C28.63,48.17,28.36,47.9,28.03,47.9z"/>
	<path class="st2" d="M41.52,30.03v-8l-11.47-7.72v-0.01l-0.01,0l-0.01,0v0.01l-11.47,7.72v8L5.72,36.97v17.57h12.85h5.14V42.28
		h5.65v12.25h0.67h0.01h0.67V42.28h5.65v12.25h5.14h12.85V36.97L41.52,30.03z M14.45,50.97h-4.29v-6.65c0-1.18,0.96-2.14,2.14-2.14
		c1.18,0,2.14,0.96,2.14,2.14V50.97z M27.99,34.43H23.7v-6.65c0-1.18,0.96-2.14,2.14-2.14c1.18,0,2.14,0.96,2.14,2.14V34.43z
		 M36.37,34.43h-4.29v-6.65c0-1.18,0.96-2.14,2.14-2.14c1.18,0,2.14,0.96,2.14,2.14V34.43z M49.91,50.97h-4.29v-6.65
		c0-1.18,0.96-2.14,2.14-2.14c1.18,0,2.14,0.96,2.14,2.14V50.97z"/>
	<rect x="3.59" y="54.54" class="st3" width="52.9" height="2.37"/>
	<rect x="1.17" y="56.91" class="st3" width="57.73" height="2.35"/>
</g>
</svg>
