<svg xmlns="http://www.w3.org/2000/svg" viewBox="0 0 256 256"><style>.st2{fill:#32c192}</style><circle cx="133.29" cy="130.29" r="117.6" fill="#abe5d3" id="Layer_3"/><g id="Layer_1"><path class="st2" d="M103.49 218.04l27.45-1.91V202.4s-.51-10.93-.64-11.69 4.45-11.31-13.09-24.66c-13.34-11.57-30.76-27.2-30.76-27.2s-8.01-9.28-11.18-1.53c-1.27 7.12 9.53 16.39 9.53 16.39s4.96 3.05 5.59 7.63c-2.29-1.65-15.89-13.22-16.78-21.1s4.07-7.37 4.07-7.37L75.9 116.6s-.47-3.81-2.39-4.58c-1.42-5.46-5.36-5.46-5.36-5.46s-.25-5.34-7.12-3.18c-5.46 1.4-2.67 15.51-2.67 15.51l4.32 40.29s1.53 6.35 5.21 8.01c3.69 1.65 24.27 23.26 24.27 23.26s4.07 1.65 8.13 10.17c2.59 7.98 3.2 17.42 3.2 17.42zM163.08 218.04l-27.45-1.91V202.4s.51-10.93.64-11.69-4.45-11.31 13.09-24.66c13.34-11.57 30.76-27.2 30.76-27.2s8.01-9.28 11.18-1.53c1.27 7.12-9.53 16.39-9.53 16.39s-4.96 3.05-5.59 7.63c2.29-1.65 15.89-13.22 16.78-21.1.89-7.88-4.07-7.37-4.07-7.37l1.78-16.27s.47-3.81 2.39-4.58c1.42-5.46 5.36-5.46 5.36-5.46s.25-5.34 7.12-3.18c5.46 1.4 2.67 15.51 2.67 15.51l-4.32 40.29s-1.53 6.35-5.21 8.01c-3.69 1.65-24.27 23.26-24.27 23.26s-4.07 1.65-8.13 10.17c-2.59 7.98-3.2 17.42-3.2 17.42z"/><circle class="st2" cx="130.2" cy="56.84" r="18.89"/><path class="st2" d="M106.33 69s21.69 21.94 49.99 0c11.84 1.93 5.61 11.34 5.61 11.34s-31.17 28.55-62.96-1.87C95.61 68 106.33 69 106.33 69z"/><path class="st2" d="M113.38 93.06s14.59 6.86 34.78 0c8.1 25.93-9.43 26.93-17.39 26.68-27.24-.88-17.39-26.68-17.39-26.68z"/><path class="st2" d="M144.6 118.99s4.24-1 6.86-8.48c10.1 6.48 6.48 24.81 6.48 24.81s-4.01 6.78-8.94 2.88c-1.36-1.08-2.07-2.79-1.98-4.53.45-8.42-2.42-14.68-2.42-14.68zM118.3 119.74s-4.24-1-6.86-8.48c-10.1 6.48-6.48 24.81-6.48 24.81s4.01 6.78 8.94 2.88c1.36-1.08 2.07-2.79 1.98-4.53-.45-8.42 2.42-14.68 2.42-14.68z"/></g></svg>