<svg xmlns="http://www.w3.org/2000/svg" viewBox="0 0 256 256"><style>.st2{fill:#32c192}.st3{fill:#fff}</style><circle cx="133.29" cy="130.29" r="117.6" fill="#abe5d3" id="Layer_3"/><g id="Layer_1"><circle class="st2" cx="107.93" cy="67.55" r="15.33"/><path class="st3" d="M103 75s10.99-.27 15.54-5.04C113.81 84.87 103 75 103 75z"/><circle class="st2" cx="162.33" cy="107.26" r="12.63"/><path class="st3" d="M155.84 110.74s8.08 4.1 13.24 2.41c-9.25 8.97-13.24-2.41-13.24-2.41z"/><path class="st2" d="M82.84 50.54S80.01 57 77.8 74.79c9.68 6.14 19.37 11.97 19.37 11.97h26.09s12.18 1.73 15.64 25.35c5.83 2.2 10.8 4.48 10.8 4.48l4 3.29s-9.61-.22-11.18 4.82c-2.88-1.28-6.54-3.03-8.62-4.04-.75-.36-1.54-.6-2.34-.85-.99-.31-2.68-1.71-2.9-7.55-.31-8.35-3.15-9.76-3.15-9.76s.16 38.58.79 39.37c.63.79-36.69 0-36.69 0l.63-47.25-19.05-11.74s-5.35-1.31-3.31-8.79c1.6-7.76 3.62-22.91 3.62-22.91s.86-7.05 5.39-10.18c2.7-1.87 6.45-1.45 8.74.91 3.96 4.07-2.79 8.63-2.79 8.63z"/><path class="st2" d="M150.45 123.85h22.57l14.8-10.74s-3.78-16.38-7.03-17.53c-3.25-1.15-3.57-3.78-3.57-3.78s-.21-5.25 6.4-3.25c6.61 1.99 11.44 23.41 11.44 23.41s1.68 3.78-1.89 5.56c-3.57 1.78-15.33 11.55-15.33 11.55l-.21 12.7-12.18.45-2.52-3.39s0-4.3-3.57-4.93c-1.36-2.62-4.62-6.25-4.62-6.25l-1.05.79 3.04 4.93-6.3.1.94-.94-1.69-1.15-3.56 3.99h11.97s6.51 2.48.52 6.86h-21s-2.94-2.34-1-5.39c1.98-3.05 4.71-10.66 13.84-12.99zM62.2 144.29h148.89v3.15h-4.58v5.67h-3.99l.31 52.7h-3.98l-.42-21.31H74.66l-.11 21.31h-4.41l.53-52.49-3.68-.21v-5.46l-4.79.1z"/><path class="st2" d="M114.02 186.44h15.9s2.13 13.31 1.18 14.49c-.94 1.18-.63 5.2-6.61 6.46-5.98 1.26-9.21-4.57-9.21-4.57l-1.26-16.38zM85.84 186.44h16.06s-.23 14.28-1.1 15.51c-.86 1.22-2.36 6.22-8.5 6.57-6.1.35-7.42-7.6-7.42-7.6l.96-14.48zM134.02 186.44s-2.76 6.61 4.09 9.37c6.85 2.76 9.13-9.37 9.13-9.37h-13.22zM177.95 186.44s.63 9.24 7.56 9.78c6.93.54 5.98-9.78 5.98-9.78h-13.54zM161.11 186.44v6.09l-18.9 5.88v2.41l2.68-.42 16.22-4.78v5.2h3.3v-5.2l15.75 5.2h3.2v-2.2l-18.63-6.15v-6.03z"/><circle class="st2" cx="143.63" cy="203.44" r="3.62"/><circle class="st2" cx="162.79" cy="203.44" r="3.62"/><circle class="st2" cx="181.94" cy="203.44" r="3.62"/></g></svg>