<svg xmlns="http://www.w3.org/2000/svg" viewBox="0 0 256 256"><style>.st1{fill:#abe5d3}.st2{fill:#32c192}.st3{fill:#fff}</style><circle class="st1" cx="133.29" cy="130.29" r="117.6" id="Layer_3"/><g id="Layer_1"><path class="st2" d="M88.85 90.98s40.4-14.15 90.58 0c10.71 3.41 7.72 21.87 7.72 21.87l.39 67.68s-.64 9.01-8.88 8.49c-.03 2-.14 3.83-.25 5.24a3.043 3.043 0 01-3.04 2.8h-13.65c-1.19 0-2.16-.98-2.14-2.17l.1-6.19-50.24-.06-.12 5.44a3.513 3.513 0 01-3.51 3.44H92.74a3.25 3.25 0 01-3.25-3.25v-5.5s-7.14-.26-8.3-6.3c-1.16-6.05-.39-43.04-.39-43.04l.2-32.75s-1.63-13.16 7.85-15.7z"/><circle class="st3" cx="95.22" cy="166.8" r="5.98"/><circle class="st3" cx="172.32" cy="166.8" r="5.98"/><path class="st3" d="M112.88 167.57h42.17s-10.04 12.64-21.91 10.33c-14.38.28-20.26-10.33-20.26-10.33z"/><path class="st1" d="M90.78 106.68h86.66v39.85H90.78z"/><path class="st3" d="M138.83 141.1h6.85s.68-8.76 9.36-8.76c8.69 0 9.17 8.76 9.17 8.76h7.33s-.39-16.61-16.36-15.96-16.36 15.12-16.36 15.12v.84zM126.77 91.05h14.76s3.96.97 3.09 5.5c-.87 4.54-3.76 3.76-3.76 3.76l-13.7.05s-4.63-.39-4.05-4.66c.57-4.27 3.66-4.65 3.66-4.65z"/><path class="st2" d="M201.41 120.73l.12 14.76s-.93 3.96-5.48 3.13-3.79-3.73-3.79-3.73l-.16-13.7s.35-4.64 4.62-4.09c4.28.54 4.69 3.63 4.69 3.63zM75.33 120.73l.12 14.76s-.93 3.96-5.48 3.13c-4.54-.83-3.79-3.73-3.79-3.73l-.16-13.7s.35-4.64 4.62-4.09 4.69 3.63 4.69 3.63zM121.27 80.04s11.58-16.08 25.6 0c3.86-2.06 7.59-3.57 7.59-3.57s-5.34-12.12-20.36-12.38c-15.02-.26-20.04 11.84-20.04 11.84l7.21 4.11z"/><path class="st2" d="M108.15 72.84s9.65-16.98 26.76-15.18 24.83 15.18 24.83 15.18l7.59-3.99s-9.26-19.3-31.91-19.69-34.87 19.69-34.87 19.69l7.6 3.99z"/></g></svg>