<svg id="Layer_1" data-name="Layer 1" xmlns="http://www.w3.org/2000/svg" viewBox="0 0 1924.04 2218.02"><defs><style>.cls-1{fill:#e8edf7;fill-rule:evenodd;}</style></defs><title>about-wave</title><path class="cls-1" d="M1921-18c-58.17,115.21-121.3,229.51-207.13,330.38s-196.13,188.4-328.5,236c-49.53,17.83-103.2,30-156.31,24.43-62.69-6.6-118.27-37-175.18-61.1S931,469.26,871.52,487.94c-36.45,11.44-65.7,35.43-98.12,54.05-85.61,49.17-198.14,59.84-293.64,27.82-49.8-16.69-94.25-43.88-143.23-62.36s-106.8-27.58-154.69-7c-36.55,15.71-61.56,46-89.47,72.09C25.68,634.85-2,676.84-2,689.91H1921V-18Z" transform="translate(2 18.02)"/><path class="cls-1" d="M0,689H1920v805H0Z" transform="translate(2 18.02)"/><path class="cls-1" d="M5.11,2200c0-122.39,0-243.81,51.19-351,91.17-107.16,208.36-200.14,349-250.76,52.61-18.94,109.63-31.9,166.05-26,66.59,7,125.63,39.32,186.09,64.92s130.55,45.12,193.73,25.28c38.71-12.16,69.79-37.64,104.22-57.42,91-52.24,210.49-63.57,312-29.56,52.9,17.73,100.12,46.62,152.15,66.25s237.57-19.58,288.44-41.46c38.83-16.69,65.4-48.88,95.06-76.58,70.84-66.18,42.62-178.87-1897.86-75.79Z" transform="translate(2 18.02)"/></svg>