<svg xmlns="http://www.w3.org/2000/svg" xmlns:xlink="http://www.w3.org/1999/xlink" width="388.88" height="433" viewBox="0 0 388.88 433">
  <defs>
    <linearGradient id="linear-gradient" y1="0.5" x2="1" y2="0.5" gradientUnits="objectBoundingBox">
      <stop offset="0.079" stop-color="#b0e355"/>
      <stop offset="0.211" stop-color="#ace052"/>
      <stop offset="0.321" stop-color="#a2d949"/>
      <stop offset="0.422" stop-color="#91ce3b"/>
      <stop offset="0.519" stop-color="#78be26"/>
      <stop offset="0.612" stop-color="#59a90c"/>
      <stop offset="0.651" stop-color="#4a9f00"/>
      <stop offset="1" stop-color="#346d0a"/>
    </linearGradient>
    <linearGradient id="linear-gradient-8" x1="0" y1="0.5" x2="1" y2="0.5" xlink:href="#linear-gradient"/>
    <linearGradient id="linear-gradient-12" x1="0" y1="0.5" x2="1" y2="0.5" xlink:href="#linear-gradient"/>
    <linearGradient id="linear-gradient-18" x1="0" y1="0.5" x2="1" y2="0.5" xlink:href="#linear-gradient"/>
    <linearGradient id="linear-gradient-24" x1="0" y1="0.5" x2="1" y2="0.5" xlink:href="#linear-gradient"/>
    <linearGradient id="linear-gradient-29" x1="0" y1="0.5" x2="1" y2="0.5" xlink:href="#linear-gradient"/>
    <linearGradient id="linear-gradient-32" x1="0" y1="0.5" x2="1" y2="0.5" xlink:href="#linear-gradient"/>
    <linearGradient id="linear-gradient-43" x1="0" y1="0.5" x2="1" y2="0.5" xlink:href="#linear-gradient"/>
  </defs>
  <g id="Group_3980" data-name="Group 3980" transform="translate(-413.082 -110.626)">
    <path id="Path_28390" data-name="Path 28390" d="M437.251,506.32c-3.378-36.224-2.28-72.276,1.65-108.138,4.052-35.8,11.415-71.306,23.026-105.457a389.942,389.942,0,0,1,20.54-49.992c3.8-8.182,8.366-15.975,12.669-23.895,4.793-7.636,9.28-15.467,14.592-22.769,20.255-29.87,45.845-55.939,74.516-77.7a1.643,1.643,0,0,1,2.3.318,1.675,1.675,0,0,1-.323,2.313c-28.176,21.827-53.2,47.823-72.906,77.515-5.172,7.257-9.531,15.044-14.185,22.624-4.175,7.87-8.606,15.6-12.279,23.717a384.924,384.924,0,0,0-19.8,49.574c-11.136,33.844-18.07,69.015-21.732,104.448-3.545,35.383-4.236,71.384-.608,106.516l.022.2a3.757,3.757,0,0,1-7.475.769Z" transform="translate(101.348 33.898)" fill="url(#linear-gradient)"/>
    <path id="Path_28391" data-name="Path 28391" d="M435.941,251.859c7.346-13.533,17-25.132,27.936-35.505a165.358,165.358,0,0,1,36.481-26.247c3.21-1.951,6.761-3.25,10.122-4.9a83.416,83.416,0,0,1,10.378-4.309l10.585-3.773,10.875-2.809c7.185-2.179,14.7-2.759,22.044-4.119,7.408-.942,14.9-1.137,22.334-1.739a.985.985,0,0,1,.173,1.962l-.111.011c-7.369.7-14.782,1-22.095,2.034-7.24,1.455-14.654,2.124-21.71,4.381l-10.679,2.915-10.362,3.868A81.957,81.957,0,0,0,511.767,188c-3.278,1.678-6.744,2.993-9.866,4.955a162.02,162.02,0,0,0-35.344,26.191c-10.49,10.189-19.876,21.927-26.548,34.658l-.095.173a2.25,2.25,0,1,1-3.985-2.09Z" transform="translate(103.316 264.474)" fill="url(#linear-gradient)"/>
    <path id="Path_28392" data-name="Path 28392" d="M489.886,278.512a170.154,170.154,0,0,1-25.021-26.125,194.129,194.129,0,0,1-19.609-30.171A186.508,186.508,0,0,1,431.4,189.069c-3.8-11.387-5.9-23.232-7.614-35.059a.985.985,0,0,1,1.945-.307l.011.056c1.912,11.683,4.186,23.343,8.138,34.508a183.5,183.5,0,0,0,14.225,32.406,190.3,190.3,0,0,0,19.787,29.3,166.72,166.72,0,0,0,24.725,24.954l.117.095a2.252,2.252,0,0,1-2.815,3.517Z" transform="translate(48.913 193.258)" fill="url(#linear-gradient)"/>
    <path id="Path_28393" data-name="Path 28393" d="M438.83,244.926a426.978,426.978,0,0,1,87.2-72.058,311.318,311.318,0,0,1,50.928-24.8A207.634,207.634,0,0,1,632.4,136.711a.983.983,0,0,1,.134,1.962l-.045.006a205.612,205.612,0,0,0-54.635,11.839,308.912,308.912,0,0,0-50.12,25.1,424,424,0,0,0-85.5,72.259l-.056.067a2.252,2.252,0,0,1-3.361-3Z" transform="translate(115.074 119.298)" fill="url(#linear-gradient)"/>
    <path id="Path_28394" data-name="Path 28394" d="M442.016,179.654a206.926,206.926,0,0,1,26.125-2.8,166.164,166.164,0,0,1,26.219.691c8.69.964,17.418,2.525,25.617,5.8,8.177,3.188,15.936,7.881,21.788,14.6a.822.822,0,0,1-.084,1.159.85.85,0,0,1-1.165-.089c-5.752-6.337-13.3-10.7-21.3-13.639-8.01-3.021-16.576-4.375-25.116-5.15a163.113,163.113,0,0,0-25.779-.151,204.35,204.35,0,0,0-25.556,3.25l-.056.011a1.878,1.878,0,1,1-.73-3.684Z" transform="translate(125.238 301.915)" fill="url(#linear-gradient)"/>
    <path id="Path_28395" data-name="Path 28395" d="M448.33,158.331a143.935,143.935,0,0,1,20.9-7.742A137.234,137.234,0,0,1,491,146.135a100.574,100.574,0,0,1,22.24.011,69.236,69.236,0,0,1,21.219,6.616.821.821,0,0,1-.719,1.477l-.039-.017a67.224,67.224,0,0,0-20.723-5.919,98.643,98.643,0,0,0-21.643.507,142.323,142.323,0,0,0-41.3,12.87l-.084.039a1.877,1.877,0,1,1-1.638-3.378Z" transform="translate(156.263 159.619)" fill="url(#linear-gradient)"/>
    <path id="Path_28396" data-name="Path 28396" d="M467.617,342.02a321.2,321.2,0,0,1-20.64-52.032,366.576,366.576,0,0,1-12.413-54.423,342.955,342.955,0,0,1-4.236-55.616c-.29-18.622,1.851-37.166,4.476-55.56a.985.985,0,0,1,1.951.268l-.006.05c-2.4,18.316-4.314,36.748-3.812,55.231a340,340,0,0,0,4.827,55.114,363.065,363.065,0,0,0,12.909,53.776,317.768,317.768,0,0,0,20.885,51.006l.061.112a2.254,2.254,0,0,1-3.991,2.1Z" transform="translate(78.758 59.085)" fill="url(#linear-gradient)"/>
    <g id="Group_3931" data-name="Group 3931" transform="translate(556.89 398.787)">
      <path id="Path_28397" data-name="Path 28397" d="M482.338,162.325s-1.148,7.408-2.436,15.668c-1.672,9.364-3.339,21.27-8.3,33.694-4.972,11.867-13.912,21.7-20.74,29.352-6.928,7.552-11.906,13.567-11.906,13.567a67.479,67.479,0,0,1,1.778-18.427A115.715,115.715,0,0,1,454,202.847c5.668-9.587,12.424-20.735,18.132-28.22A126.53,126.53,0,0,1,482.338,162.325Z" transform="translate(-438.883 -162.325)" fill="url(#linear-gradient-8)"/>
    </g>
    <g id="Group_3932" data-name="Group 3932" transform="translate(600.151 387.907)">
      <path id="Path_28398" data-name="Path 28398" d="M488.531,160.373a64.248,64.248,0,0,1-1.6,13.054,96.786,96.786,0,0,1-9.971,26.186c-4.8,8.573-12.647,15.367-18.918,20.846-5.468,4.6-11.359,9.57-11.359,9.57a57.717,57.717,0,0,1,1.538-15.021c1.862-8.656,6.243-19.113,12.513-26.565,6.31-7.474,13.472-13.929,18.789-19.124C484.284,164.587,488.531,160.373,488.531,160.373Z" transform="translate(-446.644 -160.373)" fill="url(#linear-gradient-8)"/>
    </g>
    <g id="Group_3933" data-name="Group 3933" transform="translate(638.616 367.886)">
      <path id="Path_28399" data-name="Path 28399" d="M525.057,156.781a102.965,102.965,0,0,0-9.442,12.636c-5.161,7.664-10.7,18.461-19.074,28.6-6.822,7.92-16.142,18.41-25.456,24.776a44.48,44.48,0,0,1-12.324,6.415,15.943,15.943,0,0,1-3.89.641l-1.326.006a19.149,19.149,0,0,0,3.116-3.567,83.174,83.174,0,0,0,5.808-10.7c2.174-4.543,4.587-9.854,7.636-15.322a78.776,78.776,0,0,1,5.251-8.288,48.017,48.017,0,0,1,3.406-4.164c.513-.524,1.143-1.159,1.99-2.023.429-.385.964-.864,1.622-1.46,8.7-7.764,18.817-16.309,27.529-21.164a65.117,65.117,0,0,1,10.852-5.061C523.474,157.154,525.057,156.781,525.057,156.781Z" transform="translate(-453.545 -156.781)" fill="url(#linear-gradient)"/>
    </g>
    <g id="Group_3934" data-name="Group 3934" transform="translate(671.992 379.914)">
      <path id="Path_28400" data-name="Path 28400" d="M527.718,158.939s-3.434,4.548-7.837,11.226c-4.481,6.644-10.021,15.573-17.034,23.627-6.95,8.021-17.8,14.286-27.077,17.134a51.356,51.356,0,0,1-11.655,2.263c-2.932.134-4.582.05-4.582.05l2.954-3.255c1.806-2.034,4.2-4.927,6.867-8.277,5.356-6.716,11.71-15.534,19.848-22.122a125.946,125.946,0,0,1,25.272-15.936A65.911,65.911,0,0,1,527.718,158.939Z" transform="translate(-459.533 -158.939)" fill="url(#linear-gradient)"/>
    </g>
    <g id="Group_3935" data-name="Group 3935" transform="translate(566.532 482.021)">
      <path id="Path_28401" data-name="Path 28401" d="M466.578,222.5s-3.183-1.934-7.385-4.738c-4.186-2.826-9.476-6.6-13.511-11.454-4.019-4.827-5.312-12.357-5.033-18.483a33.24,33.24,0,0,1,2.057-10.568s3.707,2.464,8.049,5.669c4.331,3.266,9.4,7.491,11.777,13.165a60.206,60.206,0,0,1,4.058,17.541A47.326,47.326,0,0,1,466.578,222.5Z" transform="translate(-440.612 -177.258)" fill="url(#linear-gradient-12)"/>
    </g>
    <g id="Group_3936" data-name="Group 3936" transform="translate(591.16 480.011)">
      <path id="Path_28402" data-name="Path 28402" d="M484.661,218.85s-3.757-1.533-8.74-4.225a95.561,95.561,0,0,1-16.209-10.774c-5.016-4.359-7.887-10.975-10.228-16.632-2.24-5.6-4.453-10.256-4.453-10.256a30.752,30.752,0,0,1,11.521,1.527c6.4,1.984,13.89,6.265,17.948,12.346a63.478,63.478,0,0,1,8.121,18.6A84.767,84.767,0,0,1,484.661,218.85Z" transform="translate(-445.031 -176.897)" fill="url(#linear-gradient)"/>
    </g>
    <g id="Group_3937" data-name="Group 3937" transform="translate(620.634 480.577)">
      <path id="Path_28403" data-name="Path 28403" d="M491.961,215.319a40.867,40.867,0,0,1-9.654-1.332,53.181,53.181,0,0,1-18.472-8.522c-5.73-4.247-8.968-11.449-10.875-17.457A81.505,81.505,0,0,1,450.319,177a54.747,54.747,0,0,1,10.6,3.088c5.83,2.313,12.536,6.009,16.6,11.209,4.069,5.239,7.274,11.265,9.894,15.936C489.821,211.507,491.961,215.319,491.961,215.319Z" transform="translate(-450.319 -176.999)" fill="url(#linear-gradient-8)"/>
    </g>
    <g id="Group_3938" data-name="Group 3938" transform="translate(601.254 449.776)">
      <path id="Path_28404" data-name="Path 28404" d="M502.379,171.473a93.79,93.79,0,0,1-22.089,22.964c-6.192,4.281-14.469,5.708-21.264,6.3a105.972,105.972,0,0,1-12.184.318A57.993,57.993,0,0,1,453.408,191c4.292-5.368,10.591-11.32,17.747-14.024a90.6,90.6,0,0,1,20.969-4.7C498.127,171.584,502.379,171.473,502.379,171.473Z" transform="translate(-446.842 -171.473)" fill="url(#linear-gradient)"/>
    </g>
    <g id="Group_3939" data-name="Group 3939" transform="translate(638.911 462.271)">
      <path id="Path_28405" data-name="Path 28405" d="M521.543,179.223l-10.1,5.016a216.97,216.97,0,0,1-21.013,9.108c-7.491,2.6-16.337,2.48-23.711,2.2-7.33-.34-13.121-1.042-13.121-1.042a56.068,56.068,0,0,1,9.169-9.476c5.847-4.911,14.525-9.9,23.376-10.914a72.574,72.574,0,0,1,24.514,1.689A70.73,70.73,0,0,1,521.543,179.223Z" transform="translate(-453.598 -173.715)" fill="url(#linear-gradient)"/>
    </g>
    <g id="Group_3940" data-name="Group 3940" transform="translate(517.583 395.025)">
      <path id="Path_28406" data-name="Path 28406" d="M445.478,161.65a43.086,43.086,0,0,0,1.053,10.4c1.121,5.825,3.6,13.087,4.994,20.59,1.382,7.452-.19,16.342-2.436,23.4a49.886,49.886,0,0,1-5.334,11.828s-2.714-4.548-5.847-10.774c-3.082-6.265-6.432-14.676-6.048-23.209.368-8.472,2.854-17.4,6.36-23.466a30.1,30.1,0,0,1,4.95-6.716C444.636,162.313,445.478,161.65,445.478,161.65Z" transform="translate(-431.831 -161.65)" fill="url(#linear-gradient)"/>
    </g>
    <g id="Group_3941" data-name="Group 3941" transform="translate(497.957 375.6)">
      <path id="Path_28407" data-name="Path 28407" d="M435.636,158.165s1.962,3.718,4.983,8.5a62.843,62.843,0,0,1,4.765,8.84,40.851,40.851,0,0,1,2.954,11.738c.775,8.093-2.731,15.111-5.145,20.567a79.921,79.921,0,0,0-3.952,10.707,22.08,22.08,0,0,1-2.441-2.391,29.435,29.435,0,0,1-4.8-7.447c-3.06-6.761-4.348-15.35-3.361-21.755l3.595-19.09A37.7,37.7,0,0,1,435.636,158.165Z" transform="translate(-428.309 -158.165)" fill="url(#linear-gradient-18)"/>
    </g>
    <g id="Group_3942" data-name="Group 3942" transform="translate(478.366 335.028)">
      <path id="Path_28408" data-name="Path 28408" d="M436.312,150.886a68.2,68.2,0,0,1,4.32,9.264,66.162,66.162,0,0,1,4.437,20.874c.228,7.408-3.032,14.67-6.12,20.562a97.851,97.851,0,0,1-6.209,10.156,56.282,56.282,0,0,1-5.017-10.574c-2.291-6.293-3.879-14.776-2.28-21.911a114.7,114.7,0,0,1,6.722-19.3C434.445,154.615,436.312,150.886,436.312,150.886Z" transform="translate(-424.795 -150.886)" fill="url(#linear-gradient)"/>
    </g>
    <g id="Group_3943" data-name="Group 3943" transform="translate(448.855 455.83)">
      <path id="Path_28409" data-name="Path 28409" d="M419.5,188.717a64.051,64.051,0,0,1,11.165-6.956,95.235,95.235,0,0,1,26.71-8.612c9.737-1.589,19.954.362,28.131,1.906,7,1.41,14.542,2.937,14.542,2.937a56.108,56.108,0,0,1-12.736,8.143c-7.965,3.9-18.862,6.928-28.56,6.666-9.754-.284-19.247-1.812-26.637-2.7C425.447,189.37,419.5,188.717,419.5,188.717Z" transform="translate(-419.5 -172.559)" fill="url(#linear-gradient)"/>
    </g>
    <g id="Group_3944" data-name="Group 3944" transform="translate(438.214 437.107)">
      <path id="Path_28410" data-name="Path 28410" d="M417.591,177.037s5.111-.836,12.106-2.458c7.023-1.544,16.058-3.918,25.188-5.067,9.107-1.126,19.375.959,27.384,3.539a77.276,77.276,0,0,1,13.517,5.685s-5.435,2.714-13.06,5.535c-7.642,2.8-17.714,5.641-27.379,4.938a88.461,88.461,0,0,1-26.515-6.2A55.617,55.617,0,0,1,417.591,177.037Z" transform="translate(-417.591 -169.2)" fill="url(#linear-gradient)"/>
    </g>
    <g id="Group_3945" data-name="Group 3945" transform="translate(420.205 409.079)">
      <path id="Path_28411" data-name="Path 28411" d="M414.36,168.857s5.072-1.377,12.563-2.6a148.162,148.162,0,0,1,26.833-2.051c9.47.268,19.2,3.863,26.933,7.112,7.7,3.289,13.344,6.377,13.344,6.377a76.758,76.758,0,0,1-13.907,4.844c-8.272,2.118-19.224,3.361-28.805,1.221a128.152,128.152,0,0,1-25.617-9.124C418.875,171.449,414.36,168.857,414.36,168.857Z" transform="translate(-414.36 -164.171)" fill="url(#linear-gradient)"/>
    </g>
    <g id="Group_3946" data-name="Group 3946" transform="translate(413.082 375.788)">
      <path id="Path_28412" data-name="Path 28412" d="M413.082,160.491a67.123,67.123,0,0,1,13.355-2.034,101.718,101.718,0,0,1,28.889,2.007c10.194,2.347,20.083,9.057,26.576,15.729a46.682,46.682,0,0,1,7,9.119,38.262,38.262,0,0,1,1.772,4.063s-1.611-.485-3.952-1.2c-2.531-.607-5.981-1.321-10.038-2.034-8.143-1.444-18.516-3.06-27.457-6.945s-17.847-8.729-24.631-12.469C417.842,162.926,413.082,160.491,413.082,160.491Z" transform="translate(-413.082 -158.199)" fill="url(#linear-gradient)"/>
    </g>
    <g id="Group_3947" data-name="Group 3947" transform="translate(451.636 305.141)">
      <path id="Path_28413" data-name="Path 28413" d="M420,145.524s1.243.6,3.495,1.884a33.346,33.346,0,0,1,8.115,7.246c5.886,7.235,10.161,18.622,13.065,28.4,2.932,9.821,3.506,20.294,4.955,29.235l2.737,15.818s-1.427-.9-3.785-2.636a61.269,61.269,0,0,1-8.929-8.026c-6.711-7.174-12.993-19.152-14.275-30.405-1.3-11.259-.407-21.4-1.483-28.878a41.355,41.355,0,0,0-2.363-9.108C420.6,146.9,420,145.524,420,145.524Z" transform="translate(-419.999 -145.524)" fill="url(#linear-gradient-24)"/>
    </g>
    <g id="Group_3948" data-name="Group 3948" transform="translate(528.91 282.355)">
      <path id="Path_28414" data-name="Path 28414" d="M467.725,141.436a78.742,78.742,0,0,1-.931,13.628,134.568,134.568,0,0,1-7.424,27.813c-3.584,9.269-9.871,17.457-14.6,24.614-4.821,7.045-8.422,12.836-8.422,12.836s-.49-1.544-1.132-4.281a53.369,53.369,0,0,1-1.326-11.359c-.307-9.381,2.285-21.543,7.8-30.517,5.512-9.013,12.335-16.671,17.4-22.624Z" transform="translate(-433.863 -141.436)" fill="url(#linear-gradient)"/>
    </g>
    <g id="Group_3949" data-name="Group 3949" transform="translate(520.659 251.521)">
      <path id="Path_28415" data-name="Path 28415" d="M462.49,135.9s-.964,6.388-2.046,13.505c-1.243,7.926-2.714,18.176-4.9,27.947-2.241,9.743-7.413,19.475-11.811,27.3-4.409,7.77-8.132,13.539-8.132,13.539a75.149,75.149,0,0,1-2.9-15.612c-.842-9.2-.167-21.3,4.119-31.336a100.05,100.05,0,0,1,15.974-25.467A88.874,88.874,0,0,1,462.49,135.9Z" transform="translate(-432.383 -135.904)" fill="url(#linear-gradient)"/>
    </g>
    <g id="Group_3950" data-name="Group 3950" transform="translate(513.776 210.23)">
      <path id="Path_28416" data-name="Path 28416" d="M462.113,128.5s.117,5.485-.552,13.433a146.658,146.658,0,0,1-4.938,28.008c-2.826,9.687-9.158,18.84-14.7,25.757a132.017,132.017,0,0,1-10.4,11.515,101.2,101.2,0,0,1-.173-15.317c.518-8.84,2.358-20.038,6.945-29.168a155.4,155.4,0,0,1,15.4-23.9C458.49,132.554,462.113,128.5,462.113,128.5Z" transform="translate(-431.148 -128.496)" fill="url(#linear-gradient-8)"/>
    </g>
    <g id="Group_3951" data-name="Group 3951" transform="translate(509.278 177.506)">
      <path id="Path_28417" data-name="Path 28417" d="M475.97,122.625a45.932,45.932,0,0,1-3.818,11.9A140.575,140.575,0,0,1,459.1,156.536c-5.089,6.917-12.117,12.4-17.987,17.524-5.011,4.476-10.417,9.292-10.417,9.292s-.184-1.46-.3-4.013a47.045,47.045,0,0,1,.719-10.39c1.382-8.355,6.02-19.012,13.282-25.534,7.19-6.661,15.439-11.109,21.47-14.576C471.924,125.462,475.97,122.625,475.97,122.625Z" transform="translate(-430.34 -122.625)" fill="url(#linear-gradient)"/>
    </g>
    <g id="Group_3952" data-name="Group 3952" transform="translate(465.582 185.717)">
      <path id="Path_28418" data-name="Path 28418" d="M422.5,124.1l3.394.485a47.26,47.26,0,0,1,20.779,8.472A43.239,43.239,0,0,1,457.32,144.81a39.538,39.538,0,0,1,4.9,14.091c.713,4.559.986,8.612,1.394,12.4a88.335,88.335,0,0,0,1.488,9.587l.875,4.03s-1.36-.557-3.679-1.778a37.317,37.317,0,0,1-8.539-6.449,53.913,53.913,0,0,1-8.517-11.3,72.868,72.868,0,0,1-5.552-11.783,105.227,105.227,0,0,0-4.336-10.6,77.6,77.6,0,0,0-5.641-9.425c-1.934-2.82-3.762-5.189-5.122-6.8Z" transform="translate(-422.501 -124.098)" fill="url(#linear-gradient-29)"/>
    </g>
    <g id="Group_3953" data-name="Group 3953" transform="translate(463.698 236.427)">
      <path id="Path_28419" data-name="Path 28419" d="M422.163,133.2a72.224,72.224,0,0,1,11,1.734,69.032,69.032,0,0,1,21.944,9.03c7.174,4.676,12.112,12.965,14.837,19.882a61.641,61.641,0,0,1,3.59,12.519,118.831,118.831,0,0,1-11.577-4.621c-6.416-2.982-14.013-6.99-19.364-12.563a194.26,194.26,0,0,1-14.079-17.162C424.71,136.925,422.163,133.2,422.163,133.2Z" transform="translate(-422.163 -133.196)" fill="url(#linear-gradient)"/>
    </g>
    <g id="Group_3954" data-name="Group 3954" transform="translate(454.64 275.087)">
      <path id="Path_28420" data-name="Path 28420" d="M420.538,140.132a79.886,79.886,0,0,0,10.674,2.687c6.17,1.232,14.057,1.811,21.978,3.489,7.859,1.7,16.119,6.934,21.81,12.374a43.735,43.735,0,0,1,8.422,10.534l-12.569-.095c-7.029-.178-16.052-.49-24.012-4.164-7.92-3.59-15.6-9.448-20.116-14.955a37.058,37.058,0,0,1-4.8-7.012Z" transform="translate(-420.538 -140.132)" fill="url(#linear-gradient)"/>
    </g>
    <g id="Group_3955" data-name="Group 3955" transform="translate(494.075 339.314)">
      <path id="Path_28421" data-name="Path 28421" d="M427.613,151.655s16.577,5.54,28.722,14.927c6.07,4.721,10.128,12.357,12.786,18.828a98.176,98.176,0,0,1,3.963,11.766,62.981,62.981,0,0,1-11.655-3.578c-6.432-2.625-14.091-6.895-18.962-13.02C432.674,168.332,427.613,151.655,427.613,151.655Z" transform="translate(-427.613 -151.655)" fill="url(#linear-gradient-32)"/>
    </g>
    <g id="Group_3956" data-name="Group 3956" transform="translate(463.012 306.549)">
      <path id="Path_28422" data-name="Path 28422" d="M422.04,146.3s1.31-.156,3.344-.4a40.186,40.186,0,0,1,9.007.318,68.142,68.142,0,0,1,24.988,8.807c8.071,4.782,13.957,13.032,18.014,19.692,1.75,2.993,3.567,6.1,4.95,8.467,1.26,2.034,2.124,3.428,2.124,3.428a32.23,32.23,0,0,1-4.024-.373,60.063,60.063,0,0,1-9.793-2.536c-7.664-2.642-16.554-6.978-22.931-12.8-6.382-5.892-12.117-12.357-16.944-17.034A81.6,81.6,0,0,0,422.04,146.3Z" transform="translate(-422.04 -145.777)" fill="url(#linear-gradient)"/>
    </g>
    <g id="Group_3957" data-name="Group 3957" transform="translate(565.234 201.295)">
      <path id="Path_28423" data-name="Path 28423" d="M451.429,126.893s7.709,23.934,9.007,47.879c1.3,23.984-11.828,51.257-11.828,51.257s-10.25-28.137-7.87-51.686C443.118,150.76,451.429,126.893,451.429,126.893Z" transform="translate(-440.38 -126.893)" fill="url(#linear-gradient)"/>
    </g>
    <g id="Group_3958" data-name="Group 3958" transform="translate(585.051 252.249)">
      <path id="Path_28424" data-name="Path 28424" d="M527.76,137.447s-4.844,3.082-12.123,7.029a257.179,257.179,0,0,1-26.487,12.619c-9.615,3.734-20.59,4.977-29.5,6.109-8.829,1.065-15.712,2.375-15.712,2.375s.875-1.421,2.609-3.807a62.7,62.7,0,0,1,8.143-8.651c7.251-6.337,18.059-12.764,28.872-14.921a124.114,124.114,0,0,1,30.249-2C522.141,136.6,527.76,137.447,527.76,137.447Z" transform="translate(-443.935 -136.035)" fill="url(#linear-gradient)"/>
    </g>
    <g id="Group_3959" data-name="Group 3959" transform="translate(591.925 157.719)">
      <path id="Path_28425" data-name="Path 28425" d="M454.319,119.075s2.057,6.187,4.559,15.356c2.475,9.18,5.44,21.437,6.293,34.045.9,12.586-2.581,26.526-7.123,36.509a72.668,72.668,0,0,1-9.526,16.053s-.825-9.247-1.577-17.747c-.9-10.167-2.425-22.908-1.477-34.926a282.072,282.072,0,0,1,4.938-33.75C452.368,125.268,454.319,119.075,454.319,119.075Z" transform="translate(-445.168 -119.075)" fill="url(#linear-gradient-24)"/>
    </g>
    <g id="Group_3960" data-name="Group 3960" transform="translate(607.987 221.62)">
      <path id="Path_28426" data-name="Path 28426" d="M499.318,132.482s-9.776,11.833-21.448,17.546-29.82-1.561-29.82-1.561S459,133.491,471.806,131.284,499.318,132.482,499.318,132.482Z" transform="translate(-448.05 -130.539)" fill="url(#linear-gradient-24)"/>
    </g>
    <g id="Group_3961" data-name="Group 3961" transform="translate(613.97 131.394)">
      <path id="Path_28427" data-name="Path 28427" d="M461.021,114.352s1.516,6.009,3.2,12.7a193.244,193.244,0,0,1,4.844,27.094c.836,9.777-1.717,20.484-4.548,28.789a100.979,100.979,0,0,1-5.942,14.091,120.455,120.455,0,0,1-5.29-14c-2.558-8.227-4.933-19.007-3.924-29.045a117.639,117.639,0,0,1,6.41-27.507A93.133,93.133,0,0,1,461.021,114.352Z" transform="translate(-449.123 -114.352)" fill="url(#linear-gradient-24)"/>
    </g>
    <g id="Group_3962" data-name="Group 3962" transform="translate(629.33 197.291)">
      <path id="Path_28428" data-name="Path 28428" d="M522.243,128.446s-4.56,3.021-9.637,6.382c-5.674,3.673-13.255,8.417-21.788,11.343-8.45,2.977-19.291,2.018-27.094-.925a34.643,34.643,0,0,1-8.957-4.922,34.035,34.035,0,0,1-2.887-2.648s1.455-.357,3.567-.881c2.179-.591,5.094-1.589,8.311-2.781,6.5-2.491,14.324-6.014,22.635-7.045a126.306,126.306,0,0,1,24.274-.385A67.016,67.016,0,0,1,522.243,128.446Z" transform="translate(-451.879 -126.174)" fill="url(#linear-gradient)"/>
    </g>
    <g id="Group_3963" data-name="Group 3963" transform="translate(642.411 114.411)">
      <path id="Path_28429" data-name="Path 28429" d="M470.016,111.305a71.751,71.751,0,0,0,.608,10.618c.669,6.025,2.436,13.4,3.45,20.807.953,7.357-.864,15.9-2.988,22.881a80.9,80.9,0,0,1-4.665,12.006,79.724,79.724,0,0,1-6.494-10.735c-3.233-6.4-6.427-15.278-5.557-24.006a51.764,51.764,0,0,1,8.082-23.176,34.552,34.552,0,0,1,5.256-6.354C469.114,112.1,470.016,111.305,470.016,111.305Z" transform="translate(-454.226 -111.305)" fill="url(#linear-gradient-24)"/>
    </g>
    <g id="Group_3964" data-name="Group 3964" transform="translate(648.264 175.988)">
      <path id="Path_28430" data-name="Path 28430" d="M513.126,129.4s-3.974,2.263-8.394,4.788c-4.927,2.7-11.46,6-18.254,7.731-6.778,1.733-14.732-.011-20.9-2.374a43.465,43.465,0,0,1-10.306-5.457s3.929-2.709,9.325-5.735c5.423-2.977,12.513-6.087,19.559-6a72.659,72.659,0,0,1,19.876,3.394A52.416,52.416,0,0,1,513.126,129.4Z" transform="translate(-455.276 -122.353)" fill="url(#linear-gradient)"/>
    </g>
    <g id="Group_3965" data-name="Group 3965" transform="translate(662.683 132.715)">
      <path id="Path_28431" data-name="Path 28431" d="M524.866,114.589a97.614,97.614,0,0,1-9.464,8.444c-5.869,4.671-13.411,10.362-20.54,15.334-7.118,4.933-16.014,8.143-23.544,11.209-3.361,1.338-6.85,2.731-9.5,3.79l-3.958,1.483s.413-1.466,1.31-3.918a59,59,0,0,1,4.526-9.6c4.286-7.469,12.218-16.147,21.7-20.244,9.464-4.125,19.581-5.479,26.972-5.964C519.794,114.661,524.866,114.589,524.866,114.589Z" transform="translate(-457.863 -114.589)" fill="url(#linear-gradient)"/>
    </g>
    <g id="Group_3966" data-name="Group 3966" transform="translate(571.583 294.016)">
      <path id="Path_28432" data-name="Path 28432" d="M468.013,143.528a35.818,35.818,0,0,1,.992,9.726,55.334,55.334,0,0,1-4.191,19.77c-2.692,6.337-8.277,10.718-12.892,14.47-4.66,3.645-8.506,7.023-8.506,7.023a30.2,30.2,0,0,1-1.9-11.281c-.017-6.7,2.079-14.9,6.326-20.233,4.292-5.39,9.492-9.648,13.427-13.2C465.226,146.309,468.013,143.528,468.013,143.528Z" transform="translate(-441.519 -143.528)" fill="url(#linear-gradient-43)"/>
    </g>
    <g id="Group_3967" data-name="Group 3967" transform="translate(580.843 337.193)">
      <path id="Path_28433" data-name="Path 28433" d="M499.726,171.416a37.691,37.691,0,0,1-9.771,2.82,56.083,56.083,0,0,1-21.27-.652c-7.235-1.706-13.288-7.012-17.786-11.644-4.448-4.66-7.72-8.723-7.72-8.723a46.59,46.59,0,0,1,11.443-1.878c6.627-.323,14.771.513,20.918,3.773,6.181,3.3,11.777,7.653,16.281,10.858C496.282,169.225,499.726,171.416,499.726,171.416Z" transform="translate(-443.18 -151.274)" fill="url(#linear-gradient-29)"/>
    </g>
    <g id="Group_3968" data-name="Group 3968" transform="translate(606.566 312.89)">
      <path id="Path_28434" data-name="Path 28434" d="M504.943,165.82a59.6,59.6,0,0,1-9.7,2.062,76.936,76.936,0,0,1-20.183.178c-6.844-.975-13.009-5.195-18.087-8.829-4.42-3.25-9.18-6.755-9.18-6.755a35.875,35.875,0,0,1,10.78-4.364c6.538-1.611,15.1-1.878,21.782.97,6.711,2.843,12.669,7.179,17.117,10.635C501.906,163.189,504.943,165.82,504.943,165.82Z" transform="translate(-447.795 -146.914)" fill="url(#linear-gradient)"/>
    </g>
    <g id="Group_3969" data-name="Group 3969" transform="translate(650.794 306.195)">
      <path id="Path_28435" data-name="Path 28435" d="M499.379,169.056a17.969,17.969,0,0,1-2.068,1.354,18.632,18.632,0,0,1-6.477,1.984c-5.7.836-13.11-.44-18.923-3.2-5.914-2.809-9.386-8.74-11.783-13.689-1.053-2.269-2.157-4.626-2.993-6.416l-1.4-2.709a22.041,22.041,0,0,1,2.965-.535,33.688,33.688,0,0,1,7.469.184c5.847.769,12.519,2.932,16.6,6.722,4.141,3.84,7.374,8.428,10.417,11.51A23.374,23.374,0,0,0,499.379,169.056Z" transform="translate(-455.73 -145.713)" fill="url(#linear-gradient)"/>
    </g>
    <g id="Group_3970" data-name="Group 3970" transform="translate(640.75 284.629)">
      <path id="Path_28436" data-name="Path 28436" d="M540.021,158.967s-6.41.485-13.544,1.031c-7.932.652-18.126,1.845-28.209,2.107-10.055.206-21.008-2.631-29.642-5.568a122.921,122.921,0,0,1-14.7-6.036,114.765,114.765,0,0,1,14.759-5.2c8.7-2.441,20.267-4.531,30.935-2.848A97.767,97.767,0,0,1,528.2,151.7,74.337,74.337,0,0,1,540.021,158.967Z" transform="translate(-453.928 -141.844)" fill="url(#linear-gradient)"/>
    </g>
    <g id="Group_3971" data-name="Group 3971" transform="translate(691.088 262.48)">
      <path id="Path_28437" data-name="Path 28437" d="M533.635,160.605a76.883,76.883,0,0,1-11.822,1.265,110.611,110.611,0,0,1-24.664-1.934c-8.333-1.672-15.958-6.321-22.507-10-5.624-3.272-11.683-6.8-11.683-6.8a47.282,47.282,0,0,1,13.11-4.342c7.954-1.605,18.656-1.276,26.96,2.341,8.344,3.606,15.646,8.712,21.231,12.63C529.806,157.707,533.635,160.605,533.635,160.605Z" transform="translate(-462.959 -137.87)" fill="url(#linear-gradient-32)"/>
    </g>
    <g id="Group_3972" data-name="Group 3972" transform="translate(729.781 249.093)">
      <path id="Path_28438" data-name="Path 28438" d="M542.082,149.808s-5.373,1.087-11.354,2.3c-6.633,1.332-15.272,3.1-23.8,3.523-8.511.407-17.663-2.514-24.814-5.535a102.005,102.005,0,0,1-12.212-6.126,81.073,81.073,0,0,1,12.4-5.106c7.324-2.363,16.972-4.359,25.779-2.9a88.394,88.394,0,0,1,23.85,7.764A60.179,60.179,0,0,1,542.082,149.808Z" transform="translate(-469.901 -135.468)" fill="url(#linear-gradient-32)"/>
    </g>
    <g id="Group_3973" data-name="Group 3973" transform="translate(650.17 228.145)">
      <path id="Path_28439" data-name="Path 28439" d="M511.066,131.71s-3.211,4.331-7.385,10.6c-4.247,6.237-9.459,14.492-15.15,21.983-5.741,7.441-13.99,13.617-20.835,18.578l-12.078,8.8a54.257,54.257,0,0,1,2.742-15.049c2.7-8.478,7.982-18.851,15.746-25.745a86.749,86.749,0,0,1,24.313-15.205A63.529,63.529,0,0,1,511.066,131.71Z" transform="translate(-455.618 -131.71)" fill="url(#linear-gradient)"/>
    </g>
    <g id="Group_3974" data-name="Group 3974" transform="translate(716.365 203.363)">
      <path id="Path_28440" data-name="Path 28440" d="M525.852,127.264s-3.3,5.206-6.967,11.008a245.414,245.414,0,0,1-15.7,22.173c-6.125,7.391-15.01,13.216-22.407,17.574-7.38,4.32-13.288,7.185-13.288,7.185a74.6,74.6,0,0,1,4.66-14.375c3.45-8.049,9.247-17.8,17.106-24.319a103.548,103.548,0,0,1,24.207-14.748A88.463,88.463,0,0,1,525.852,127.264Z" transform="translate(-467.494 -127.264)" fill="url(#linear-gradient)"/>
    </g>
    <g id="Group_3975" data-name="Group 3975" transform="translate(684.795 204.121)">
      <path id="Path_28441" data-name="Path 28441" d="M514.932,127.4s-2.753,4.827-6.3,11.744c-3.623,6.9-7.937,16-13.082,24.5-5.156,8.45-13.45,15.964-20.612,21.4a105.24,105.24,0,0,1-13.1,8.578,125.084,125.084,0,0,1,3.8-14.86c2.681-8.422,7.09-19,14.119-26.883a95.626,95.626,0,0,1,22.836-18.661A67.774,67.774,0,0,1,514.932,127.4Z" transform="translate(-461.83 -127.4)" fill="url(#linear-gradient)"/>
    </g>
    <g id="Group_3976" data-name="Group 3976" transform="translate(606.758 272.464)">
      <path id="Path_28442" data-name="Path 28442" d="M476.075,139.665l-.976,2.2a51.577,51.577,0,0,0-1.566,5.6c-1.037,4.559-1.984,10.417-3.907,15.607-1.923,5.173-6.822,9.325-11.225,12.669-2.029,1.483-4.142,3.027-5.741,4.2-1.444,1.092-2.425,1.839-2.425,1.839a29.414,29.414,0,0,1-2.319-10.083c-.412-5.841.563-13.255,4.615-18.427a40.685,40.685,0,0,1,14.726-11.5,26.256,26.256,0,0,1,6.321-1.956A17.889,17.889,0,0,1,476.075,139.665Z" transform="translate(-447.829 -139.661)" fill="url(#linear-gradient-8)"/>
    </g>
    <g id="Group_3977" data-name="Group 3977" transform="translate(549.392 362.618)">
      <path id="Path_28443" data-name="Path 28443" d="M494.605,155.836s-20.612,23.739-25.411,29.257c-5.981,6.6-14,11.883-20.356,16.922-6.393,4.888-11.226,9.353-11.226,9.353s-.106-1.544-.067-4.264a47.313,47.313,0,0,1,1.694-10.925c2.257-8.773,8.277-19.391,16.744-25.7a80.681,80.681,0,0,1,38.621-14.642Z" transform="translate(-437.537 -155.836)" fill="url(#linear-gradient)"/>
    </g>
    <g id="Group_3978" data-name="Group 3978" transform="translate(539.143 413.797)">
      <path id="Path_28444" data-name="Path 28444" d="M471.368,165.018a58.389,58.389,0,0,1-1.968,10.863,100.456,100.456,0,0,1-8.283,21.064c-3.74,6.806-9.966,11.867-14.96,16.342-2.43,2.23-4.6,4.336-6.092,6.025l-2.352,2.859a32.305,32.305,0,0,1-1.182-3.528,33.4,33.4,0,0,1-.775-9.6c.49-7.792,3.7-17.312,9.269-23.466,5.557-6.254,12.307-11.047,17.469-14.6Z" transform="translate(-435.699 -165.018)" fill="url(#linear-gradient)"/>
    </g>
    <g id="Group_3979" data-name="Group 3979" transform="translate(505.233 110.626)">
      <path id="Path_28445" data-name="Path 28445" d="M448.573,110.626a98.394,98.394,0,0,1,2.909,15.7,166.433,166.433,0,0,1-.067,34.117c-1.232,11.911-5.68,24.1-9.548,33.772-3.857,9.632-7.385,16.543-7.385,16.543a116.724,116.724,0,0,1-3.785-17.68c-1.483-10.423-1.789-24.2,1.326-36.124s7.787-23.143,11.059-31.737C445.987,117.5,448.573,110.626,448.573,110.626Z" transform="translate(-429.615 -110.626)" fill="url(#linear-gradient)"/>
    </g>
  </g>
</svg>
