<svg xmlns="http://www.w3.org/2000/svg" xmlns:xlink="http://www.w3.org/1999/xlink" width="707.92" height="310.292" viewBox="0 0 707.92 310.292">
  <defs>
    <linearGradient id="linear-gradient" x1="-12.382" y1="1.403" x2="-12.382" y2="-1.888" gradientUnits="objectBoundingBox">
      <stop offset="0" stop-color="#fff"/>
      <stop offset="0.11" stop-color="#f7fcfe"/>
      <stop offset="0.281" stop-color="#e1f5fc"/>
      <stop offset="0.491" stop-color="#bdeaf9"/>
      <stop offset="0.732" stop-color="#8bdbf5"/>
      <stop offset="0.997" stop-color="#4cc8f1"/>
      <stop offset="1" stop-color="#4cc8f1"/>
    </linearGradient>
  </defs>
  <g id="Group_5967" data-name="Group 5967" transform="translate(259.92 -7440)">
    <g id="Group_2785" data-name="Group 2785" transform="translate(-259.92 7440)">
      <g id="Group_2767" data-name="Group 2767" transform="translate(0 0.184)">
        <g id="Group_2765" data-name="Group 2765" transform="translate(0 0)">
          <path id="Path_6278" data-name="Path 6278" d="M148.786,311.686c-.012-.136-.024-.2-.024-.2s.1.8.258,2.334.442,3.82.817,6.793.866,6.646,1.541,10.934c.657,4.3,1.481,9.238,2.556,14.73a381.172,381.172,0,0,0,9.8,39.225,303.753,303.753,0,0,0,19.607,48.747,242.839,242.839,0,0,0,35.012,51.633c3.734,4.14,7.6,8.243,11.769,12.175l1.548,1.487,1.591,1.462q1.593,1.456,3.2,2.912c2.211,1.879,4.38,3.82,6.69,5.639a207.673,207.673,0,0,0,29.723,20.134,223.479,223.479,0,0,0,33.9,15.3c1.492.528,2.966,1.056,4.471,1.559s3,.97,4.515,1.45l2.267.713,2.285.651c1.523.43,3.053.873,4.583,1.315,6.16,1.6,12.376,3.1,18.7,4.263a296.5,296.5,0,0,0,38.439,4.754c6.487.381,12.967.614,19.509.614h4.834c1.628-.012,3.231.013,4.87-.061l9.792-.294a305.275,305.275,0,0,0,76.474-13.231,244,244,0,0,0,67.291-33.145,234.526,234.526,0,0,0,27.642-22.8,253.1,253.1,0,0,0,23.04-25.307,289.236,289.236,0,0,0,33.145-52.8,343.813,343.813,0,0,0,19.416-48.808,389.106,389.106,0,0,0,10.092-39.152c2.236-10.983,3.47-19.705,4.22-25.639.381-2.973.633-5.27.8-6.806.148-1.536.234-2.334.234-2.334s-.1.8-.3,2.322c-.037.209-.062.417-.092.639.891-7.273,1.118-11.438,1.118-11.438l-3-31.253H565.811l1.068,13.514s-8.654,192.136-162.6,189.864c-135.9-2-143.924-165.147-143.93-203.378H145.893S144.406,275.543,148.786,311.686Z" transform="translate(-145.65 -250.199)" fill="#231f20"/>
        </g>
        <g id="Group_2766" data-name="Group 2766" transform="translate(7.543 7.445)">
          <path id="Path_6279" data-name="Path 6279" d="M255.347,260.019H155.655a410.032,410.032,0,0,0,3.059,53.144h0l.246,2.224c.153,1.45.412,3.625.8,6.7.339,2.666.823,6.364,1.506,10.712.755,4.963,1.572,9.668,2.512,14.435a371.912,371.912,0,0,0,9.608,38.477,295.439,295.439,0,0,0,19.121,47.58,236.748,236.748,0,0,0,33.93,50.037c4.38,4.841,7.875,8.464,11.333,11.733l1.536,1.474,4.607,4.2c.644.541,1.277,1.093,1.916,1.646,1.53,1.315,2.973,2.556,4.454,3.722l.123.1a201.533,201.533,0,0,0,28.617,19.386,215.7,215.7,0,0,0,32.72,14.766c.51.184,1.051.368,1.573.553.915.333,1.831.651,2.733.959l6.61,2.113,6.683,1.891c4.932,1.277,11.431,2.9,18.071,4.128a290.553,290.553,0,0,0,37.506,4.643c7.254.418,13.3.6,19.03.6l5.774-.012h1.02c.8,0,1.738,0,2.616-.037h.092l9.724-.319a296.434,296.434,0,0,0,74.49-12.862,234.689,234.689,0,0,0,65.215-32.137,227.419,227.419,0,0,0,26.756-22.064,246.781,246.781,0,0,0,22.346-24.546,282.693,282.693,0,0,0,32.3-51.449A336.937,336.937,0,0,0,663.3,364.023a381,381,0,0,0,9.89-38.415c2.254-11.045,3.446-19.619,4.146-25.1.325-2.58.547-4.619.713-6.13h-.086c.669-5.479.958-9.141,1.038-10.442l-2.29-23.919H576.4l.467,5.958-.018.454c-.093,1.99-2.451,49.41-23.833,97.592-12.7,28.649-29.533,51.548-50.012,68.059-25.8,20.8-57.285,31.339-93.593,31.339-.934,0-1.855,0-2.807-.024-33.084-.492-61.511-10.221-84.508-28.944-18.876-15.356-34.1-36.831-45.282-63.771C259.457,328.79,255.912,283.421,255.347,260.019Z" transform="translate(-155.633 -260.019)" fill="#fff"/>
        </g>
      </g>
      <g id="Group_2784" data-name="Group 2784" transform="translate(1.161 0)">
        <g id="Group_2775" data-name="Group 2775" transform="translate(0 0)">
          <g id="Group_2768" data-name="Group 2768">
            <path id="Path_6280" data-name="Path 6280" d="M396.587,561.324C667.021,564.616,682.212,285,682.212,285a94.647,94.647,0,0,0-2.979-31.241H668.594l1.616,17.568s-14.527,279.617-272.9,276.325C172,544.776,156.14,313,155.772,253.758H143.99S126.146,558.019,396.587,561.324Z" transform="translate(-143.747 -253.758)" fill="#ee3b24"/>
          </g>
          <g id="Group_2769" data-name="Group 2769" transform="translate(12.024 0)">
            <path id="Path_6281" data-name="Path 6281" d="M401.541,565.686c250.582,3.193,271.8-259.723,272.852-275.578a9.3,9.3,0,0,0-.02-1.46l-1.55-16.854H660.017l.141,1.622s-13.723,279.63-257.744,276.325c-196.964-2.666-224.464-201.4-227.744-277.947H160C160.369,331.032,176.229,562.812,401.541,565.686Z" transform="translate(-160.001 -271.794)" fill="#f7993c"/>
          </g>
          <g id="Group_2770" data-name="Group 2770" transform="translate(26.693 0)">
            <path id="Path_6282" data-name="Path 6282" d="M407.564,556.781C234.419,554.263,201.882,377.089,196.2,292.827H178.8c3.28,76.547,30.78,275.281,227.744,277.947,244.022,3.3,257.744-276.325,257.744-276.325l-.141-1.622H646.585C640.915,346.868,606,559.668,407.564,556.781Z" transform="translate(-178.805 -292.827)" fill="#f2e92d"/>
          </g>
          <g id="Group_2771" data-name="Group 2771" transform="translate(44.088 0)">
            <path id="Path_6283" data-name="Path 6283" d="M413.528,575.238c198.438,2.887,233.352-209.913,239.021-263.954H633.98C631.437,343.79,607.156,562.5,414.94,559.7,251.587,557.339,225.217,384.784,221.4,311.284H202.164C207.846,395.546,240.383,572.72,413.528,575.238Z" transform="translate(-202.164 -311.284)" fill="#8dc646"/>
          </g>
          <g id="Group_2772" data-name="Group 2772" transform="translate(63.32 0)">
            <path id="Path_6284" data-name="Path 6284" d="M422.755,564.843C277.8,562.62,246.57,411.441,240.189,331.786H226.657c3.82,73.5,30.191,246.055,193.543,248.414C612.416,583,636.7,364.292,639.24,331.786H628.976C621.722,391.331,586.434,567.35,422.755,564.843Z" transform="translate(-226.657 -331.786)" fill="#80d2ec"/>
          </g>
          <g id="Group_2773" data-name="Group 2773" transform="translate(76.852 0)">
            <path id="Path_6285" data-name="Path 6285" d="M422.762,585.1c163.679,2.507,198.967-173.512,206.221-233.057H604.93l.233,2.923s-9.815,217.947-184.446,215.368c-142.278-2.089-160.988-159.889-163.04-218.291H240.2C246.578,431.7,277.806,582.876,422.762,585.1Z" transform="translate(-240.196 -352.042)" fill="#4b8cca"/>
          </g>
          <g id="Group_2774" data-name="Group 2774" transform="translate(94.333 0)">
            <path id="Path_6286" data-name="Path 6286" d="M598.513,385.037S589.858,577.162,435.9,574.9c-135.89-2.015-143.912-165.159-143.924-203.378H271.617c2.051,58.4,20.762,216.2,163.039,218.291C609.287,592.395,619.1,374.447,619.1,374.447l-.233-2.923H597.438Z" transform="translate(-271.617 -371.524)" fill="#7454a2"/>
          </g>
        </g>
        <g id="Group_2783" data-name="Group 2783" transform="translate(3.111 17.457)">
          <g id="Group_2776" data-name="Group 2776" transform="translate(0 22.26)">
            <path id="Path_6287" data-name="Path 6287" d="M145.075,272.018s.111.811.325,2.334.547,3.808,1.008,6.769c.928,5.922,2.4,14.595,4.755,25.516a376.866,376.866,0,0,0,10.577,38.87,317.435,317.435,0,0,0,20.35,48.046,256.944,256.944,0,0,0,15.448,25.5c2.893,4.276,6.044,8.464,9.306,12.678,3.316,4.153,6.781,8.305,10.492,12.347A210.891,210.891,0,0,0,271.248,486.6a233.867,233.867,0,0,0,69.538,24.386,293.138,293.138,0,0,0,37.851,4.607c6.382.344,12.813.578,19.207.565l4.847-.024c1.616-.012,3.243.024,4.835-.049l9.606-.331c25.664-1.229,51.21-5.308,75.295-12.851a250.129,250.129,0,0,0,34.785-13.8,234.665,234.665,0,0,0,58.82-40.613A248.333,248.333,0,0,0,608.992,423.8a283.2,283.2,0,0,0,18.66-25.9c5.565-8.685,10.485-17.371,14.828-25.9,4.361-8.539,8.126-16.9,11.474-24.963s6.217-15.811,8.7-23.194a383.592,383.592,0,0,0,10.884-38.808c2.432-10.9,3.98-19.558,4.889-25.492.467-2.948.775-5.22.989-6.756.2-1.536.3-2.334.3-2.334s-.086.8-.234,2.346c-.172,1.548-.418,3.821-.792,6.793-.762,5.946-2,14.668-4.239,25.639a387.443,387.443,0,0,1-10.092,39.152,343.647,343.647,0,0,1-19.4,48.808A289.973,289.973,0,0,1,611.8,426.01a252.831,252.831,0,0,1-23.041,25.3,233.2,233.2,0,0,1-27.647,22.8,244.222,244.222,0,0,1-67.278,33.157,305.446,305.446,0,0,1-76.474,13.218l-9.8.308c-1.646.074-3.243.036-4.871.049H397.85c-6.536,0-13.015-.233-19.509-.6a296.411,296.411,0,0,1-38.433-4.767c-6.32-1.154-12.537-2.653-18.7-4.262-1.529-.43-3.052-.873-4.576-1.3l-2.285-.651-2.273-.725q-2.265-.719-4.509-1.437c-1.5-.5-2.985-1.044-4.471-1.56a224.4,224.4,0,0,1-33.9-15.3A209.473,209.473,0,0,1,239.466,470.1c-2.3-1.819-4.477-3.772-6.688-5.652-1.075-.958-2.145-1.941-3.213-2.9l-1.585-1.462-1.542-1.487c-4.165-3.932-8.034-8.047-11.775-12.175a242.873,242.873,0,0,1-35.006-51.633,304.607,304.607,0,0,1-19.619-48.759,383.612,383.612,0,0,1-9.785-39.214c-1.08-5.5-1.91-10.429-2.567-14.729s-1.155-7.96-1.548-10.947c-.362-2.973-.632-5.245-.8-6.781S145.075,272.018,145.075,272.018Z" transform="translate(-145.075 -250.458)" fill="#f06022"/>
          </g>
          <g id="Group_2777" data-name="Group 2777" transform="translate(12.752 17.408)">
            <path id="Path_6288" data-name="Path 6288" d="M162.381,288.741s.117.761.338,2.224.566,3.636,1.026,6.462c.94,5.662,2.451,13.943,4.761,24.409a380.6,380.6,0,0,0,10.239,37.186c2.352,7.065,5.073,14.521,8.268,22.236,1.591,3.857,3.311,7.776,5.129,11.769,1.849,3.968,3.772,8.022,5.9,12.076,2.082,4.078,4.379,8.157,6.768,12.272,1.228,2.039,2.438,4.128,3.741,6.167.651,1.02,1.3,2.052,1.953,3.084.675,1.032,1.351,2.039,2.027,3.072s1.375,2.051,2.095,3.083,1.431,2.039,2.143,3.071c1.48,2.026,2.93,4.091,4.5,6.106,3.071,4.066,6.382,8.047,9.815,12a202.265,202.265,0,0,0,50.755,41.744,206.114,206.114,0,0,0,31.6,14.792c1.388.491,2.776.97,4.183,1.462l2.095.737,2.126.675c1.412.443,2.832.9,4.25,1.34,1.431.4,2.875.81,4.312,1.215l2.156.615,2.18.553c1.45.381,2.906.749,4.368,1.118,1.462.343,2.923.65,4.4.995,1.468.32,2.929.663,4.422.934a278.55,278.55,0,0,0,36.174,4.681c3.058.135,6.123.344,9.188.418l4.595.122,2.279.05,2.31-.013,4.656-.012c1.536,0,3.09.012,4.619-.049,3.059-.123,6.118-.184,9.189-.319a273.011,273.011,0,0,0,71.946-12.764A242.864,242.864,0,0,0,526,498.642a225.91,225.91,0,0,0,55.589-39.84c3.981-3.809,7.721-7.789,11.351-11.757,3.563-4.029,7.033-8.071,10.27-12.2a292.362,292.362,0,0,0,31.6-49.9,363.648,363.648,0,0,0,19.269-46.13c4.8-14.115,8.182-26.671,10.646-37.088,2.432-10.43,4.041-18.7,5.011-24.336.492-2.838.842-5,1.07-6.474s.344-2.211.344-2.211-.092.749-.284,2.223-.46,3.648-.866,6.486c-.829,5.676-2.131,14.017-4.361,24.509s-5.35,23.17-9.859,37.444c-2.255,7.126-4.865,14.656-7.906,22.494s-6.567,15.958-10.589,24.275-8.588,16.818-13.747,25.356a270.805,270.805,0,0,1-17.494,25.516c-3.238,4.226-6.708,8.354-10.283,12.494-3.642,4.079-7.389,8.157-11.388,12.076-.995.983-2,1.966-3,2.961-1.038.959-2.07,1.917-3.1,2.887-2.057,1.953-4.245,3.784-6.388,5.675-1.069.946-2.192,1.832-3.3,2.752-1.124.922-2.236,1.819-3.36,2.74-1.149.885-2.291,1.769-3.446,2.641-1.149.9-2.291,1.794-3.495,2.629a232.606,232.606,0,0,1-30.246,18.71l-4.048,1.991c-1.364.663-2.708,1.375-4.1,1.965-2.764,1.229-5.5,2.568-8.336,3.674q-2.109.865-4.232,1.732c-1.425.578-2.862,1.081-4.287,1.622-1.45.528-2.875,1.082-4.324,1.584s-2.918.971-4.367,1.45a277.42,277.42,0,0,1-73.163,13.145c-3.133.159-6.259.209-9.385.319-1.572.049-3.108.037-4.656.037l-4.65.011h-2.316l-2.377-.073-4.662-.111c-3.114-.1-6.222-.307-9.33-.454a284.371,284.371,0,0,1-36.8-4.84,232.478,232.478,0,0,1-35.147-10.013A209.993,209.993,0,0,1,279.7,499.281a201.83,201.83,0,0,1-51.308-43.023A240.665,240.665,0,0,1,195.6,406.32a304.312,304.312,0,0,1-18.544-46.769,381.367,381.367,0,0,1-9.46-37.542c-1.05-5.258-1.9-9.976-2.549-14.079s-1.168-7.617-1.56-10.454c-.375-2.863-.663-5.037-.835-6.511S162.381,288.741,162.381,288.741Z" transform="translate(-162.381 -268.705)" fill="#fbb53e"/>
          </g>
          <g id="Group_2778" data-name="Group 2778" transform="translate(28.207 12.714)">
            <path id="Path_6289" data-name="Path 6289" d="M183.034,307.975s.117.713.349,2.088c.209,1.388.572,3.44,1.051,6.118.946,5.344,2.476,13.157,4.724,23.035,2.291,9.865,5.392,21.769,9.84,35.147a323.952,323.952,0,0,0,18.058,43.7,242.724,242.724,0,0,0,30.529,46.7,193.421,193.421,0,0,0,46.953,40.687c4.637,2.788,9.373,5.5,14.337,7.911l1.836.922,1.886.884c1.246.566,2.493,1.168,3.765,1.72,2.55,1.093,5.092,2.224,7.7,3.207a209.1,209.1,0,0,0,32.415,9.718,246.619,246.619,0,0,0,34.146,4.741c2.887.2,5.78.332,8.673.467l4.349.111,2.18.061c.651.012,1.437,0,2.155.012l4.392-.012c1.462-.012,2.936.012,4.374-.061l4.342-.135c1.437-.049,2.881-.074,4.343-.184a247.813,247.813,0,0,0,67.886-12.543c1.34-.455,2.665-.97,4.011-1.45s2.678-.946,3.993-1.487,2.629-1.057,3.949-1.584l1.966-.787,1.929-.86q1.952-.848,3.882-1.7c1.277-.577,2.531-1.2,3.808-1.807s2.544-1.179,3.772-1.842c1.247-.639,2.494-1.29,3.728-1.929a205.527,205.527,0,0,0,27.807-17.715,219.622,219.622,0,0,0,23.987-21,235.766,235.766,0,0,0,20.042-23.01c3.034-3.931,5.866-7.923,8.606-11.891,2.7-4.005,5.289-7.973,7.721-11.978,4.877-7.96,9.2-15.884,13.078-23.649,3.851-7.763,7.217-15.368,10.239-22.665s5.632-14.349,7.936-21.007c4.583-13.33,7.881-25.185,10.326-35.025,2.414-9.84,4.054-17.616,5.08-22.96.516-2.653.9-4.7,1.136-6.081s.375-2.1.375-2.1-.111.713-.307,2.113c-.2,1.376-.516,3.44-.946,6.118-.879,5.356-2.211,13.219-4.429,23.12s-5.245,21.867-9.539,35.369a348.446,348.446,0,0,1-17.4,44.3,285.406,285.406,0,0,1-29.011,48.452,229.085,229.085,0,0,1-44.323,45.209,212.1,212.1,0,0,1-59.907,32.15,252.565,252.565,0,0,1-69.153,12.973c-1.48.1-2.96.111-4.453.159l-4.435.136c-1.486.061-2.948.036-4.416.036h-4.392c-.742,0-1.425.024-2.235-.012l-2.205-.061-4.417-.123c-2.954-.135-5.9-.283-8.833-.491a250.779,250.779,0,0,1-34.8-4.914,199.34,199.34,0,0,1-63.188-25.32c-4.711-2.9-9.213-6.057-13.581-9.287q-6.5-4.9-12.457-10.221a204.252,204.252,0,0,1-21.45-22.458c-1.628-1.928-3.132-3.919-4.668-5.872-1.475-1.991-3-3.944-4.392-5.958-2.869-3.956-5.486-8-8.016-11.99a261.263,261.263,0,0,1-13.152-23.932c-3.808-7.874-7.131-15.565-9.969-23s-5.239-14.582-7.328-21.351c-4.145-13.538-6.984-25.553-9.047-35.48-2.058-9.95-3.274-17.825-4.073-23.194-.387-2.69-.682-4.753-.86-6.13C183.126,308.687,183.034,307.975,183.034,307.975Z" transform="translate(-183.034 -289.744)" fill="#f0eb5b"/>
          </g>
          <g id="Group_2779" data-name="Group 2779" transform="translate(45.596 8.549)">
            <path id="Path_6290" data-name="Path 6290" d="M206.8,324.175s.118.675.338,1.977.566,3.231,1.02,5.75c.934,5.037,2.39,12.42,4.521,21.72,2.156,9.312,5.043,20.553,9.134,33.219a339.54,339.54,0,0,0,16.444,41.449,244.484,244.484,0,0,0,27.536,44.853,185.7,185.7,0,0,0,42.69,40.086c4.245,2.826,8.649,5.5,13.194,8,4.564,2.445,9.238,4.779,14.072,6.855,1.2.541,2.432,1.008,3.649,1.511s2.439,1.008,3.679,1.45,2.487.922,3.722,1.376c1.259.418,2.518.86,3.778,1.266,1.265.442,2.531.835,3.815,1.215s2.543.8,3.832,1.155c2.587.688,5.16,1.425,7.782,2,5.222,1.29,10.535,2.249,15.88,3.12,2.69.369,5.368.811,8.071,1.069l4.06.455,4.066.331,2.034.172,2.051.111,4.085.233c1.364.062,2.727.073,4.1.124,1.352.024,2.758.1,4.066.086,2.752-.012,5.553.024,8.28-.049l4.085-.123c1.37-.049,2.728-.074,4.091-.172a233.855,233.855,0,0,0,32.519-3.919c2.684-.466,5.32-1.117,7.972-1.707,1.334-.271,2.636-.639,3.951-.971l3.931-1.031,3.888-1.143c1.3-.393,2.592-.749,3.87-1.191,2.562-.86,5.129-1.672,7.629-2.642a190.881,190.881,0,0,0,28.888-13.415c4.594-2.568,8.981-5.417,13.292-8.292,4.245-2.973,8.422-5.982,12.371-9.226a212.036,212.036,0,0,0,21.941-20.516,228.888,228.888,0,0,0,18.255-22.249,267.028,267.028,0,0,0,14.858-22.862c4.442-7.6,8.4-15.159,11.929-22.531s6.616-14.582,9.392-21.511,5.208-13.563,7.346-19.865c4.263-12.6,7.383-23.783,9.7-33.046s3.925-16.609,4.945-21.634c.485-2.506.867-4.435,1.13-5.737.246-1.3.368-1.966.368-1.966s-.1.676-.313,1.991-.522,3.243-.933,5.762c-.873,5.061-2.168,12.469-4.282,21.793-2.088,9.349-4.957,20.627-8.918,33.379a354.218,354.218,0,0,1-15.94,41.977,285.457,285.457,0,0,1-26.351,46.29,221.605,221.605,0,0,1-40.448,43.955c-4.011,3.329-8.25,6.438-12.568,9.521-4.385,2.973-8.844,5.921-13.531,8.575-2.3,1.388-4.7,2.641-7.082,3.919-1.186.663-2.408,1.229-3.625,1.842s-2.42,1.229-3.661,1.794l-3.728,1.7-1.861.835-1.9.787c-1.266.516-2.525,1.044-3.791,1.56-1.29.491-2.574.97-3.863,1.462-2.562,1-5.184,1.83-7.807,2.715-1.3.467-2.629.823-3.95,1.228l-3.98,1.193-4.023,1.056c-1.345.343-2.678.725-4.035,1.02-2.709.59-5.405,1.278-8.151,1.757a234.809,234.809,0,0,1-33.187,4.066c-1.376.111-2.8.135-4.189.184l-4.2.111c-2.783.061-5.534.012-8.311.024-1.437.013-2.8-.061-4.2-.1s-2.782-.062-4.177-.148l-4.17-.221-2.077-.135-2.082-.171-4.153-.357-4.146-.467c-2.757-.282-5.5-.724-8.249-1.117-5.467-.9-10.9-1.9-16.24-3.231A177.644,177.644,0,0,1,306.1,516.668c-4.306-2.96-8.464-6.044-12.438-9.3-3.944-3.256-7.746-6.622-11.327-10.136a195.764,195.764,0,0,1-19.392-21.953A222.774,222.774,0,0,1,247.6,452.307c-4.478-7.715-8.391-15.394-11.837-22.887a312.738,312.738,0,0,1-15.651-42.076c-3.8-12.8-6.412-24.152-8.342-33.526s-3.083-16.806-3.863-21.867c-.381-2.531-.663-4.484-.842-5.8Z" transform="translate(-206.799 -307.958)" fill="#b9d43b"/>
          </g>
          <g id="Group_2780" data-name="Group 2780" transform="translate(63.508 5.111)">
            <path id="Path_6291" data-name="Path 6291" d="M230.092,342.5s.1.638.282,1.854c.172,1.241.467,3.06.848,5.443.767,4.73,2.026,11.683,3.838,20.467,1.849,8.784,4.342,19.4,7.931,31.35,1.793,5.983,3.863,12.3,6.271,18.882,2.414,6.561,5.111,13.4,8.274,20.393a233.445,233.445,0,0,0,24.772,42.752,172.783,172.783,0,0,0,39.085,38.611c3.937,2.727,7.991,5.344,12.211,7.764,4.233,2.371,8.568,4.668,13.077,6.671s9.084,3.907,13.815,5.492c2.352.86,4.759,1.548,7.143,2.321,1.21.344,2.414.688,3.625,1.02l1.824.516,1.825.442c4.883,1.277,9.871,2.2,14.871,3.072l3.778.553,1.885.282,1.892.221,3.808.443c1.266.134,2.544.234,3.814.343,5.086.467,10.222.639,15.351.762l7.751-.025,7.66-.27a197.106,197.106,0,0,0,59.784-11.965c2.34-.934,4.7-1.794,6.991-2.814,1.155-.5,2.309-.995,3.446-1.5,1.136-.528,2.267-1.057,3.39-1.6,2.273-1.02,4.454-2.211,6.677-3.33,1.112-.566,2.168-1.2,3.256-1.781,1.081-.615,2.174-1.193,3.225-1.843a176.73,176.73,0,0,0,23.832-16.769,208.315,208.315,0,0,0,37.014-40.774,276.669,276.669,0,0,0,24.336-43.084c3.189-6.99,5.965-13.808,8.458-20.343s4.669-12.826,6.566-18.772c3.8-11.9,6.53-22.456,8.557-31.191,2-8.759,3.39-15.676,4.25-20.4.443-2.359.757-4.177.959-5.406s.307-1.854.307-1.854-.08.626-.246,1.854-.412,3.072-.762,5.443c-.713,4.766-1.781,11.744-3.6,20.553s-4.263,19.459-7.758,31.511A331.2,331.2,0,0,1,610.2,427.5c-3.083,7.1-6.548,14.41-10.492,21.781a258.23,258.23,0,0,1-13.4,22.186,205.486,205.486,0,0,1-37.249,41.978,181.822,181.822,0,0,1-24.28,17.384,175.623,175.623,0,0,1-27.611,13.328A202.051,202.051,0,0,1,435.975,556.6l-7.9.246H420.25c-5.239-.136-10.479-.332-15.694-.823-1.309-.111-2.6-.221-3.907-.356l-3.888-.467-1.948-.221-1.935-.295-3.863-.578c-5.129-.909-10.233-1.892-15.24-3.206a161.5,161.5,0,0,1-54.839-25.27q-5.962-4.312-11.469-9.017c-3.63-3.17-7.112-6.424-10.4-9.8a185.73,185.73,0,0,1-17.654-21.105,211.059,211.059,0,0,1-13.833-21.966c-4.023-7.347-7.494-14.656-10.559-21.769a300.433,300.433,0,0,1-13.74-39.877c-3.286-12.1-5.51-22.813-7.138-31.646-1.622-8.857-2.555-15.86-3.17-20.626-.307-2.384-.534-4.214-.675-5.455S230.092,342.5,230.092,342.5Z" transform="translate(-230.092 -328.434)" fill="#a4dcee"/>
          </g>
          <g id="Group_2781" data-name="Group 2781" transform="translate(77.469 3.083)">
            <path id="Path_6292" data-name="Path 6292" d="M244.158,361.051s.1.6.3,1.744.491,2.851.9,5.073c.805,4.435,2.076,10.934,3.913,19.14s4.33,18.133,7.8,29.312q2.588,8.4,6.007,17.654c2.3,6.142,4.877,12.555,7.862,19.1,2.967,6.548,6.3,13.256,10.16,19.988,1.885,3.378,3.944,6.732,6.087,10.135,2.174,3.341,4.423,6.719,6.856,10.037a167.379,167.379,0,0,0,36.167,36.682,145.642,145.642,0,0,0,23.433,13.944c4.159,2.014,8.483,3.734,12.863,5.368,4.38,1.6,8.882,2.973,13.44,4.226,18.268,4.816,37.666,6.364,56.9,5.418,19.214-.946,38.335-4.57,55.939-11.437,2.211-.8,4.355-1.782,6.536-2.666,1.075-.466,2.137-.982,3.206-1.462s2.132-.958,3.164-1.5c1.051-.516,2.095-1.044,3.139-1.559s2.058-1.094,3.083-1.635c2.052-1.081,4.042-2.273,6.044-3.44a169.059,169.059,0,0,0,22.186-15.909,201.323,201.323,0,0,0,34.491-38.44,269.629,269.629,0,0,0,22.917-40.344c3.035-6.535,5.688-12.911,8.09-19.029s4.5-11.978,6.352-17.543c3.691-11.106,6.412-20.971,8.47-29.116,2.027-8.169,3.477-14.632,4.386-19.054.449-2.2.793-3.907,1.026-5.049.215-1.143.337-1.744.337-1.744s-.1.6-.271,1.757c-.2,1.155-.478,2.863-.841,5.086-.756,4.446-1.9,10.97-3.735,19.2s-4.269,18.194-7.672,29.459a324.478,324.478,0,0,1-13.63,37.138c-2.918,6.646-6.186,13.476-9.9,20.393s-7.9,13.882-12.567,20.823a197.943,197.943,0,0,1-34.692,39.606,174.347,174.347,0,0,1-22.629,16.535,161.493,161.493,0,0,1-25.8,12.752,183,183,0,0,1-57.39,11.892c-19.65.921-39.55-.713-58.353-5.725a150.405,150.405,0,0,1-51.043-24.619,166.838,166.838,0,0,1-36.56-37.973,223.9,223.9,0,0,1-22.716-41.118,294.48,294.48,0,0,1-13.065-37.346c-3.158-11.327-5.374-21.34-6.984-29.608-1.653-8.28-2.6-14.839-3.268-19.3-.32-2.236-.559-3.944-.707-5.1S244.158,361.051,244.158,361.051Z" transform="translate(-244.158 -348.951)" fill="#3a9dd7"/>
          </g>
          <g id="Group_2782" data-name="Group 2782" transform="translate(93.145 0)">
            <path id="Path_6293" data-name="Path 6293" d="M617.608,368.3c-.462,6.363-1.284,12.7-2.249,19q-1.51,9.471-3.562,18.832t-4.637,18.612c-1.726,6.167-3.624,12.285-5.737,18.341a271.049,271.049,0,0,1-15.209,35.368,213.214,213.214,0,0,1-20.872,32.531A170.951,170.951,0,0,1,552.535,525.6a161.068,161.068,0,0,1-14.472,13.059,151.186,151.186,0,0,1-16.05,11.192q-4.193,2.525-8.55,4.791-4.368,2.231-8.876,4.177a153.951,153.951,0,0,1-18.5,6.561c-3.145.884-6.333,1.682-9.533,2.383-3.2.675-6.418,1.3-9.662,1.782a176.149,176.149,0,0,1-19.521,1.9c-6.535.258-13.071.172-19.582-.2h.265c-1.578.061-2.979.037-4.441-.012-1.443-.049-2.881-.135-4.324-.258-2.869-.221-5.719-.566-8.55-1a138.2,138.2,0,0,1-32.936-9.459,139.239,139.239,0,0,1-15.3-7.7A145.927,145.927,0,0,1,335.3,532.337a157.174,157.174,0,0,1-11.64-12.4c-3.618-4.336-7.021-8.857-10.221-13.513s-6.1-9.484-8.876-14.373l-2.015-3.71c-.675-1.241-1.271-2.506-1.917-3.759-1.3-2.494-2.438-5.062-3.624-7.593-2.285-5.135-4.465-10.307-6.364-15.577-1.966-5.246-3.667-10.589-5.27-15.946-.793-2.678-1.493-5.381-2.249-8.071-.663-2.715-1.358-5.418-2-8.133-.59-2.727-1.234-5.455-1.788-8.181-.516-2.752-1.105-5.468-1.572-8.22s-.983-5.491-1.388-8.255-.86-5.5-1.192-8.267-.675-5.528-.977-8.305l-.823-8.305L274.545,388c.406,2.752.879,5.491,1.321,8.243s.97,5.48,1.443,8.22c.5,2.727,1.1,5.442,1.641,8.182.547,2.715,1.2,5.417,1.812,8.12.626,2.715,1.351,5.393,2.026,8.083.713,2.691,1.481,5.357,2.224,8.035.836,2.653,1.609,5.32,2.476,7.961l1.326,3.943.664,1.966.7,1.965,1.432,3.9c.472,1.315,1,2.592,1.5,3.882,1.983,5.172,4.25,10.233,6.609,15.259,2.421,4.987,4.982,9.889,7.758,14.679,2.8,4.779,5.719,9.485,8.938,13.98,3.194,4.509,6.6,8.882,10.2,13.072a158.613,158.613,0,0,0,11.517,11.928,140.838,140.838,0,0,0,26.6,19.644,137.534,137.534,0,0,0,30.515,12.825,127.986,127.986,0,0,0,16.2,3.526c2.74.4,5.479.737,8.225.946q2.064.147,4.122.221c1.345.037,2.764.049,4.01,0h.265c6.364.344,12.752.406,19.115.147a175.779,175.779,0,0,0,19.005-1.793c3.133-.467,6.259-1.057,9.379-1.708,3.1-.675,6.185-1.425,9.245-2.272a148.5,148.5,0,0,0,17.936-6.3c2.917-1.252,5.786-2.6,8.618-4.029s5.6-2.948,8.329-4.557a145.957,145.957,0,0,0,15.682-10.712,157.44,157.44,0,0,0,14.213-12.592A185.757,185.757,0,0,0,562.3,508.626a210.463,210.463,0,0,0,21.013-31.695,268.786,268.786,0,0,0,15.793-34.669q3.372-8.919,6.228-18.046,2.828-9.1,5.16-18.378c1.548-6.192,2.924-12.4,4.115-18.661S616.9,374.635,617.608,368.3Z" transform="translate(-273.39 -368.296)" fill="#8a6aad"/>
          </g>
        </g>
      </g>
    </g>
    <g id="Group_2787" data-name="Group 2787" transform="translate(203.744 7487)">
      <g id="Group_2786" data-name="Group 2786">
        <path id="Path_6294" data-name="Path 6294" d="M574.369,310.84c3.365-6.115,10.895-6.481,16.95-5.2a19.716,19.716,0,0,1-.279-4.993c.316-5.036,3.571-9.091,7.068-12.47,7.631-7.368,19.486-10.4,29.347-6.261-.154-4.538.161-8.372,3.306-12.2,3.665-4.435,10.5-6.979,15.974-8.21,5.821-1.3,12.419.6,17.566,3.292a18.669,18.669,0,0,1,4.157,3c1.261-5.44,3.372-9.406,8.7-11.92,6.312-2.977,13.856-2.611,20.461-1.012,11.158,2.639,20.557,11,22.837,22.33,1.349-1.509,2.969-2.858,4.23-4.046,5.286-4.875,12.609-5.924,19.559-6.349,13.681-.807,23.423,5.631,29.787,16.972,5.257-4.9,13.922-6.371,20.66-5.081,1.628.293,3.218.616,4.772,1.034,8.079,4.333,15.813,9.318,17.295,19.332,1.378,9.494-1.533,17.962-8.057,24.135a22.654,22.654,0,0,1-14.765,3.709h-.045a16.386,16.386,0,0,1-.329,3.446c-1.21,5.747-7.353,9.5-12.214,11.818-9.992,4.707-27.294,6.407-35.908-2.207-.1.2-.118.367-.2.506a23.373,23.373,0,0,1-6.693,8.446c-5.549,4.721-13.629,7.081-20.556,8.826-12.867,3.241-28.864-4.149-33.013-16.869-1.055,3.7-4.648,6.943-7.69,8.754a23.956,23.956,0,0,1-17.662,2.661c-7.7-1.613-15.783-7.559-17.682-15.1-3.93,7.6-16.246,7.155-23.328,4.1-4.142-1.767-8.819-5.492-10.835-9.949-2.346,2.816-8.732,3.871-11.393,3.945a25.766,25.766,0,0,1-18.5-6.95C573.233,323.794,571.188,316.609,574.369,310.84Z" transform="translate(-572.833 -253.647)" fill="#26bae2"/>
        <path id="Path_6295" data-name="Path 6295" d="M579.765,327.789c4.113,3.394,10.059,4.318,15.212,4.194a14.431,14.431,0,0,0,6.2-1.694c1.54-.792,2.368-2.214,3.842-2.852a8.756,8.756,0,0,1,.88-4.67,18.118,18.118,0,0,0,2.17,5.352c.835,5.088,4.86,8.622,10.424,11.011a20.291,20.291,0,0,0,11.159,1.232c4.78-.586,6.928-2.793,10.2-5.5a13.466,13.466,0,0,1,.7-5.484,16.377,16.377,0,0,0,1.085,5.748,13.89,13.89,0,0,0,2.294,3.93,15.46,15.46,0,0,0,2.361,3.592c3.189,3.709,8.035,5.835,12.7,6.84,8.292,1.781,20.674-2.882,23.511-11.635a12.155,12.155,0,0,1-2.529-1.122c-1.613-.931-3.622-2.456-4.054-4.391a19.621,19.621,0,0,0,3.9,2.522c.374.2.792.411,1.209.608a11.405,11.405,0,0,0,3.329,1.613c.865.359,1.774.726,2.669,1.048a7.419,7.419,0,0,1-2.882.088c2.551,5.206,4.831,9.362,10.11,12.567,6.158,3.724,13.871,4.237,20.821,2.954a57.55,57.55,0,0,0,15.717-5.858,27.482,27.482,0,0,0,7.493-6.026,12.4,12.4,0,0,0,3.087-6.994,23.384,23.384,0,0,0,3.533,3.416c5.807,4.627,13.761,6.188,21.04,5.792,6.6-.337,13.38-2.259,18.028-7.023a12.78,12.78,0,0,0,3.358-3.343,19.478,19.478,0,0,0,3.2-13.952A17.556,17.556,0,0,1,792,324.739a53.762,53.762,0,0,1,6.913-1.136c3.9-.593,6.774-3.159,9.428-5.9,5.242-5.506,8.248-17.4,2.991-23.995a70.889,70.889,0,0,0-6.759-7.081c-3.394-3.2-6.951-4.252-11.452-5.029-6.444-1.188-15.388.351-19.955,5.659a.972.972,0,0,1-.946.279,28.647,28.647,0,0,0-11.048-13.688c-4.633-3.416-10.733-4.318-16.363-4.362a43.339,43.339,0,0,0-15.03,2.5A27.69,27.69,0,0,0,722.2,276.8a16.063,16.063,0,0,0-5.822,8.225l-.007-.029c-1.071-2.706.125-5.205,1.98-7.361-2.852-10.791-11.562-18.4-22.354-20.82a30.962,30.962,0,0,0-16.194.784c-6.518,2.111-8.2,6.445-9.941,12.42a1.7,1.7,0,0,1-.58.835,28.6,28.6,0,0,1,2.559,4.347.056.056,0,0,0-.036-.015,20.551,20.551,0,0,0-9.6-7.052,23.544,23.544,0,0,0-14.751-3.02c-4.853.557-9.611,3.167-13.555,5.916-4.553,3.175-5.4,7.588-5.4,12.742-.638-.286-1.283-.55-1.826-.756a18.749,18.749,0,0,0-13.276-.381,27.723,27.723,0,0,0-3.8,1.745c-5.667,1.642-10.865,5-13.974,9.414a2.854,2.854,0,0,0-1.063,1.187,25.184,25.184,0,0,0-2.852,15.176,8.252,8.252,0,0,1-1.7-3.035c-4.736,0-9.216.337-13.005,3.592C571.305,315.612,574.985,323.83,579.765,327.789Z" transform="translate(-571.103 -253.647)" fill="url(#linear-gradient)"/>
        <path id="Path_6296" data-name="Path 6296" d="M577,310.715c3.789-3.255,8.269-3.592,13.005-3.592a8.252,8.252,0,0,0,1.7,3.035,25.184,25.184,0,0,1,2.852-15.176,2.854,2.854,0,0,1,1.063-1.187c3.109-4.414,8.307-7.772,13.974-9.414a27.723,27.723,0,0,1,3.8-1.745,18.749,18.749,0,0,1,13.276.381c.543.206,1.188.47,1.826.756v-.205c.2.241.4.52.579.777-15.366.139-31.575,20.578-21.092,36.12,5.821,8.637,18.05,10.469,27.1,6.657a16.668,16.668,0,0,0,5.146-3.841,22.258,22.258,0,0,0,12.309,11.656c12.507,4.97,19.677-1.788,21.128-10.967a34.316,34.316,0,0,0,19.78,9.061c4.472.352,11.2.286,14.384-3.673a26.077,26.077,0,0,0,7.046,1.445c12.44.747,20.014-5.572,23.357-14.37,7.133,7.742,18.247,12.536,28.181,11.847,8.056-.586,18.746-2.756,21.158-11.92a19.118,19.118,0,0,0,.66-5.887c5.843,1.87,11.942,1.378,16.362-3.879,4.6-5.483,5.264-11.524,3.183-16.817a47.859,47.859,0,0,1,3.555,3.929c5.257,6.6,2.251,18.489-2.991,23.995-2.654,2.743-5.528,5.309-9.428,5.9A53.762,53.762,0,0,0,792,324.739a17.556,17.556,0,0,0-1.482-4.985,19.478,19.478,0,0,1-3.2,13.952,12.78,12.78,0,0,1-3.358,3.343c-4.648,4.764-11.429,6.686-18.028,7.023-7.279.4-15.233-1.165-21.04-5.792a23.384,23.384,0,0,1-3.533-3.416,12.4,12.4,0,0,1-3.087,6.994,27.482,27.482,0,0,1-7.493,6.026,57.55,57.55,0,0,1-15.717,5.858c-6.95,1.283-14.663.77-20.821-2.954-5.279-3.2-7.559-7.361-10.11-12.567a7.419,7.419,0,0,0,2.882-.088c-.9-.322-1.8-.689-2.669-1.048a11.405,11.405,0,0,1-3.329-1.613c-.417-.2-.835-.4-1.209-.608a19.621,19.621,0,0,1-3.9-2.522c.432,1.935,2.441,3.46,4.054,4.391a12.155,12.155,0,0,0,2.529,1.122c-2.837,8.753-15.219,13.416-23.511,11.635-4.663-1.005-9.509-3.131-12.7-6.84a15.46,15.46,0,0,1-2.361-3.592,13.89,13.89,0,0,1-2.294-3.93,16.377,16.377,0,0,1-1.085-5.748,13.466,13.466,0,0,0-.7,5.484c-3.269,2.7-5.417,4.912-10.2,5.5a20.291,20.291,0,0,1-11.159-1.232c-5.564-2.389-9.589-5.923-10.424-11.011a18.118,18.118,0,0,1-2.17-5.352,8.756,8.756,0,0,0-.88,4.67c-1.474.638-2.3,2.06-3.842,2.852a14.431,14.431,0,0,1-6.2,1.694c-5.153.124-11.1-.8-15.212-4.194C574.985,323.83,571.305,315.612,577,310.715Zm5.131,5.483a15.039,15.039,0,0,0,8.577,9.444c4.546,1.671,11.848-.133,10.462-6.364-1.59-7.258-8.768-8.886-15.124-9.472a1.11,1.11,0,0,0-1.29.667C582.522,311.191,581.239,313.149,582.133,316.2Z" transform="translate(-571.103 -253.647)" fill="#c1d3dd" opacity="0.5"/>
      </g>
      <path id="Path_6297" data-name="Path 6297" d="M585.582,289.66c.322-5.887,7.228-6.775,11.736-5.807,4.538,1,9.582,4.223,11.738,8.607a7.092,7.092,0,0,1,1,5.909c-1.034,6.767-10.146,6.393-14.89,3.607-.351-.2-.66-.432-1-.66C589.416,299.212,585.244,295.187,585.582,289.66Z" transform="translate(-378.808 -253.647)" fill="#fff"/>
      <path id="Path_6298" data-name="Path 6298" d="M623.254,281.162c1.437-6.81,10.213-6.48,15.564-5.483,6.452,1.21,16.386,7.558,15.748,15.1-.389,4.392-3.086,6.225-6.423,6.635-2.946,1.378-7.478,1.158-10.41.234C630.959,295.547,621.436,289.674,623.254,281.162Z" transform="translate(-460.534 -253.647)" fill="#fff"/>
      <path id="Path_6299" data-name="Path 6299" d="M685.445,263.846a6.2,6.2,0,0,1,1.056-.388c3.087-1.3,6.921-.719,9.839.528a15.606,15.606,0,0,1,2.133,1.194,13.87,13.87,0,0,1,4.758,3.938c1.187,1.612,2.91,4.728,2.214,6.957a8.469,8.469,0,0,1,0,3.614c-.645,2.845-4.039,3.27-6.364,2.962a19.179,19.179,0,0,1-7.265-2.808,19.939,19.939,0,0,1-6.54-4.156C681.933,272.5,680.306,266.06,685.445,263.846Z" transform="translate(-570.707 -253.647)" fill="#fff"/>
    </g>
  </g>
</svg>
