<svg xmlns="http://www.w3.org/2000/svg" width="250" height="187.66" viewBox="0 0 250 187.66">
  <g id="Group_1050" data-name="Group 1050" transform="translate(-615.193 -90)">
    <path id="Path_2985" data-name="Path 2985" d="M865.193,243.4c-48.315,3.353-98.073-12.17-140.295-43.7C686.955,171.371,661.618,132.374,651.054,90H615.193c.491,2.324.962,4.651,1.528,6.978,12.7,51.8,46.337,97.5,88.159,129.723,47.675,36.731,104.719,54.05,160.313,50.507Z" transform="translate(0 0)" fill="#f4df89"/>
    <path id="Path_2986" data-name="Path 2986" d="M838.344,210.686A195.4,195.4,0,0,1,726.9,177.194c-33.212-22.23-54.843-52.945-65.519-87.194H626.44c12.079,44.477,39.3,84.684,80.328,114.332,39.041,28.212,85.307,41.158,131.576,40.487Z" transform="translate(26.849 0)" fill="#ffc0c0"/>
    <path id="Path_2987" data-name="Path 2987" d="M814.348,183.663c-28.645-1.189-56.875-8.028-81.418-20.472C699.731,146.36,682.043,120.163,672.9,90H636.492c.068.264.118.528.186.793,10.466,41.185,38.665,78.336,75.291,99.55,29.872,17.3,65.834,26.353,102.378,27.494Z" transform="translate(50.845 0)" fill="#b1e5e5"/>
    <path id="Path_2988" data-name="Path 2988" d="M789.748,157.5a202.886,202.886,0,0,1-67.189-25.594A95.8,95.8,0,0,1,684.531,90H646.8c10.182,30.292,31.894,54.029,58.667,71.152,23.714,15.168,53.6,26.376,84.284,30.82Z" transform="translate(75.445 0)" fill="#6eb7b3"/>
    <path id="Path_2989" data-name="Path 2989" d="M640.774,104.5c-10.924,0-10.924,16.936,0,16.936S651.7,104.5,640.774,104.5Z" transform="translate(41.51 34.615)" fill="#fff"/>
    <path id="Path_2990" data-name="Path 2990" d="M662.774,102.5c-10.924,0-10.924,16.936,0,16.936S673.7,102.5,662.774,102.5Z" transform="translate(94.028 29.84)" fill="#fff"/>
    <path id="Path_2991" data-name="Path 2991" d="M662.774,117.5c-10.924,0-10.924,16.936,0,16.936S673.7,117.5,662.774,117.5Z" transform="translate(94.028 65.648)" fill="#fff"/>
    <path id="Path_2992" data-name="Path 2992" d="M682.774,113.5c-10.924,0-10.924,16.936,0,16.936S693.7,113.5,682.774,113.5Z" transform="translate(141.773 56.099)" fill="#fff"/>
    <path id="Path_2993" data-name="Path 2993" d="M682.774,131.5c-10.924,0-10.924,16.936,0,16.936S693.7,131.5,682.774,131.5Z" transform="translate(141.773 99.069)" fill="#fff"/>
  </g>
</svg>
