<svg id="Group_3930" data-name="Group 3930" xmlns="http://www.w3.org/2000/svg" xmlns:xlink="http://www.w3.org/1999/xlink" width="502.449" height="363.275" viewBox="0 0 502.449 363.275">
  <defs>
    <linearGradient id="linear-gradient" y1="0.5" x2="1" y2="0.5" gradientUnits="objectBoundingBox">
      <stop offset="0.079" stop-color="#b0e355"/>
      <stop offset="0.211" stop-color="#ace052"/>
      <stop offset="0.321" stop-color="#a2d949"/>
      <stop offset="0.422" stop-color="#91ce3b"/>
      <stop offset="0.519" stop-color="#78be26"/>
      <stop offset="0.612" stop-color="#59a90c"/>
      <stop offset="0.651" stop-color="#4a9f00"/>
      <stop offset="1" stop-color="#346d0a"/>
    </linearGradient>
    <linearGradient id="linear-gradient-2" x1="0.4" y1="2.54" x2="0.53" y2="-0.003" xlink:href="#linear-gradient"/>
    <linearGradient id="linear-gradient-3" x1="0.099" y1="1.888" x2="0.777" y2="-0.345" xlink:href="#linear-gradient"/>
    <linearGradient id="linear-gradient-4" x1="0.088" y1="0.79" x2="0.9" y2="0.105" xlink:href="#linear-gradient"/>
    <linearGradient id="linear-gradient-6" x1="0.55" y1="0.727" x2="0.201" y2="0.061" xlink:href="#linear-gradient"/>
    <linearGradient id="linear-gradient-7" x1="1.275" y1="0.658" x2="-0.127" y2="0.275" xlink:href="#linear-gradient"/>
    <linearGradient id="linear-gradient-8" x1="0.348" y1="2.754" x2="0.555" y2="-0.272" xlink:href="#linear-gradient"/>
    <linearGradient id="linear-gradient-9" x1="0.469" y1="1.51" x2="0.509" y2="0.232" xlink:href="#linear-gradient"/>
    <linearGradient id="linear-gradient-10" x1="0.209" y1="0.757" x2="0.658" y2="0.046" xlink:href="#linear-gradient"/>
    <linearGradient id="linear-gradient-11" x1="-0.277" y1="0.725" x2="1.285" y2="0.331" xlink:href="#linear-gradient"/>
    <linearGradient id="linear-gradient-12" x1="0.246" y1="0.708" x2="0.885" y2="0.138" xlink:href="#linear-gradient"/>
    <linearGradient id="linear-gradient-13" x1="-0.179" y1="0.716" x2="0.931" y2="0.342" xlink:href="#linear-gradient"/>
    <linearGradient id="linear-gradient-14" x1="0.131" y1="0.815" x2="0.807" y2="0.05" xlink:href="#linear-gradient"/>
    <linearGradient id="linear-gradient-15" x1="0.284" y1="0.94" x2="0.675" y2="0.156" xlink:href="#linear-gradient"/>
    <linearGradient id="linear-gradient-16" x1="-0.12" y1="0.337" x2="0.998" y2="0.563" xlink:href="#linear-gradient"/>
    <linearGradient id="linear-gradient-18" x1="-0.131" y1="0.861" x2="0.864" y2="-0.052" xlink:href="#linear-gradient"/>
    <linearGradient id="linear-gradient-19" x1="0.72" y1="0.947" x2="0.351" y2="0.108" xlink:href="#linear-gradient"/>
    <linearGradient id="linear-gradient-20" x1="0.247" y1="-0.204" x2="0.786" y2="1.353" xlink:href="#linear-gradient"/>
    <linearGradient id="linear-gradient-22" x1="0.083" y1="0.806" x2="1.02" y2="-0.06" xlink:href="#linear-gradient"/>
    <linearGradient id="linear-gradient-23" x1="0.078" y1="1.286" x2="0.849" y2="-0.125" xlink:href="#linear-gradient"/>
    <linearGradient id="linear-gradient-24" x1="0.118" y1="-0.129" x2="0.987" y2="1.087" xlink:href="#linear-gradient"/>
    <linearGradient id="linear-gradient-25" x1="0" y1="0.5" x2="1" y2="0.5" xlink:href="#linear-gradient"/>
    <linearGradient id="linear-gradient-26" x1="-0.087" y1="0.744" x2="1.169" y2="0.086" xlink:href="#linear-gradient"/>
    <linearGradient id="linear-gradient-28" x1="0.657" y1="0.863" x2="-0.014" y2="0.05" xlink:href="#linear-gradient"/>
    <linearGradient id="linear-gradient-29" x1="1" y1="0.5" x2="0" y2="0.5" xlink:href="#linear-gradient"/>
  </defs>
  <g id="Group_3915" data-name="Group 3915" transform="translate(46.711)">
    <path id="Path_28361" data-name="Path 28361" d="M792.7,46.156h.013a3.481,3.481,0,0,1,3.471,3.5c-.006,2.288-4.977,228.962-358.913,285.263a3.488,3.488,0,1,1-1.1-6.89C784.332,272.649,789.212,51.851,789.219,49.634A3.484,3.484,0,0,1,792.7,46.156Z" transform="translate(-433.235 -46.156)" fill="url(#linear-gradient)"/>
  </g>
  <g id="Group_3916" data-name="Group 3916" transform="translate(215.951 16.889)">
    <path id="Path_28362" data-name="Path 28362" d="M622.395,83.468l1.59-.452a10.717,10.717,0,0,1,.342,2.133,18.088,18.088,0,0,1-1.842,9.165,27.4,27.4,0,0,1-10.5,11.369c-10.529,6.845-27.417,8.124-48.765,1.706-14.206-3.994-29.718-4.847-44.377-4.376a311.808,311.808,0,0,0-41.449,4.466c-12.487,2-23.333,4.117-31.056,5.927-7.73,1.79-12.338,3.212-12.629,3.283.388-.136,6.547-2.637,17.205-6.088,10.723-3.458,25.582-7.93,43.168-13.03,17.735-4.86,37.914-9.882,60.18-12.2a254.554,254.554,0,0,1,33.215-.659c4.783.155,10.328.33,16.727.543C609.908,85.259,615.8,85.317,622.395,83.468Z" transform="translate(-433.706 -83.016)" fill="url(#linear-gradient-2)"/>
    <path id="Path_28363" data-name="Path 28363" d="M505.992,97.085c5.578-.776,11.253-1.428,16.921-1.887,5.688-.465,11.246-.659,16.882-.769,5.617-.039,10.949.265,16.1.595,5.132.336,10.076.75,14.794.873,2.372.09,4.692.039,6.884-.058l1.706-.142.42-.039.174-.019.207-.032.827-.1c1.112-.149,2.178-.3,3.238-.446,8.473-1.37,15.519-4.343,19.629-7.64a19.312,19.312,0,0,0,3.361-3.186l1.59-.452a10.717,10.717,0,0,1,.342,2.133,22.731,22.731,0,0,1-3.632,3.322c-4.731,3.678-12.377,6.644-21.213,7.918-1.086.123-2.21.252-3.38.388l-.86.1-.22.019-.252.026-.427.032c-.562.026-1.131.058-1.732.09-2.424.091-4.8.052-7.226-.078-4.828-.246-9.747-.737-14.853-1.176-5.093-.42-10.367-.808-15.88-.847-5.526,0-11.033.116-16.649.5-5.591.362-11.22.924-16.753,1.622-5.532.717-10.987,1.558-16.255,2.463l-15.144,2.863c-2.268.5-4.388.969-6.967,1.532l-6.457,1.435c-3.69.821-7.8,1.745-11.33,2.534-3.258.763-6.256,1.467-8.7,2.036-4.188,1.041-6.812,1.693-7.426,1.842.594-.149,3.206-.821,7.381-1.887,2.443-.588,5.429-1.312,8.68-2.1,3.516-.821,7.581-1.771,11.291-2.631l6.45-1.493c2.572-.595,4.718-1.092,6.967-1.609,5.6-1.118,10.387-2.081,15.169-3.044C494.94,98.8,500.421,97.88,505.992,97.085Z" transform="translate(-418.447 -83.777)" fill="url(#linear-gradient-3)"/>
  </g>
  <g id="Group_3917" data-name="Group 3917" transform="translate(187.041 37.645)">
    <path id="Path_28364" data-name="Path 28364" d="M642.951,97.207l1.681-.427a11.576,11.576,0,0,1,.194,2.172,22.435,22.435,0,0,1-2.055,9.326,29.969,29.969,0,0,1-11.692,12.164,44.648,44.648,0,0,1-24.515,5.481c-9.844-.478-20.818-3.691-31.916-9.844-7.5-4.065-14.891-7.93-22.421-11.324-7.491-3.406-15.422-5.933-23.119-8.512A447.569,447.569,0,0,0,484.491,84.06a282.986,282.986,0,0,0-34.779-5.339c-8.79-.711-14.135-.672-14.458-.717.452.013,7.769-.653,20.224-.459a465,465,0,0,1,50.22,4.033c13.134,1.79,23.21,3.167,31.76,4.33,2.779.4,5.494.795,8.325,1.2,2.708.4,6.237,1.021,9.023,1.577,4.615.982,10.1,2.146,17.16,3.645,11.259,2.391,22.35,4.964,33.687,6.431C617.047,100.277,628.913,101.039,642.951,97.207Z" transform="translate(-435.254 -77.51)" fill="url(#linear-gradient-4)"/>
    <path id="Path_28365" data-name="Path 28365" d="M516.3,92.605c6.011,1.351,12.009,2.514,18.388,4.266,6.121,1.674,11.951,3.548,17.645,5.293,5.694,1.764,11.227,3.523,16.636,4.977a124.426,124.426,0,0,0,15.848,3.522,65.193,65.193,0,0,0,7.6.646,17.04,17.04,0,0,0,1.906-.019l.466-.026.194-.013.239-.019.924-.078c1.254-.1,2.456-.207,3.652-.31a45.46,45.46,0,0,0,21.71-8.557c1.525-1.312,2.734-2.456,3.658-3.374l1.681-.427a11.576,11.576,0,0,1,.194,2.172c-1.028.989-2.32,2.139-3.852,3.406a47.753,47.753,0,0,1-23.481,8.861q-1.852.136-3.833.278l-.976.071-.246.013-.284.019-.478.019-1.958-.078a56.446,56.446,0,0,1-8.027-.853,124.913,124.913,0,0,1-15.958-3.9c-5.364-1.59-10.832-3.393-16.436-5.261-5.616-1.829-11.35-3.755-17.373-5.494-6.25-1.79-12.157-3.031-18.116-4.44-6.774-1.5-12.306-2.721-17.645-3.9-5.539-1.105-10.832-2.165-16.746-3.348-2.572-.465-4.97-.9-7.814-1.415-2.417-.407-4.679-.782-7.323-1.222-4.705-.756-9.016-1.344-12.849-1.855-3.717-.42-7.129-.8-9.908-1.118l-8.48-.711,8.454.653c2.779.3,6.185.659,9.9,1.047,3.994.543,8.6,1.17,12.856,1.752,2.637.42,4.9.776,7.342,1.157,2.857.5,5.293.911,7.84,1.351,6.088,1.157,11.447,2.172,16.843,3.193C504.133,90.065,509.679,91.222,516.3,92.605Z" transform="translate(-417.467 -79.217)" fill="url(#linear-gradient)"/>
  </g>
  <g id="Group_3918" data-name="Group 3918" transform="translate(358.118 95.695)">
    <path id="Path_28366" data-name="Path 28366" d="M453.592,49.666l1.021-.982a20.547,20.547,0,0,1,1.467,1.506,33,33,0,0,1,8.1,17.225c1.305,8.6-1.629,19.862-8.551,39.749-4.667,13.418-4.253,28.426-2.837,42.561a154.853,154.853,0,0,0,9.191,39.588c4.543,11.647,10.322,21.019,15.3,27a88.036,88.036,0,0,0,8.881,9.139,83.784,83.784,0,0,1-13.308-12.08c-7.491-8.254-16.281-21.885-23.268-38.974a262.572,262.572,0,0,1-9.514-27.372c-2.721-9.249-5.591-20.068-6.586-31.366a99.829,99.829,0,0,1,2.469-34.721C438.965,69.418,444.7,58.094,453.592,49.666Z" transform="translate(-432.981 -48.684)" fill="url(#linear-gradient-6)"/>
    <path id="Path_28367" data-name="Path 28367" d="M438.913,149.517c-1.118-5.4-2.152-10.606-2.967-16.268a117.984,117.984,0,0,1-1.2-16.669,109.137,109.137,0,0,1,1.144-15.841c.685-5.035,1.79-9.811,2.837-14.252.6-2.443,1.144-4.654,1.577-6.418l.362-1.583.091-.388.032-.162.039-.194.155-.769c.233-1.034.452-2.017.679-3,1.745-7.834,3.342-14.226,4.162-18.692.349-1.564.575-2.889.717-3.943l1.021-.982a20.547,20.547,0,0,1,1.467,1.506c-.168,1.073-.42,2.34-.776,3.788-.969,4.628-2.727,11.1-4.627,18.97-.265.976-.511,1.984-.724,3.018l-.168.776-.045.2-.052.226-.1.381-.388,1.564c-.5,1.907-1.086,4.137-1.726,6.573-1.125,4.46-2.294,9.146-3.051,14.1a106.037,106.037,0,0,0-1.351,15.518,113.5,113.5,0,0,0,.937,16.384c.717,5.545,1.655,10.755,2.7,16.106,1.079,5.306,2.295,10.567,3.671,15.641s2.934,9.96,4.563,14.536c.866,2.288,1.655,4.518,2.54,6.631.911,2.113,1.726,4.169,2.644,6.088,1.771,3.878,3.619,7.316,5.3,10.335,1.816,2.941,3.283,5.539,4.757,7.536,2.437,3.555,4.169,5.61,4.556,6.076-.388-.465-2.133-2.5-4.583-6.024-1.486-1.978-2.979-4.557-4.821-7.491-1.694-3-3.574-6.412-5.384-10.29-.944-1.907-1.777-3.962-2.715-6.082-.911-2.107-1.726-4.337-2.618-6.625-1.687-4.576-3.3-9.482-4.75-14.562C441.363,160.136,440.077,154.855,438.913,149.517Z" transform="translate(-425.936 -50.357)" fill="url(#linear-gradient-7)"/>
  </g>
  <g id="Group_3919" data-name="Group 3919" transform="translate(172.576 129.899)">
    <path id="Path_28368" data-name="Path 28368" d="M622.532,63.234l1.512-.013a13.671,13.671,0,0,1-.052,2.1c-.271,3.678-2.126,12.06-11.11,18.414-8.8,6.509-24.716,9.941-46.652,5.61a159.206,159.206,0,0,0-43.912-1.823,207.626,207.626,0,0,0-20.935,3.193c-6.677,1.222-13.2,2.437-19.286,3.846-12.183,2.74-22.609,6.431-29.621,10.063a52.188,52.188,0,0,0-10.774,7.2c.168-.116,1.332-1.428,3.69-3.471a71.253,71.253,0,0,1,10.942-7.472c9.727-5.675,24.858-11.317,41.54-17.031,7.775-2.908,17.677-6.424,27.385-9.023a309.2,309.2,0,0,1,30.449-6.735C576.771,64.468,597.253,63.473,622.532,63.234Z" transform="translate(-441.702 -63.221)" fill="url(#linear-gradient-8)"/>
    <path id="Path_28369" data-name="Path 28369" d="M511.363,82.151c5.455-1.092,10.981-2,16.481-2.734s10.949-1.273,16.288-1.648,10.542-.614,15.583-.776c5.022-.194,9.889-.317,14.5-.64,2.32-.129,4.57-.446,6.689-.724l1.655-.271.407-.065.168-.032.2-.039.789-.181,3.1-.711a66.993,66.993,0,0,0,18.8-7.278c1.461-.9,2.637-1.706,3.542-2.366l1.512-.013a13.671,13.671,0,0,1-.052,2.1c-.976.685-2.191,1.461-3.619,2.3a69.944,69.944,0,0,1-19.926,7.316c-1.034.22-2.107.446-3.219.685l-.827.162-.213.032-.239.039-.414.058c-.543.078-1.092.162-1.674.246-2.346.284-4.641.524-7.026.608-4.731.252-9.585.258-14.594.349s-10.16.207-15.434.491-10.671.73-16.113,1.364S516.812,81.886,511.4,82.9s-10.735,2.223-15.945,3.574l-14.348,3.878c-2.2.588-4.24,1.138-6.741,1.81l-6.334,1.8c-4.052,1.176-7.756,2.391-11.02,3.522-3.245,1.15-6.056,2.23-8.344,3.193-3.994,1.706-6.424,2.908-6.967,3.206.543-.3,2.96-1.512,6.916-3.238,2.275-.982,5.074-2.088,8.318-3.264,3.251-1.157,6.928-2.4,10.987-3.619,2.295-.679,4.234-1.247,6.321-1.861,2.5-.7,4.57-1.28,6.741-1.887,5.313-1.506,9.831-2.779,14.342-4.052C500.563,84.536,505.921,83.256,511.363,82.151Z" transform="translate(-428.736 -64.674)" fill="url(#linear-gradient-9)"/>
  </g>
  <g id="Group_3920" data-name="Group 3920" transform="translate(307.494 150.562)">
    <path id="Path_28370" data-name="Path 28370" d="M467.234,45.319l.691-1.073a15.46,15.46,0,0,1,1.836.808,21.651,21.651,0,0,1,11.5,14.523c2.133,8.577-1.092,20.786-12.345,35.289a78.984,78.984,0,0,0-14.368,32.381c-2.126,11.64-1.674,22.919-1.015,32.911a222.16,222.16,0,0,0,3.393,24.657c1.183,6.114,2.1,9.779,2.146,10.012-.1-.317-1.939-5.216-4.583-13.67a307.548,307.548,0,0,1-8.874-35.012c-.679-3.665-1.312-7.278-1.842-11.369a113.182,113.182,0,0,1-.743-12.791A128.53,128.53,0,0,1,445.485,96.1C448.917,78.7,455.671,63.326,467.234,45.319Z" transform="translate(-443.032 -44.246)" fill="url(#linear-gradient-10)"/>
    <path id="Path_28371" data-name="Path 28371" d="M445.121,126a112.67,112.67,0,0,1,1.836-13.6,115.6,115.6,0,0,1,3.38-12.939c1.344-4.156,2.889-8.118,4.473-11.9,1.6-3.71,3.27-7.562,4.686-10.839.73-1.739,1.4-3.458,1.926-5.1l.388-1.286.1-.317.039-.129.045-.162.168-.627c.207-.853.414-1.674.614-2.482a52.9,52.9,0,0,0,1.571-16.042,33.184,33.184,0,0,0-.459-3.387l.691-1.073a15.46,15.46,0,0,1,1.836.808c.155.944.284,2.088.368,3.406a56.028,56.028,0,0,1-2.023,16.837c-.226.821-.452,1.668-.7,2.547l-.181.646-.052.168-.058.187-.1.317-.427,1.293c-.62,1.8-1.364,3.522-2.139,5.293-1.519,3.3-3.271,7.11-4.958,10.781-1.661,3.716-3.264,7.607-4.673,11.673a110.8,110.8,0,0,0-3.581,12.694,107.479,107.479,0,0,0-2.036,13.379,90.548,90.548,0,0,0-.258,13.457c.213,4.233.549,8.331.976,12.2.213,1.8.414,3.464.672,5.63.245,1.693.465,3.27.743,5.235.491,2.9,1.053,6.244,1.538,9.094.51,2.585.982,4.983,1.364,6.929.717,3.322,1.163,5.4,1.267,5.888-.1-.472-.569-2.54-1.318-5.856-.4-1.945-.892-4.33-1.428-6.909-.511-2.85-1.105-6.153-1.635-9.081-.3-1.939-.543-3.522-.808-5.235-.284-2.146-.51-3.852-.75-5.636-.472-3.884-.866-8-1.15-12.248A93.111,93.111,0,0,1,445.121,126Z" transform="translate(-439.682 -46.121)" fill="url(#linear-gradient-11)"/>
  </g>
  <g id="Group_3921" data-name="Group 3921" transform="translate(112.429 113.537)">
    <path id="Path_28372" data-name="Path 28372" d="M629.962,134.438c.562-.129,1.137-.265,1.719-.4a9.13,9.13,0,0,1,.136,2.191,16.185,16.185,0,0,1-.711,4.065,10.882,10.882,0,0,1-3.167,5.4,21.147,21.147,0,0,1-7.2,5.248,32.866,32.866,0,0,1-5.164,1.836,45.284,45.284,0,0,1-5.681.666c-7.911.259-16.533-2.45-23.985-7.808-7.53-5.352-14.174-13.282-20.139-23.423a138.325,138.325,0,0,0-13.237-19.054,151.345,151.345,0,0,0-16.953-15.609c-11.977-9.5-25.22-17.1-37.907-21.594C485,61.4,473.13,60.085,464.793,60.627a81.253,81.253,0,0,0-13.5,2.088,75.223,75.223,0,0,1,18.866-3.852c11.977-1.125,29.524,1.209,48.216,8.383A212.6,212.6,0,0,1,546.831,80.7c4.783,2.7,9.353,5.371,14.342,8.648A173.6,173.6,0,0,1,575.1,100.318c8.486,7.245,16.417,14.756,24.489,21.833a86.828,86.828,0,0,0,12.765,9.579A21.688,21.688,0,0,0,629.962,134.438Z" transform="translate(-451.291 -58.594)" fill="url(#linear-gradient-12)"/>
    <path id="Path_28373" data-name="Path 28373" d="M525.373,85.028c4.977,3.219,9.8,6.651,14.575,10.231a142.123,142.123,0,0,1,13.127,12.216c3.426,3.613,7.291,7.691,11.3,11.912,3.639,3.8,7.142,7.543,10.852,10.7a49.716,49.716,0,0,0,5.649,4.376l1.493.989.381.22.162.09.194.1.782.4c1.054.536,2.068,1.054,3.076,1.564,8.137,4.04,17.438,3.768,22.492.588a20.779,20.779,0,0,0,3.936-3.128c.562-.129,1.137-.265,1.719-.4a9.13,9.13,0,0,1,.136,2.191,31.748,31.748,0,0,1-4.337,3.413c-1.842.692-3.522,1.319-5.306,1.984a51.139,51.139,0,0,1-6.386.666,51.32,51.32,0,0,1-6.748-1.06,42.963,42.963,0,0,1-6.638-2.514c-1.041-.543-2.12-1.112-3.238-1.693l-.814-.427-.207-.123-.22-.142-.368-.265c-.5-.336-1-.679-1.519-1.034a47.1,47.1,0,0,1-5.875-4.77c-3.755-3.354-7.174-7.174-10.742-11.039-3.872-4.233-7.633-8.351-10.981-12.015A130,130,0,0,0,539.133,95.88c-4.647-3.594-9.372-7.051-14.258-10.3-4.867-3.251-9.889-6.256-14.846-9-5.015-2.669-9.966-5.125-14.84-7.129-2.443-.989-4.776-2-7.148-2.766-2.34-.808-4.583-1.642-6.825-2.21a113.321,113.321,0,0,0-12.2-2.863,93.185,93.185,0,0,0-9.553-1.079,67.647,67.647,0,0,0-8.176-.1,68.968,68.968,0,0,1,8.15.052,92.824,92.824,0,0,1,9.553,1,113.5,113.5,0,0,1,12.229,2.766c2.243.549,4.5,1.351,6.864,2.146,2.379.743,4.744,1.739,7.2,2.715,4.912,1.958,9.915,4.376,15,7.019C515.323,78.836,520.416,81.809,525.373,85.028Z" transform="translate(-434.719 -59.442)" fill="url(#linear-gradient-13)"/>
  </g>
  <g id="Group_3922" data-name="Group 3922" transform="translate(229.925 200.556)">
    <path id="Path_28374" data-name="Path 28374" d="M496.919,39.281l.944-.776a19.47,19.47,0,0,1,1.551,1.254c2.63,2.327,7.627,7.717,8.034,15.473C508,63.014,503.5,73.1,490.869,85.784c-16.662,17.134-23.727,40.053-29.285,58.208-2.863,10.186-8.829,31.431-9.042,32.207.052-.381.911-6.36,1.958-13.6,1.383-11.446,3.005-24.806,4.078-33.635,1.732-13.625,3.839-29.169,8.919-44.875C472.662,68.436,480.935,52.543,496.919,39.281Z" transform="translate(-452.542 -38.505)" fill="url(#linear-gradient-14)"/>
    <path id="Path_28375" data-name="Path 28375" d="M465.749,112.171c1.17-4.04,2.45-8.118,3.9-12.125s3.077-7.924,4.848-11.692,3.7-7.375,5.688-10.8c2.017-3.335,4.117-6.8,5.894-9.747.937-1.551,1.823-3.083,2.592-4.544l.562-1.15.142-.284.058-.123.065-.142L489.76,61c.343-.763.672-1.493,1-2.223A68.925,68.925,0,0,0,495.525,44.3a30.265,30.265,0,0,0,.42-3.186l.944-.776a19.47,19.47,0,0,1,1.551,1.254,29.93,29.93,0,0,1-.5,3.128,72.348,72.348,0,0,1-5.313,14.93c-.343.717-.7,1.467-1.08,2.249l-.271.575-.071.149-.084.162-.149.284-.6,1.144c-.879,1.584-1.823,3.109-2.812,4.673-1.881,2.947-4.052,6.353-6.146,9.637-2.036,3.348-4.027,6.877-5.856,10.561s-3.516,7.523-5.028,11.447-2.863,7.937-4.091,11.925c-1.183,4-2.288,7.976-3.258,11.847-.827,3.535-1.622,6.9-2.644,11.22-.368,1.661-.7,3.2-1.15,5.209-.343,1.577-.659,3.031-1.053,4.867-.582,2.7-1.26,5.83-1.836,8.5-.53,2.437-1.021,4.692-1.422,6.528l-1.28,5.558c.1-.446.53-2.411,1.222-5.552.381-1.842.847-4.1,1.351-6.534.549-2.676,1.183-5.778,1.739-8.519.368-1.816.672-3.283,1-4.886.414-2,.743-3.581,1.086-5.235.982-4.453,1.745-7.93,2.488-11.3C463.584,120.244,464.624,116.23,465.749,112.171Z" transform="translate(-451.569 -40.338)" fill="url(#linear-gradient-15)"/>
  </g>
  <g id="Group_3923" data-name="Group 3923" transform="translate(94.829 203.304)">
    <path id="Path_28376" data-name="Path 28376" d="M604.872,73.832l1.008.717a18.214,18.214,0,0,1-.847,1.816c-1.622,3.115-5.727,9.314-13.411,11.563-7.646,2.385-19.06.407-34.611-9.365A100.061,100.061,0,0,0,524.372,65.6a90.709,90.709,0,0,0-32.426.278,120.5,120.5,0,0,0-23.539,7.032c-5.655,2.366-8.932,4.111-9.146,4.182.291-.142,4.5-3.077,12.229-7.245a136.392,136.392,0,0,1,33.965-12.9A119.5,119.5,0,0,1,529.4,54a202.508,202.508,0,0,1,24.489,1.331C570.242,57.286,587.686,61.635,604.872,73.832Z" transform="translate(-459.261 -53.991)" fill="url(#linear-gradient-16)"/>
    <path id="Path_28377" data-name="Path 28377" d="M516.442,56.031a122.515,122.515,0,0,1,13.2,1.609c4.234.717,8.428,1.571,12.52,2.566s8.079,2.139,11.912,3.348l11.007,3.613c1.751.556,3.484,1.079,5.119,1.487l1.28.284.317.071.129.032.155.026.627.123,2.443.452A67.917,67.917,0,0,0,590.7,70.787c1.312-.09,2.4-.233,3.258-.375l1.008.717a18.214,18.214,0,0,1-.847,1.816c-.9.129-1.984.226-3.232.278a71.2,71.2,0,0,1-16.146-1.564l-2.5-.524L571.6,71l-.161-.032-.187-.045-.31-.084-1.286-.317c-1.784-.491-3.522-1.066-5.306-1.674-3.361-1.2-7.233-2.566-10.969-3.891-3.774-1.28-7.7-2.5-11.724-3.574s-8.156-2-12.332-2.8a112.77,112.77,0,0,0-13.017-1.816,103.812,103.812,0,0,0-13.134-.11,109.747,109.747,0,0,0-12.254,1.37c-1.79.343-3.438.659-5.6,1.066-1.667.407-3.212.776-5.151,1.241-3.283.866-6.224,1.8-8.816,2.656-2.566.918-4.8,1.687-6.593,2.424-3.1,1.3-5.048,2.107-5.5,2.3.439-.187,2.372-1.015,5.461-2.34,1.79-.756,4.007-1.545,6.56-2.495,2.585-.879,5.513-1.842,8.8-2.753,1.913-.485,3.464-.879,5.158-1.306,2.133-.44,3.826-.782,5.6-1.144a113.8,113.8,0,0,1,12.319-1.551A108.129,108.129,0,0,1,516.442,56.031Z" transform="translate(-448.344 -50.571)" fill="url(#linear-gradient)"/>
  </g>
  <g id="Group_3924" data-name="Group 3924" transform="translate(184.685 233.751)">
    <path id="Path_28378" data-name="Path 28378" d="M494.107,35.208l1-.575s.569.491,1.409,1.383c2.378,2.527,6.786,8.073,6.935,14.788.317,6.883-4.13,14.568-15.648,26.28-7.672,7.943-12.157,17.942-14.872,27.908a110.1,110.1,0,0,0-3.71,28.994c-.013,8.784-.071,16.236-.924,21.542a49.373,49.373,0,0,1-1.965,8.628,49.571,49.571,0,0,0,.659-12.274c-.239-7.581-3-17.341-4.5-31.159-1.163-13.062-1.861-28.212,1.945-44C468.208,61.113,477.011,44.981,494.107,35.208Z" transform="translate(-461.56 -34.633)" fill="url(#linear-gradient-18)"/>
    <path id="Path_28379" data-name="Path 28379" d="M463.63,103.567a107.16,107.16,0,0,1,2.062-11.905,84.445,84.445,0,0,1,3.542-11.479,81.315,81.315,0,0,1,4.944-10.438c1.8-3.257,3.768-6.276,5.61-9.094.989-1.577,1.881-2.993,2.579-4.111l.588-1.034.142-.252.058-.1.065-.129.271-.511c.356-.679.692-1.331,1.034-1.984a76.113,76.113,0,0,0,5.552-12.8,24.517,24.517,0,0,0,.7-2.857l1-.575s.569.491,1.409,1.383a24.474,24.474,0,0,1-.763,2.766,81.242,81.242,0,0,1-6.062,13.017c-.356.64-.724,1.306-1.112,1.991l-.278.511-.071.136-.084.142-.155.246-.614,1.015L481.262,61.7c-1.926,2.818-3.962,5.752-5.817,8.932A78.133,78.133,0,0,0,470.352,80.8a79.64,79.64,0,0,0-3.729,11.227,100.393,100.393,0,0,0-2.269,11.711c-.53,3.91-.86,7.788-1.066,11.543-.168,3.781-.31,7.349-.213,11.007.071,1.616.142,3.1.233,5.093.1,1.5.2,2.876.323,4.641.175,2.5.375,5.442.543,7.943.148,2.333.194,4.35.194,6,.026,2.9-.123,4.692-.142,5.1.019-.407.149-2.2.09-5.08-.02-1.655-.09-3.665-.265-6-.2-2.495-.433-5.39-.64-7.93-.142-1.732-.259-3.128-.388-4.641-.116-1.971-.207-3.5-.31-5.112-.149-3.684-.052-7.265.052-11.078C462.906,111.446,463.171,107.529,463.63,103.567Z" transform="translate(-458.23 -36.297)" fill="url(#linear-gradient-19)"/>
  </g>
  <g id="Group_3925" data-name="Group 3925" transform="translate(63.651 231.117)">
    <path id="Path_28380" data-name="Path 28380" d="M588.287,70.612l.93.633a15.852,15.852,0,0,1-.536,1.874c-1.021,3.219-4.376,9.863-11.427,12.216-6.987,2.547-17.257.2-29.453-10.257A79.064,79.064,0,0,0,521.825,60.71a76.307,76.307,0,0,0-26.6-4.233,45.721,45.721,0,0,0-20.159,5.19,46.311,46.311,0,0,0-7.051,4.705,44.67,44.67,0,0,1,9.443-7.782c6.431-4.292,17.7-7.937,30.358-8.8a154.916,154.916,0,0,1,39.135,2C560.553,54.324,573.027,59.8,588.287,70.612Z" transform="translate(-468.018 -49.37)" fill="url(#linear-gradient-20)"/>
    <path id="Path_28381" data-name="Path 28381" d="M516.57,52.87c3.516.569,7.038,1.28,10.516,2.133s6.884,1.874,10.186,3.044,6.5,2.475,9.579,3.833c3.038,1.364,6.2,2.786,8.88,3.994,1.428.588,2.844,1.183,4.195,1.6l1.054.3.265.084.1.026.136.032.517.129c.7.168,1.364.323,2.029.478a37.4,37.4,0,0,0,13.127.743,23.948,23.948,0,0,0,2.741-.633l.93.633a15.852,15.852,0,0,1-.536,1.874,25.288,25.288,0,0,1-2.792.543,39.788,39.788,0,0,1-13.844-1.144c-.672-.175-1.37-.362-2.094-.556l-.537-.142-.136-.039-.155-.045-.259-.084-1.066-.343c-1.48-.517-2.909-1.157-4.369-1.8-2.708-1.312-5.843-2.818-8.855-4.279-3.031-1.435-6.179-2.824-9.424-4.052a104.7,104.7,0,0,0-10.012-3.264c-3.419-.924-6.9-1.713-10.367-2.346-3.5-.646-7.039-1.105-10.477-1.448-3.464-.317-6.9-.485-10.186-.478-1.661.052-3.251.032-4.822.174-1.551.09-3.07.226-4.524.433a62.208,62.208,0,0,0-7.833,1.5,57.467,57.467,0,0,0-5.817,1.939c-2.734,1.125-4.35,1.971-4.705,2.165.355-.194,1.958-1.054,4.673-2.21a57.451,57.451,0,0,1,5.8-2.01,63.93,63.93,0,0,1,7.84-1.6c1.448-.226,2.973-.388,4.537-.5,1.577-.168,3.173-.174,4.847-.246,3.3-.058,6.767.058,10.264.317C509.454,51.9,513.022,52.3,516.57,52.87Z" transform="translate(-459.629 -47.393)" fill="url(#linear-gradient)"/>
  </g>
  <g id="Group_3926" data-name="Group 3926" transform="translate(87.603 265.677)">
    <path id="Path_28382" data-name="Path 28382" d="M544.043,39.146l.97.162s.233.7.607,1.816c.937,3.212,2.508,9.695.479,14.491-1.991,4.983-8.021,7.879-21.84,9.7-9.223,1.331-16.8,5.649-23,10.807-6.379,5.132-10.8,11.847-14.568,17.315-3.761,5.546-7.129,10.16-10.1,13a38.1,38.1,0,0,1-5.248,4.33,31.586,31.586,0,0,0,5.856-7.491c3.005-4.951,5.384-12.416,9.061-21.975,4.227-10.128,9.947-20.217,18.821-29.078C513.938,43.619,527.174,36.425,544.043,39.146Z" transform="translate(-471.345 -38.562)" fill="url(#linear-gradient-22)"/>
    <path id="Path_28383" data-name="Path 28383" d="M492.151,71.083a76.043,76.043,0,0,1,6.328-6.864,57.8,57.8,0,0,1,15.176-10.464c2.669-1.293,5.352-2.353,7.859-3.335,1.364-.575,2.585-1.092,3.549-1.5l.834-.42.207-.1.084-.045.1-.058.394-.213,1.538-.834a45.7,45.7,0,0,0,8.867-6.082,15.543,15.543,0,0,0,1.558-1.655l.97.162s.233.7.607,1.816a15.316,15.316,0,0,1-1.558,1.545,47.685,47.685,0,0,1-9.3,5.9l-1.59.795-.407.213-.1.052-.116.058-.213.09-.847.388c-1.073.414-2.34.9-3.742,1.441-2.572.924-5.274,1.894-7.969,3.1a59.521,59.521,0,0,0-7.943,4.272,57.219,57.219,0,0,0-7.316,5.63,73.068,73.068,0,0,0-6.431,6.625,79.862,79.862,0,0,0-5.572,7.31c-1.674,2.547-3.1,5.022-4.356,7.355-.562,1.053-1.079,2.01-1.81,3.374-.53.989-1.015,1.9-1.654,3.1-1.067,1.965-2.017,3.762-2.947,5.268-.886,1.551-1.726,2.824-2.443,3.865a37.837,37.837,0,0,1-2.327,3.1,38.011,38.011,0,0,0,2.281-3.122c.692-1.047,1.519-2.333,2.379-3.891.9-1.525,1.829-3.329,2.863-5.313.608-1.189,1.079-2.12,1.6-3.141l1.752-3.419c1.221-2.359,2.6-4.88,4.246-7.491A84.874,84.874,0,0,1,492.151,71.083Z" transform="translate(-465.942 -38.932)" fill="url(#linear-gradient-23)"/>
  </g>
  <g id="Group_3927" data-name="Group 3927" transform="translate(16.333 244.94)">
    <path id="Path_28384" data-name="Path 28384" d="M584.649,68.817l.989.459a15.622,15.622,0,0,1-.058,1.907,18.929,18.929,0,0,1-1.926,6.9,14.359,14.359,0,0,1-7.232,6.993c-7.019,3.542-18.944,1.312-28.975-10.141a69.335,69.335,0,0,0-21.51-16.352,65.856,65.856,0,0,0-23.164-6.172A53.945,53.945,0,0,0,484.4,54.12c-4.4,1.474-6.9,2.631-7.071,2.663a58.1,58.1,0,0,1,9.682-5.028c6.276-2.663,16.236-4.931,27.566-4.97a114.825,114.825,0,0,1,34.688,5A84.475,84.475,0,0,1,565.3,58.657C570.663,61.359,576.357,65.146,584.649,68.817Z" transform="translate(-477.333 -46.778)" fill="url(#linear-gradient-24)"/>
    <path id="Path_28385" data-name="Path 28385" d="M520.883,52.02a93.618,93.618,0,0,1,9.158,2.992,88.863,88.863,0,0,1,8.577,3.846c2.747,1.331,5.39,2.96,7.963,4.363,2.579,1.545,5.1,2.98,7.627,4.182a19.673,19.673,0,0,0,3.761,1.545l.969.246.239.071.1.019.123.026.472.1,1.874.388c4.944.743,9.32.259,12.009-.918A19.913,19.913,0,0,0,576.1,67.83l.989.459a15.622,15.622,0,0,1-.058,1.907,21.36,21.36,0,0,1-2.469,1c-3.051,1.189-7.814,1.6-13.036.633l-1.971-.452-.5-.116-.129-.032-.142-.032-.246-.078-1-.284a23.9,23.9,0,0,1-3.975-1.777,87.436,87.436,0,0,1-7.678-4.492c-2.553-1.474-5.151-3.212-7.853-4.6a83.474,83.474,0,0,0-8.415-4.059,88.171,88.171,0,0,0-8.99-3.186c-3.031-.911-6.211-1.59-9.242-2.2-3.109-.5-6.114-.963-9.042-1.157-1.338-.065-2.553-.129-4.272-.213a31.845,31.845,0,0,0-4.007.013,56.859,56.859,0,0,0-7,.53c-1.971.317-3.807.608-5.306.847-2.495.692-4.059,1.118-4.427,1.222.355-.1,1.913-.549,4.408-1.273,1.493-.259,3.322-.575,5.293-.911a55.675,55.675,0,0,1,7.013-.633,34.554,34.554,0,0,1,4.027-.078c1.693.058,2.967.1,4.3.142,2.954.142,5.985.562,9.139,1C514.574,50.553,517.806,51.18,520.883,52.02Z" transform="translate(-468.782 -45.791)" fill="url(#linear-gradient-25)"/>
  </g>
  <g id="Group_3928" data-name="Group 3928" transform="translate(0 272.12)">
    <path id="Path_28386" data-name="Path 28386" d="M573.393,46.378l.866.433s.032.737.09,1.913c.032,3.413-.174,9.921-3.38,13.967-3.193,4.124-9.811,5.229-23.378,2.6-9.068-1.706-17.393-.278-24.78,2.126a130.766,130.766,0,0,0-19.752,8.835c-5.752,3.07-10.8,5.584-14.5,7.355-3.07,1.37-6,2.669-6.173,2.753.149-.22,3.264-1.939,7.9-5.513,4.679-3.484,10.684-8.887,17.625-15.305,7.013-6.328,15.034-13.7,25.743-18.808C544.146,41.782,558.3,38.977,573.393,46.378Z" transform="translate(-482.39 -41.85)" fill="url(#linear-gradient-26)"/>
    <path id="Path_28387" data-name="Path 28387" d="M514.047,57.216a86.315,86.315,0,0,1,7.911-4,61.016,61.016,0,0,1,17.07-4.673c2.831-.381,5.649-.511,8.253-.7,1.428-.129,2.721-.252,3.729-.343l.892-.149.226-.026.091-.019.1-.019.427-.09c.569-.116,1.118-.233,1.661-.343a41.611,41.611,0,0,0,9.915-3.18,14.636,14.636,0,0,0,1.887-1.15l.866.433s.032.737.09,1.913a14.743,14.743,0,0,1-1.861,1.041A43.374,43.374,0,0,1,555.031,48.8q-.814.136-1.706.291l-.433.078-.11.019-.129.019-.226.019-.9.11c-1.118.065-2.437.149-3.9.233-2.663.1-5.468.155-8.305.446a60.48,60.48,0,0,0-8.6,1.415A59.786,59.786,0,0,0,522.3,54.14a79.724,79.724,0,0,0-7.937,3.749c-2.54,1.4-4.983,2.837-7.3,4.317-1.913,1.267-3.762,2.488-6.593,4.356-.937.633-1.8,1.215-3.025,2.042l-2.818,1.913c-1.829,1.163-3.458,2.378-4.97,3.264-1.441.9-2.779,1.745-3.872,2.437-1.913,1.086-3.115,1.764-3.393,1.926.271-.155,1.454-.853,3.354-1.971,1.086-.7,2.411-1.564,3.839-2.488,1.5-.911,3.109-2.152,4.919-3.354l2.786-1.965c1.183-.834,2.068-1.454,2.992-2.1,2.818-1.952,4.776-3.309,6.528-4.518Q510.26,59.43,514.047,57.216Z" transform="translate(-475.209 -37.997)" fill="url(#linear-gradient)"/>
  </g>
  <g id="Group_3929" data-name="Group 3929" transform="translate(399.183 24.838)">
    <path id="Path_28388" data-name="Path 28388" d="M428.783,65.618l.9-.944,1.59,1.377a68.1,68.1,0,0,1,5.209,5.287,31.854,31.854,0,0,1,5.636,7.853c3.2,6.237,3.652,16.514,4.75,37.145.789,13.818,6.528,27.372,13.935,39.206,7.349,11.75,16.837,22.466,26.926,29.4,9.857,7.11,18.75,12.287,24.748,16.617,6.075,4.214,9.417,7.245,9.669,7.388a132.466,132.466,0,0,0-14.549-8.622c-9.068-5.093-22.777-9.824-38.34-21.607-14.213-11.615-28.865-26.409-39.568-46.109-5.235-9.8-9.391-20.915-10.529-33C417.983,87.832,420.381,73.968,428.783,65.618Z" transform="translate(-418.879 -64.674)" fill="url(#linear-gradient-28)"/>
    <path id="Path_28389" data-name="Path 28389" d="M446.646,158.147a135.9,135.9,0,0,1-9.385-13.618,105.973,105.973,0,0,1-7.42-14.581,96.889,96.889,0,0,1-4.893-14.794,117.708,117.708,0,0,1-2.462-14.038c-.239-2.45-.459-4.66-.627-6.418l-.213-1.558-.045-.381-.026-.162-.026-.187-.052-.763-.213-2.967c-.491-3.846-.239-7.336-.472-10.374.349-2.992.1-5.649.452-7.711.194-1.467.278-2.721.317-3.723l.9-.944,1.59,1.377a32.388,32.388,0,0,1-.349,3.426c-.439,2.016-.22,4.686-.633,7.627.136,3.038-.136,6.483.271,10.335.045.957.091,1.939.136,2.967a5.983,5.983,0,0,0,.084.756l.026.194.026.22.039.375.175,1.538c.245,2.146.194,4.369.536,6.573a113.157,113.157,0,0,0,2.2,13.928,98.1,98.1,0,0,0,4.582,14.562,102.569,102.569,0,0,0,7.071,14.42,130.6,130.6,0,0,0,9.068,13.554,155.34,155.34,0,0,0,10.3,12.164A112.431,112.431,0,0,0,468.64,180.5c1.907,1.538,3.794,2.954,5.642,4.259,1.855,1.28,3.646,2.514,5.4,3.607,3.464,2.223,6.677,4.111,9.488,5.778,2.7,1.59,5.2,3.057,7.226,4.246,3.419,2.088,5.558,3.4,6.056,3.7-.485-.291-2.63-1.584-6.062-3.639-2.036-1.176-4.537-2.618-7.252-4.182-2.818-1.642-6.037-3.5-9.54-5.694-1.751-1.073-3.561-2.288-5.436-3.561s-3.788-2.7-5.714-4.221A114.414,114.414,0,0,1,457.2,170.3C453.574,166.524,450.032,162.452,446.646,158.147Z" transform="translate(-411.677 -65.929)" fill="url(#linear-gradient-29)"/>
  </g>
</svg>
