<svg xmlns="http://www.w3.org/2000/svg" width="2078.689" height="2199.827" viewBox="0 0 2078.689 2199.827">
  <g id="Group_5977" data-name="Group 5977" transform="translate(158.689 -399.038)">
    <path id="Path_1" data-name="Path 1" d="M2096.044,197.907c-58.075,115.03-121.114,229.151-206.8,329.862s-195.83,188.1-328,235.681c-49.45,17.8-103.034,29.985-156.067,24.394-62.584-6.6-118.077-36.95-174.9-61.009s-122.7-42.411-182.079-23.761c-36.389,11.427-65.594,35.372-97.961,53.962-85.486,49.1-197.833,59.748-293.187,27.785-49.726-16.666-94.1-43.818-143.006-62.27s-106.629-27.53-154.444-6.97c-36.493,15.692-61.465,45.947-89.338,71.981-66.587,62.194-157.07,104.115-252.908,117.171H2096.044Z" transform="translate(-176.045 201.131)" fill="#e8edf7"/>
    <path id="Path_76" data-name="Path 76" d="M17.356,904.734C75.431,789.7,138.47,675.582,224.158,574.872s195.83-188.1,328-235.681c49.45-17.8,103.034-29.985,156.067-24.394,62.584,6.6,118.077,36.95,174.9,61.009s122.7,42.411,182.079,23.761c36.389-11.427,65.594-35.372,97.961-53.962,85.486-49.1,197.833-59.748,293.187-27.785,49.726,16.666,94.1,43.818,143.006,62.27s106.63,27.53,154.444,6.97c36.493-15.692,61.465-45.947,89.339-71.981,66.587-62.194,157.07-104.114,252.908-117.171H17.356Z" transform="translate(-176.044 1694.131)" fill="#e8edf7"/>
    <rect id="Rectangle_25" data-name="Rectangle 25" width="1920" height="805" transform="translate(0 1088)" fill="#e8edf7"/>
  </g>
</svg>
