<?xml version="1.0" encoding="utf-8"?>
<!-- Generator: Adobe Illustrator 24.0.1, SVG Export Plug-In . SVG Version: 6.00 Build 0)  -->
<svg version="1.1" id="Layer_1" xmlns="http://www.w3.org/2000/svg" xmlns:xlink="http://www.w3.org/1999/xlink" x="0px" y="0px"
	 viewBox="0 0 1920 1414" style="enable-background:new 0 0 1920 1414;" xml:space="preserve">
<style type="text/css">
	.st0{fill-rule:evenodd;clip-rule:evenodd;fill:#E8EDF7;}
</style>
<g>
	<path class="st0" d="M4.97,1498.27c0-128.77,0-256.53,53.54-369.27c95.35-112.75,217.91-210.58,364.98-263.84
		c55.03-19.93,114.65-33.57,173.66-27.31c69.64,7.39,131.39,41.36,194.62,68.3c63.23,26.93,136.53,47.48,202.61,26.6
		c40.49-12.79,72.99-39.6,109-60.41c95.13-54.97,220.14-66.89,326.24-31.1c55.33,18.66,104.71,49.05,159.13,69.71
		c54.42,20.65,125.4,5.61,178.61-17.41c40.61-17.57,98.39-85.69,131.88-130.36c52.32-106.37,161.22-86.1-1894.27-56.18V1498.27z"/>
	<path class="st0" d="M1920,0c-57.92,115.43-120.8,229.94-206.27,331c-85.47,101.06-195.32,188.75-327.15,236.49
		c-49.32,17.86-102.77,30.09-155.66,24.48c-62.42-6.62-117.77-37.08-174.45-61.22c-56.68-24.14-122.38-42.56-181.61-23.84
		c-36.29,11.47-65.42,35.49-97.71,54.15c-85.26,49.27-197.32,59.95-292.43,27.88c-49.6-16.72-93.86-43.97-142.64-62.48
		c-48.78-18.51-106.35-27.62-154.05-6.99c-36.4,15.75-61.31,46.11-89.11,72.23C32.53,654.1,4.97,696.16,4.97,709.26H1920V0L1920,0z"
		/>
</g>
</svg>
