<svg id="Group_6100" data-name="Group 6100" xmlns="http://www.w3.org/2000/svg" width="30" height="30" viewBox="0 0 30 30">
  <path id="Path_34153" data-name="Path 34153" d="M0,0H30V30H0Z" fill="none"/>
  <path id="Path_34154" data-name="Path 34154" d="M15.5,25.75v3.125l-3.75-2.5L8,28.875V25.75H7.375A4.375,4.375,0,0,1,3,21.375V5.75A3.75,3.75,0,0,1,6.75,2h17.5A1.25,1.25,0,0,1,25.5,3.25V24.5a1.25,1.25,0,0,1-1.25,1.25Zm0-2.5H23V19.5H7.375a1.875,1.875,0,0,0,0,3.75H8v-2.5h7.5ZM23,17V4.5H6.75V17.044A4.412,4.412,0,0,1,7.375,17ZM8,5.75h2.5v2.5H8ZM8,9.5h2.5V12H8Zm0,3.75h2.5v2.5H8Z" transform="translate(0.75 0.5)" fill="#fff"/>
</svg>
