<svg id="Group_6101" data-name="Group 6101" xmlns="http://www.w3.org/2000/svg" width="30" height="30" viewBox="0 0 30 30">
  <path id="Path_34155" data-name="Path 34155" d="M0,0H30V30H0Z" fill="none"/>
  <path id="Path_34156" data-name="Path 34156" d="M5.5,13.125l2.5-2.5L14.875,17.5l4.375-4.375L23,16.875V5.5H5.5Zm0,3.536V23H9.375l3.733-3.731L8,14.161l-2.5,2.5ZM12.911,23H23V20.411l-3.75-3.75ZM4.25,3h20A1.25,1.25,0,0,1,25.5,4.25v20a1.25,1.25,0,0,1-1.25,1.25h-20A1.25,1.25,0,0,1,3,24.25v-20A1.25,1.25,0,0,1,4.25,3Zm14.375,8.75A1.875,1.875,0,1,1,20.5,9.875a1.875,1.875,0,0,1-1.875,1.875Z" transform="translate(0.75 0.75)" fill="#fff"/>
</svg>
