<svg id="Group_6098" data-name="Group 6098" xmlns="http://www.w3.org/2000/svg" width="30" height="30" viewBox="0 0 30 30">
  <path id="Path_34149" data-name="Path 34149" d="M0,0H30V30H0Z" fill="none"/>
  <path id="Path_34150" data-name="Path 34150" d="M3.637,4.945a8.125,8.125,0,0,1,11.05-.41A8.125,8.125,0,0,1,26.16,15.978l-9.706,9.737a2.5,2.5,0,0,1-3.4.127l-.138-.126-9.7-9.739A8.125,8.125,0,0,1,3.637,4.945ZM5.4,6.713a5.625,5.625,0,0,0-.182,7.763l.182.193,9.281,9.281,6.629-6.63L16.9,12.9l-1.325,1.325a3.75,3.75,0,0,1-5.305-5.3l2.628-2.629a5.626,5.626,0,0,0-7.3.236L5.4,6.713Zm10.608,3.535a1.25,1.25,0,0,1,1.767,0l5.3,5.3.885-.883A5.625,5.625,0,0,0,16.2,6.53l-.191.182L12.035,10.69a1.25,1.25,0,0,0-.1,1.659l.1.109a1.25,1.25,0,0,0,1.659.1l.109-.1Z" transform="translate(0.314 0.641)" fill="#fff"/>
</svg>
