<svg id="Group_6099" data-name="Group 6099" xmlns="http://www.w3.org/2000/svg" width="30" height="30" viewBox="0 0 30 30">
  <path id="Path_34151" data-name="Path 34151" d="M0,0H30V30H0Z" fill="none"/>
  <path id="Path_34152" data-name="Path 34152" d="M14.151,20.75A13.35,13.35,0,0,1,24.91,25.656l-2.3,1.089a11.084,11.084,0,0,0-8.456-3.495A11.084,11.084,0,0,0,5.7,26.745l-2.3-1.09A13.346,13.346,0,0,1,14.151,20.75Zm0-18.75A6.25,6.25,0,0,1,20.4,8.25V12a6.25,6.25,0,0,1-5.978,6.244l-.272.006A6.25,6.25,0,0,1,7.9,12V8.25A6.25,6.25,0,0,1,13.88,2.006Zm0,2.5a3.75,3.75,0,0,0-3.744,3.53l-.006.22V12a3.75,3.75,0,0,0,7.494.22L17.9,12V8.25a3.75,3.75,0,0,0-3.75-3.75Z" transform="translate(0.848 0.5)" fill="#fff"/>
</svg>
