<?xml version="1.0" encoding="utf-8"?>
<!-- Generator: Adobe Illustrator 24.0.1, SVG Export Plug-In . SVG Version: 6.00 Build 0)  -->
<svg version="1.1" id="Layer_1" xmlns="http://www.w3.org/2000/svg" xmlns:xlink="http://www.w3.org/1999/xlink" x="0px" y="0px"
	 viewBox="0 0 256 256" style="enable-background:new 0 0 256 256;" xml:space="preserve">
<style type="text/css">
	.st0{fill:none;stroke:#699E3C;stroke-width:2;stroke-linecap:round;stroke-miterlimit:10;}
	.st1{fill:none;stroke:#699E3C;stroke-linecap:round;stroke-miterlimit:10;}
	.st2{fill:none;stroke:#699E3C;stroke-miterlimit:10;}
</style>
<g>
	<path class="st0" d="M136.37,178.83c4.39-3.26,16.55-20.03,30.16-27.01c13.62-6.98,39.96-24.09,39.96-24.09l-24.42-3.83
		l-23.66,10.57"/>
	<path class="st0" d="M164.96,153.51c9.45,1.13,31.18,4.05,31.18,4.05l27.46,13.51c0,0-67.65-9.98-83.8,4.46"/>
	<path class="st0" d="M138.06,183.44c0,0,32.47-22.28,81.76-4.72"/>
	<path class="st0" d="M138.06,187.17c0,0,28.39-16.92,87.59-2.85"/>
	<line class="st0" x1="210.16" y1="169.46" x2="232.83" y2="191.21"/>
	<line class="st0" x1="123.59" y1="191.21" x2="140.42" y2="191.21"/>
	<line class="st0" x1="120.95" y1="188.62" x2="123.59" y2="191.21"/>
	<line class="st0" x1="31.02" y1="188.73" x2="120.95" y2="188.62"/>
	<line class="st0" x1="32.48" y1="188.73" x2="56.45" y2="165.66"/>
	<path class="st0" d="M51.45,154.18l-5.35,10.34c0,0,66.97,2.37,90.27,18.93"/>
	<path class="st0" d="M49.43,155.24l26.83-14.12c0,0,43.9-4.16,56.22,20.37c0,0,12.66-42.71,32.75-54.53
		c9.85-2.31,12.83-2.03,12.83-2.03s-9.94,14.45-20.22,30.4c-11.04,17.12-22.49,35.96-22.49,40.51c0,8.78,5.06,15.36,5.06,15.36
		h94.38"/>
	<path class="st0" d="M50.05,156.89c0,0,61.97,4.07,85.48,26.06"/>
	<path class="st0" d="M119.03,166.56"/>
	<path class="st0" d="M71.2,152.6"/>
	<path class="st0" d="M45.27,176.42c0,0,60.88-11,83.28,2.77"/>
	<g>
		<path class="st1" d="M121.11,75.16c0,4.63-3.75,8.38-8.38,8.38c-1.93,0-3.7-0.65-5.12-1.74c-1.98-1.53-3.26-3.93-3.26-6.63
			c0-4.63,3.75-8.38,8.38-8.38C117.36,66.79,121.11,70.54,121.11,75.16z"/>
		<path class="st1" d="M111.68,87.06c0,0,9.21,3.28,12-5.04c0.3-0.89,0.79-1.71,1.5-2.33c2.2-1.93,3.29,0.35,3.77,2.14
			c0.31,1.14,0.34,2.33,0.09,3.49c-0.77,3.57-4.12,10.92-16.57,9.16c-1.33,1.52-3.83,12.66-3.83,12.66l11.23,3.24l9.8,12.2
			c0.5,0.63,0.74,1.42,0.66,2.22c-0.14,1.39-0.73,3.32-2.99,3.26c-0.96-0.03-1.87-0.47-2.55-1.16c-3.78-3.8-10.07-9.68-10.07-9.68
			l-10.38-1.33l-12.37,9.42l-16.96-2.39c-0.92-0.13-1.7-0.76-2.03-1.63c-0.58-1.55-0.36-3.93,2.23-4.55
			c4.76,0.1,13.99,0.76,13.99,0.76l6.38-5.9c0,0-0.95-4,0.57-7.04c1.26-3.1,4.38-12.76,4.38-12.76s-4.19,0.67-5.52,4.57
			c0.24,4.38-2.19,4.19-2.19,4.19s-5.52,0.38-2.95-7.81s11.42-8.57,11.42-8.57h5.05l0.87-2.73"/>
		<line class="st2" x1="95.6" y1="111.62" x2="97.76" y2="113"/>
		<path class="st2" d="M100.27,92.46c0.99-1.4,3.26-0.83,3.26-0.83"/>
		<line class="st2" x1="112.43" y1="94.53" x2="113.33" y2="92.15"/>
		<line class="st2" x1="66.47" y1="87.78" x2="79.32" y2="88.01"/>
		<line class="st2" x1="60.47" y1="104.15" x2="71.47" y2="104.15"/>
	</g>
</g>
</svg>
