<?xml version="1.0" encoding="utf-8"?>
<!-- Generator: Adobe Illustrator 24.0.1, SVG Export Plug-In . SVG Version: 6.00 Build 0)  -->
<svg version="1.1" xmlns="http://www.w3.org/2000/svg" xmlns:xlink="http://www.w3.org/1999/xlink" x="0px" y="0px"
	 viewBox="0 0 256 256" style="enable-background:new 0 0 256 256;" xml:space="preserve">
<style type="text/css">
	.st0{fill:#699E3C;}
	.st1{fill:#FCFCFC;stroke:#699E3C;stroke-miterlimit:10;}
	.st2{fill:#FFFFFF;stroke:#699E3C;stroke-miterlimit:10;}
	.st3{fill:#F9F9F9;stroke:#699E3C;stroke-miterlimit:10;}
	.st4{fill:#FFFFFF;}
	.st5{fill:#FEFFFD;}
	.st6{fill:#FEFFFD;stroke:#FFFFFF;stroke-width:4;stroke-linecap:round;stroke-miterlimit:10;}
	.st7{fill:none;stroke:#FFFFFF;stroke-width:6;stroke-linecap:round;stroke-miterlimit:10;}
</style>
<g id="Layer_1">
</g>
<g id="Layer_2">
	<g>
		<path class="st0" d="M133.01,79.31c0,0,21.45-5.59,31.33,0c8.02,5.97,15.66,20.14,15.66,20.14l-5.78,10.44
			C174.23,109.89,161.17,85.28,133.01,79.31z"/>
		<path class="st0" d="M173.86,117.73c0,0-15.48-28.16-49.98-34.31c-27.04,9.95-36.92,44.76-36.92,44.76s51.84-6.9,85.78,4.29
			C171.99,125.14,173.86,117.73,173.86,117.73z"/>
		<path class="st0" d="M86.02,135.07c0,0,35.99-11.38,87.84,2.8c2.24,10.82,12.49,21.26,12.49,21.26s-15.29-6.9-51.66,11.38
			c-12.31-43.64-49.42-29.28-49.42-29.28L86.02,135.07z"/>
		<path class="st0" d="M135.81,175.35c0,0,33.57-19.39,50.54-10.82c-13.24,27.97-50.54,48.3-50.54,48.3s-14.92-4.85-14.92-5.97
			S135.81,175.35,135.81,175.35z"/>
		<path class="st0" d="M144.95,212.83c0,0,27.97-16.22,39.16-32.64c5.04,9.7,12.31,12.68,12.31,12.68S174.23,219.73,144.95,212.83z"
			/>
		<path class="st0" d="M174.93,83.41l8.81,11.98l5.87-4.2c0,0-10.49-8.81-14.69-8.39V83.41z"/>
		<path class="st0" d="M196.42,181.55c0,0,11.85-6.42,4.64-14.28c-1.63-1.78-4.18-2.37-6.41-1.45c-11.6,4.77-1.4,16.99-1.4,16.99
			s2.94,3.64,6.71,3.78c3.78,0.14,8.73-1.43,11.33-3.78c2.38-2.14,5.73-4.9,4.62-14.41s-2.52-14.97-2.52-14.97
			s17.48-11.75,8.39-29.93c-8.25-11.02-16.22-8.39-16.22-8.39l-2.52-13.43c0,0,14.97-15.53,13.15-34.41s-10.77-16.36-10.77-16.36
			s-15.8,5.31-7.41,41.4c-39.87,43.59-7.18,59.14-1.33,61.38c0.47,0.18,1.33,0.49,1.83,0.58c1.32,0.25,3.6,0.28,11.25,0.28
			c4.38,19.02,1.54,23.08,1.54,23.08S207.98,187.43,196.42,181.55z"/>
		<path class="st1" d="M207.36,61.59c-4.16,3.19-12.18,12.05-6.83,28.35c11.86-9.85,12.6-21.62,11.13-26.9
			C211.13,61.17,208.89,60.41,207.36,61.59z"/>
		<path class="st2" d="M200.43,105.79l1.96,9.79c0,0-11.84,6.15-10.91,18.74c2.61,9.7,10.91,11.84,10.91,11.84
			s-10.54-13.8,1.31-20.19c2.24,4.77,5.41,23.82,5.41,23.82s-12.4,4.57-20.05-6.81c-7.65-11.38-1.4-22.1-1.4-22.1
			S194.84,107.84,200.43,105.79z"/>
		<path class="st3" d="M207.8,125.14l5.22,24.01c0,0,8.02-6.25,4.76-16.69C214.42,124.07,207.8,125.14,207.8,125.14L207.8,125.14z"
			/>
		<path class="st0" d="M96.84,51.71c0,0,19.77-15.11,44.57-14.73c21.07,2.8,4.66,24.05,4.66,24.05l-8.95,6.91l-27.6,16.78
			l-3.73-6.53c0,0-1.68-6.71-8.95-14.55C97.95,58.24,96.84,51.71,96.84,51.71z"/>
		<path class="st0" d="M73.52,68.31c0,0,9.14,4.1,9.88,5.59c0.75,1.49,3.36,8.27,3.54,8.89c0.19,0.62,9.88,14.23,9.88,14.23
			s-16.97,22.38-16.22,44.2c-32.26-6.9-23.68-45.83-23.68-45.83S59.54,81.17,73.52,68.31z"/>
		<circle class="st4" cx="73.39" cy="89.94" r="7.41"/>
		<circle class="st4" cx="76.36" cy="115.95" r="7.41"/>
		<circle class="st4" cx="113.57" cy="61.83" r="7.41"/>
		<circle class="st4" cx="135.81" cy="50.8" r="7.41"/>
		<path class="st0" d="M67.51,34.41c0,0-4.62,36.5,18.74,36.09c-2.48,8.11,6.29,15.53,6.29,15.53l5.73,9.37c0,0,8.25-9.65,9.51-9.79
			c1.26-0.14-4.62-7.97-4.62-7.97s1.12-4.06-7.27-11.47c-0.74-0.65-1.54,0.14-1.54,0.14l0.28-2.1c0,0,2.66-11.19-3.22-16.36
			S81.36,47.98,67.51,34.41z"/>
		<circle class="st5" cx="91.5" cy="56.44" r="0.94"/>
		<path class="st6" d="M72.2,55.5c0,0,4.27,8.78,8.6,10.52"/>
		<path class="st0" d="M80.14,146.64c-5.46-3.59-25.08-14.2-46.52,2c-0.94,0.71-1.54,1.78-1.62,2.95
			c-4.19,61.31,26.15,64.65,26.15,64.65s35.45-5.63,23.82-66.89C81.75,148.24,81.08,147.26,80.14,146.64z"/>
		<path class="st7" d="M38.37,167.98c0,0,3.54-6.34,11-2.52"/>
		<path class="st7" d="M65.32,165.56c0,0,6.62-4.29,11.47,1.86"/>
		<path class="st4" d="M42.57,184.49c0,0,15.57,14.17,31.52-0.65c3.85-0.38,1.46,3.22,0.42,4.6c-0.28,0.37-0.53,0.76-0.76,1.17
			c-1.41,2.54-7.07,11.71-15.25,11.67c-10.07-0.56-17.41-13.68-17.41-13.68S39.02,183.65,42.57,184.49z"/>
		<path class="st0" d="M86.37,147.52c0,0,20.84-9.03,43.36,17.24c-4.2,46.82-35.25,55.91-35.25,55.91s-11.61,4.9-18.46-7.97
			c5.18-6.15,9.65-17.48,9.65-17.48s8.11,3.92,13.71,4.06c5.31,0.84,7.13,7.27,7.13,7.27s2.24,0.56,2.8-1.96
			c0.56-2.52-4.9-8.95-4.9-8.95s-3.73-2.08-7.18-2.58c-3.45-0.5-9.88-3.72-9.88-3.72l2.38-15.53c0,0,4.76,3.08,4.76-2.8
			c-1.6-4.39-5.59-6.26-5.59-6.26S88.33,150.88,86.37,147.52z"/>
		<path class="st7" d="M106.81,177.49c0,0,6.25-5.04,11.94,1.4"/>
	</g>
</g>
</svg>
