<?xml version="1.0" encoding="utf-8"?>
<!-- Generator: Adobe Illustrator 24.0.1, SVG Export Plug-In . SVG Version: 6.00 Build 0)  -->
<svg version="1.1" id="Layer_1" xmlns="http://www.w3.org/2000/svg" xmlns:xlink="http://www.w3.org/1999/xlink" x="0px" y="0px"
	 viewBox="0 0 256 256" style="enable-background:new 0 0 256 256;" xml:space="preserve">
<style type="text/css">
	.st0{fill:none;stroke:#699E3C;stroke-width:8;stroke-miterlimit:10;}
	.st1{fill:#FFFFFF;stroke:#699E3C;stroke-miterlimit:10;}
	.st2{fill:#FFFFFF;}
</style>
<g>
	<circle class="st0" cx="116" cy="120.25" r="70.21"/>
	<polygon class="st1" points="151.36,151.32 173.08,172.85 217.09,128.65 227.47,138.83 173.46,193.6 140.99,161.12 	"/>
	<path class="st1" d="M92.75,75.22h48.24l-5.57,8.07h-11.72c0,0,4.61,6.15,4.42,10.19c5.19,0.19,12.88,0,12.88,0l-5.57,8.26h-7.5
		c0,0,0.38,17.42-24.98,18.51c9.42,9.74,33.82,35.49,33.82,35.49h-15.44l-31.65-34.59v-7.88c0,0,24.6,2.69,27.67-11.34
		c-4.8-0.58-30.36-0.38-30.36-0.38l5.57-8.07l25.18,0.19c0,0-2.69-14.61-30.75-10.38C87.85,81.91,92.75,75.22,92.75,75.22z"/>
</g>
<polygon class="st2" points="171.41,156.42 163.13,162.28 171.81,170.88 178.75,160.04 "/>
<polygon class="st2" points="159.91,180.78 151.79,185.79 145.54,179.5 153.29,174.13 "/>
</svg>
