<?xml version="1.0" encoding="utf-8"?>
<!-- Generator: Adobe Illustrator 24.0.1, SVG Export Plug-In . SVG Version: 6.00 Build 0)  -->
<svg version="1.1" id="Layer_1" xmlns="http://www.w3.org/2000/svg" xmlns:xlink="http://www.w3.org/1999/xlink" x="0px" y="0px"
	 viewBox="0 0 256 256" style="enable-background:new 0 0 256 256;" xml:space="preserve">
<style type="text/css">
	.st0{fill:none;stroke:#699E3C;stroke-width:8;stroke-miterlimit:10;}
	.st1{fill:#699E3C;stroke:#699E3C;stroke-miterlimit:10;}
	.st2{fill:#FFFFFF;}
</style>
<g>
	<circle class="st0" cx="116" cy="120.3" r="70.2"/>
	<polygon class="st1" points="151.4,151.3 173.1,172.8 217.1,128.6 227.5,138.8 173.5,193.6 141,161.1 	"/>
	<path class="st1" d="M92.7,75.2H141l-5.6,8.1h-11.7c0,0,4.6,6.1,4.4,10.2c5.2,0.2,12.9,0,12.9,0l-5.6,8.3h-7.5
		c0,0,0.4,17.4-25,18.5c9.4,9.7,33.8,35.5,33.8,35.5h-15.4l-31.6-34.6v-7.9c0,0,24.6,2.7,27.7-11.3c-4.8-0.6-30.4-0.4-30.4-0.4
		l5.6-8.1l25.2,0.2c0,0-2.7-14.6-30.7-10.4C87.8,81.9,92.7,75.2,92.7,75.2z"/>
</g>
<polygon class="st2" points="171.4,156.4 163.1,162.3 171.8,170.9 178.8,160 "/>
<polygon class="st2" points="159.9,180.8 151.8,185.8 145.5,179.5 153.3,174.1 "/>
</svg>
