<?xml version="1.0" encoding="utf-8"?>
<!-- Generator: Adobe Illustrator 24.0.1, SVG Export Plug-In . SVG Version: 6.00 Build 0)  -->
<svg version="1.1" xmlns="http://www.w3.org/2000/svg" xmlns:xlink="http://www.w3.org/1999/xlink" x="0px" y="0px"
	 viewBox="0 0 256 256" style="enable-background:new 0 0 256 256;" xml:space="preserve">
<style type="text/css">
	.st0{fill:#699E3C;}
	.st1{fill:none;stroke:#699E3C;stroke-miterlimit:10;}
	.st2{fill:#FFFFFF;}
</style>
<g id="Layer_1">
</g>
<g id="Layer_2">
	<g>
		<path class="st0" d="M115.06,65.88V94.5c0,0,1.81,12.74,17.59,24.14c12.92,9.34,19.37,12.52,19.37,12.52s3.68,0.86,8.94-10.16
			c9.84-1.47,9.84,6.88,9.84,6.88s-0.6,8.35-10.43,14.61s-25.04-5.37-25.04-5.37l-7.45,15.2c0,0,27.42,13.71,10.73,28.91
			c-14.31,16.39-16.69,15.2-16.69,15.2s-11.03,5.07-11.03-9.24c5.96-7.15,12.52-16.39,12.52-16.39l-9.84-7.15l-12.22,22.95
			c0,0-3.87,8.05-29.21,15.8c-15.2,0-7.75-14.01-7.75-14.01l22.65-11.92c0,0,8.05-11.03,8.05-28.02s9.54-32.19,9.54-32.19
			s-1.5-9.07-3.28-14.01c-1.63-4.52,1.79-36.37,1.79-36.37S107.31,56.34,115.06,65.88z"/>
		<circle class="st0" cx="140.4" cy="98.97" r="16.1"/>
		<path class="st1" d="M144.57,58.13c0,8.15-6.61,14.75-14.75,14.75s-14.75-6.61-14.75-14.75c0-6.11,3.72-11.36,9.01-13.6
			c1.77-0.75,3.71-1.16,5.74-1.16C137.97,43.38,144.57,49.98,144.57,58.13z"/>
		<path class="st1" d="M123.04,44.64c0,0,5.96,16.69,21.54,13.49"/>
		<path class="st1" d="M115.06,58.71c0,0,17.53-2.64,22.07,12.6"/>
		<polygon class="st0" points="204.78,41.59 204.78,117.75 198.37,117.75 198.37,75.27 192.71,75.27 191.67,92.71 187.34,92.71 
			187.34,90.32 181.98,86.3 177.55,89.75 177.55,92.56 172.29,92.71 170.8,75.72 167.08,75.57 167.08,68.27 198.82,68.56 
			198.52,41.59 		"/>
		<polygon class="st2" points="175.12,75.72 181.98,81.75 189.21,75.72 		"/>
		<polygon class="st2" points="187.87,81.08 185.11,83.77 187.87,86.37 		"/>
		<polygon class="st2" points="175.87,81.75 175.87,86.37 179.22,83.73 175.87,81.38 		"/>
	</g>
</g>
</svg>
