<?xml version="1.0" encoding="utf-8"?>
<!-- Generator: Adobe Illustrator 24.0.1, SVG Export Plug-In . SVG Version: 6.00 Build 0)  -->
<svg version="1.1" xmlns="http://www.w3.org/2000/svg" xmlns:xlink="http://www.w3.org/1999/xlink" x="0px" y="0px"
	 viewBox="0 0 256 256" style="enable-background:new 0 0 256 256;" xml:space="preserve">
<style type="text/css">
	.st0{fill:#699E3C;stroke:#699E3C;stroke-width:3;stroke-linecap:round;stroke-miterlimit:10;}
	.st1{fill:#699E3C;stroke:#699E3C;stroke-miterlimit:10;}
</style>
<g id="Layer_1">
</g>
<g id="Layer_3">
</g>
<g id="Layer_2">
	<g>
		<g>
			<path class="st0" d="M81.33,91.95"/>
		</g>
		<g>
			<path class="st0" d="M52.47,91.85"/>
		</g>
		<g>
			<g>
				<path class="st1" d="M76.39,84.39c-0.82,0-1.62-0.39-2.11-1.12c-0.79-1.17-0.48-2.75,0.69-3.53c1.32-0.89,1.6-1.08-0.5-4.91
					c-2.22-4.05-5.57-10.16,0.72-17.62c0.91-1.08,2.51-1.21,3.59-0.3c1.08,0.91,1.21,2.51,0.3,3.59c-4.04,4.78-2.23,8.07-0.14,11.88
					c1.73,3.15,4.34,7.91-1.12,11.58C77.38,84.25,76.88,84.39,76.39,84.39z"/>
			</g>
			<g>
				<path class="st1" d="M94.81,84.22c-0.78,0-1.54-0.35-2.04-1.02c-3.09-4.14-1.62-8.64-0.44-12.25c1.51-4.62,2.51-7.68-2.54-11.08
					c-1.17-0.78-1.48-2.37-0.69-3.53c0.78-1.17,2.37-1.48,3.53-0.69c8.25,5.55,6.1,12.1,4.53,16.89c-1.14,3.47-1.76,5.69-0.32,7.62
					c0.84,1.13,0.61,2.72-0.52,3.56C95.87,84.05,95.34,84.22,94.81,84.22z"/>
			</g>
			<g>
				<path class="st1" d="M77.13,61.4c-0.72,0-1.43-0.3-1.94-0.89c-0.91-1.07-0.79-2.68,0.28-3.59c6.56-5.6,14.07-3.29,17.13-1.29
					c1.18,0.77,1.51,2.35,0.74,3.53c-0.77,1.18-2.35,1.51-3.53,0.74c-0.22-0.14-5.78-3.58-11.03,0.91
					C78.3,61.2,77.72,61.4,77.13,61.4z"/>
			</g>
		</g>
		<g>
			<g>
				<path class="st1" d="M112.56,136.58c-2.82,0-6.02-0.94-9.53-3.9c-1.08-0.91-1.21-2.51-0.3-3.59c0.91-1.08,2.51-1.21,3.59-0.3
					c4.88,4.12,8.31,2.68,11.92,1.15c3.28-1.38,7.78-3.28,11.34,2.02c0.78,1.17,0.48,2.75-0.69,3.53c-1.17,0.79-2.75,0.48-3.53-0.69
					c-1.11-1.65-1.59-1.67-5.14-0.17C118.17,135.49,115.59,136.58,112.56,136.58z"/>
			</g>
			<g>
				<path class="st1" d="M103.57,119.2c-0.49,0-0.98-0.14-1.42-0.43c-1.17-0.78-1.48-2.37-0.69-3.53c5.55-8.26,12.1-6.04,16.88-4.43
					c3.46,1.17,5.68,1.81,7.6,0.38c1.13-0.84,2.72-0.61,3.56,0.52c0.84,1.13,0.61,2.72-0.52,3.56c-4.16,3.11-8.66,1.58-12.28,0.36
					c-4.6-1.56-7.64-2.58-11.03,2.44C105.19,118.8,104.39,119.2,103.57,119.2z"/>
			</g>
			<g>
				<path class="st1" d="M104.67,133.28c-0.72,0-1.43-0.3-1.94-0.89c-5.6-6.56-3.29-14.07-1.29-17.13c0.77-1.17,2.35-1.5,3.53-0.73
					c1.18,0.77,1.5,2.35,0.73,3.53c-0.14,0.22-3.58,5.77,0.9,11.03c0.91,1.07,0.79,2.68-0.28,3.59
					C105.84,133.08,105.26,133.28,104.67,133.28z"/>
			</g>
		</g>
		<g>
			<g>
				<path class="st1" d="M159.5,84.22c-0.82,0-1.62-0.39-2.11-1.12c-0.79-1.17-0.48-2.75,0.69-3.53c1.4-0.94,1.63-1.28-0.33-5.29
					c-2.04-4.15-5.11-10.43,1.11-17.8c0.91-1.08,2.51-1.21,3.59-0.3c1.08,0.91,1.21,2.51,0.31,3.59c-4.07,4.83-2.39,8.28-0.43,12.28
					c1.59,3.24,3.99,8.14-1.39,11.76C160.48,84.08,159.98,84.22,159.5,84.22z"/>
			</g>
			<g>
				<path class="st1" d="M178.47,83.47c-0.78,0-1.54-0.35-2.04-1.02c-3.09-4.14-1.62-8.64-0.44-12.25
					c1.51-4.62,2.51-7.68-2.54-11.08c-1.17-0.78-1.48-2.37-0.69-3.53c0.79-1.17,2.37-1.48,3.53-0.69c8.25,5.55,6.1,12.1,4.53,16.89
					c-1.14,3.47-1.76,5.69-0.32,7.62c0.84,1.13,0.61,2.72-0.52,3.56C179.53,83.3,179,83.47,178.47,83.47z"/>
			</g>
			<g>
				<path class="st1" d="M160.79,60.65c-0.72,0-1.43-0.3-1.94-0.89c-0.91-1.07-0.79-2.68,0.28-3.59c6.56-5.6,14.07-3.29,17.13-1.29
					c1.18,0.77,1.51,2.35,0.73,3.53c-0.77,1.18-2.35,1.51-3.53,0.74c-0.22-0.14-5.77-3.58-11.03,0.9
					C161.97,60.45,161.38,60.65,160.79,60.65z"/>
			</g>
		</g>
		<g>
			<g>
				<path class="st1" d="M195.85,137.68c-2.81,0-5.95-0.99-9.31-4.03c-1.04-0.94-1.12-2.55-0.18-3.6c0.95-1.04,2.56-1.12,3.6-0.18
					c4.67,4.23,8.01,2.69,11.89,0.9c3.18-1.47,8-3.7,11.45,1.82c0.74,1.19,0.38,2.76-0.81,3.51c-1.19,0.74-2.76,0.38-3.51-0.81
					c-0.92-1.47-1.18-1.66-5,0.1C201.81,136.4,199.04,137.68,195.85,137.68z"/>
			</g>
			<g>
				<path class="st1" d="M187.63,120.2c-0.52,0-1.04-0.16-1.49-0.48c-1.14-0.82-1.4-2.42-0.57-3.56c5.82-8.05,12.3-5.69,17.03-3.96
					c3.43,1.25,5.63,1.95,7.6,0.58c1.15-0.8,2.74-0.52,3.54,0.64s0.52,2.74-0.64,3.54c-4.24,2.95-8.69,1.33-12.26,0.02
					c-4.57-1.67-7.59-2.77-11.16,2.16C189.2,119.84,188.42,120.2,187.63,120.2z"/>
			</g>
			<g>
				<path class="st1" d="M188.25,134.31c-0.75,0-1.49-0.33-1.99-0.96c-5.37-6.75-2.81-14.18-0.71-17.16
					c0.81-1.15,2.4-1.42,3.55-0.61c1.15,0.81,1.42,2.4,0.61,3.55c-0.15,0.21-3.78,5.65,0.53,11.06c0.88,1.1,0.7,2.7-0.4,3.58
					C189.37,134.13,188.81,134.31,188.25,134.31z"/>
			</g>
		</g>
		<g>
			<g>
				<path class="st1" d="M158.91,168.51c-0.85,0-1.67-0.42-2.16-1.19c-0.75-1.19-0.39-2.76,0.8-3.51c1.47-0.92,1.66-1.18-0.12-5
					c-1.9-4.08-4.77-10.25,1.7-17.44c0.94-1.04,2.54-1.13,3.6-0.19c1.05,0.94,1.13,2.55,0.19,3.6c-4.21,4.69-2.66,8.03-0.87,11.89
					c1.48,3.18,3.72,7.99-1.79,11.46C159.84,168.38,159.37,168.51,158.91,168.51z"/>
			</g>
			<g>
				<path class="st1" d="M177.98,168.97c-0.8,0-1.59-0.38-2.09-1.09c-2.96-4.24-1.35-8.69-0.05-12.26c1.66-4.58,2.75-7.6-2.19-11.15
					c-1.14-0.82-1.4-2.41-0.58-3.55c0.82-1.14,2.42-1.4,3.55-0.58c8.07,5.8,5.72,12.29,4.01,17.02c-1.24,3.43-1.94,5.63-0.56,7.6
					c0.81,1.15,0.52,2.74-0.63,3.55C178.99,168.83,178.49,168.97,177.98,168.97z"/>
			</g>
			<g>
				<path class="st1" d="M161.03,145.62c-0.75,0-1.49-0.33-1.99-0.95c-0.88-1.1-0.7-2.7,0.4-3.58c6.73-5.4,14.17-2.85,17.16-0.75
					c1.15,0.81,1.43,2.4,0.62,3.55c-0.81,1.15-2.39,1.43-3.55,0.62c-0.21-0.15-5.65-3.76-11.05,0.56
					C162.15,145.43,161.59,145.62,161.03,145.62z"/>
			</g>
		</g>
		<g>
			<g>
				<path class="st1" d="M78.09,191.96c-0.7,0-1.39-0.29-1.89-0.84c-6.46-7.19-3.59-13.36-1.7-17.44c1.78-3.82,1.58-4.08,0.12-5
					c-1.19-0.75-1.55-2.32-0.8-3.51c0.75-1.19,2.32-1.55,3.51-0.8c5.51,3.46,3.27,8.27,1.79,11.46c-1.8,3.86-3.35,7.2,0.87,11.89
					c0.94,1.05,0.85,2.66-0.19,3.6C79.31,191.75,78.7,191.96,78.09,191.96z"/>
			</g>
			<g>
				<path class="st1" d="M92.2,192.62c-0.79,0-1.57-0.37-2.07-1.06c-0.82-1.14-0.56-2.73,0.58-3.55c4.94-3.55,3.85-6.58,2.19-11.15
					c-1.3-3.57-2.91-8.02,0.05-12.26c0.81-1.15,2.39-1.43,3.55-0.63c1.15,0.81,1.43,2.39,0.63,3.55c-1.38,1.97-0.69,4.17,0.56,7.6
					c1.72,4.73,4.07,11.22-4,17.02C93.23,192.47,92.72,192.62,92.2,192.62z"/>
			</g>
			<g>
				<path class="st1" d="M85.43,194.63c-2.82,0-5.94-0.83-8.93-3.22c-1.1-0.88-1.27-2.48-0.4-3.58c0.88-1.1,2.48-1.27,3.58-0.4
					c5.47,4.38,11,0.6,11.05,0.56c1.15-0.81,2.74-0.53,3.55,0.62c0.81,1.15,0.53,2.74-0.62,3.55
					C91.99,193.33,88.96,194.63,85.43,194.63z"/>
			</g>
		</g>
		<g>
			<g>
				<path class="st1" d="M58.98,135.93c-3.06,0-5.74-1.16-7.87-2.07c-3.86-1.66-4.12-1.46-5,0.03c-0.71,1.22-2.27,1.62-3.49,0.9
					c-1.21-0.71-1.62-2.28-0.9-3.49c3.3-5.61,8.18-3.51,11.4-2.12c3.91,1.68,7.29,3.14,11.86-1.21c1.02-0.97,2.63-0.93,3.6,0.09
					c0.97,1.02,0.93,2.63-0.09,3.6C65.1,134.9,61.87,135.93,58.98,135.93z"/>
			</g>
			<g>
				<path class="st1" d="M66.99,118.24c-0.77,0-1.52-0.34-2.02-1c-3.7-4.84-6.69-3.66-11.21-1.86c-3.53,1.4-7.93,3.14-12.25,0.3
					c-1.18-0.77-1.5-2.35-0.73-3.53c0.77-1.18,2.35-1.5,3.53-0.73c2.01,1.32,4.19,0.56,7.59-0.78c4.68-1.85,11.1-4.39,17.13,3.51
					c0.85,1.12,0.64,2.72-0.48,3.57C68.07,118.07,67.53,118.24,66.99,118.24z"/>
			</g>
			<g>
				<path class="st1" d="M66.74,132.36c-0.53,0-1.07-0.17-1.53-0.51c-1.12-0.85-1.35-2.44-0.5-3.57c4.16-5.52,0.39-10.85,0.23-11.08
					c-0.82-1.13-0.58-2.72,0.55-3.55c1.13-0.83,2.71-0.6,3.54,0.52c2.18,2.93,4.94,10.29-0.26,17.18
					C68.27,132.01,67.51,132.36,66.74,132.36z"/>
			</g>
		</g>
		<g>
			<path class="st1" d="M124.92,84.22H94.81c-1.41,0-2.55-1.14-2.55-2.55s1.14-2.55,2.55-2.55h30.11c1.41,0,2.55,1.14,2.55,2.55
				S126.32,84.22,124.92,84.22z"/>
		</g>
		<g>
			<path class="st1" d="M127.46,115.77c-1.41,0-2.55-1.14-2.55-2.55V83.47c0-1.41,1.14-2.55,2.55-2.55c1.41,0,2.55,1.14,2.55,2.55
				v29.76C130.01,114.63,128.87,115.77,127.46,115.77z"/>
		</g>
		<g>
			<path class="st1" d="M159.26,84.22h-30.16c-1.41,0-2.55-1.14-2.55-2.55s1.14-2.55,2.55-2.55h30.16c1.41,0,2.55,1.14,2.55,2.55
				S160.67,84.22,159.26,84.22z"/>
		</g>
		<g>
			<path class="st1" d="M208.85,83.47H178.5c-1.41,0-2.55-1.14-2.55-2.55s1.14-2.55,2.55-2.55h30.35c1.41,0,2.55,1.14,2.55,2.55
				S210.26,83.47,208.85,83.47z"/>
		</g>
		<g>
			<path class="st1" d="M211.72,91.73c-0.08,0-0.16,0-0.24-0.01c-1.4-0.13-2.43-1.37-2.3-2.77c0.2-2.28-0.29-5.3-1.21-5.64
				c-1.32-0.49-1.99-1.95-1.51-3.27c0.49-1.32,1.95-1.99,3.27-1.5c5.19,1.92,4.6,9.98,4.51,10.89
				C214.12,90.74,213.01,91.73,211.72,91.73z"/>
		</g>
		<g>
			<path class="st1" d="M211.76,116.92c-1.4,0-2.54-1.14-2.55-2.54l-0.05-25.19c0-1.41,1.14-2.55,2.54-2.55c0,0,0,0,0,0
				c1.4,0,2.54,1.14,2.55,2.54l0.05,25.19C214.31,115.78,213.17,116.92,211.76,116.92C211.76,116.92,211.76,116.92,211.76,116.92z"
				/>
		</g>
		<g>
			<path class="st1" d="M211.14,164.55c-1.41,0-2.55-1.14-2.55-2.55v-26.88c0-1.41,1.14-2.55,2.55-2.55c1.41,0,2.55,1.14,2.55,2.55
				v26.88C213.68,163.41,212.54,164.55,211.14,164.55z"/>
		</g>
		<g>
			<path class="st1" d="M205.4,169.01c-0.82,0-1.42-0.07-1.58-0.1c-1.39-0.2-2.36-1.49-2.17-2.88c0.2-1.39,1.5-2.34,2.87-2.17
				c1.03,0.14,2.9,0.03,3.65-0.64c0.13-0.11,0.42-0.37,0.42-1.22c0-1.41,1.14-2.55,2.55-2.55c1.41,0,2.55,1.14,2.55,2.55
				c0,2.63-1.18,4.21-2.18,5.07C209.63,168.71,207.05,169.01,205.4,169.01z"/>
		</g>
		<g>
			<path class="st1" d="M178.49,169.01c-1.4,0-2.54-1.14-2.55-2.54c0-1.41,1.13-2.55,2.54-2.55l25.69-0.08c0,0,0.01,0,0.01,0
				c1.4,0,2.54,1.14,2.55,2.54c0,1.41-1.13,2.55-2.54,2.55L178.49,169.01C178.49,169.01,178.49,169.01,178.49,169.01z"/>
		</g>
		<g>
			<path class="st1" d="M158.91,168.51h-29.25c-1.41,0-2.55-1.14-2.55-2.55c0-1.41,1.14-2.55,2.55-2.55h29.25
				c1.41,0,2.55,1.14,2.55,2.55C161.45,167.37,160.31,168.51,158.91,168.51z"/>
		</g>
		<g>
			<path class="st1" d="M127.46,166.7c-1.41,0-2.55-1.14-2.55-2.55V134.2c0-1.41,1.14-2.55,2.55-2.55c1.41,0,2.55,1.14,2.55,2.55
				v29.96C130.01,165.56,128.87,166.7,127.46,166.7z"/>
		</g>
		<g>
			<path class="st1" d="M95.04,168.6c-1.4,0-2.54-1.13-2.55-2.54c0-1.41,1.13-2.55,2.54-2.55l30.27-0.1c0,0,0.01,0,0.01,0
				c1.4,0,2.54,1.13,2.55,2.54c0,1.41-1.13,2.55-2.54,2.55L95.04,168.6C95.05,168.6,95.04,168.6,95.04,168.6z"/>
		</g>
		<g>
			<path class="st1" d="M47.42,169.24c-1.4,0-2.54-1.13-2.55-2.53c-0.01-1.41,1.12-2.55,2.53-2.56l28.55-0.17c0.01,0,0.01,0,0.02,0
				c1.4,0,2.54,1.13,2.55,2.53c0.01,1.41-1.12,2.55-2.53,2.56l-28.55,0.17C47.43,169.24,47.43,169.24,47.42,169.24z"/>
		</g>
		<g>
			<path class="st1" d="M47.11,169.22c-0.24-0.03-5.83-0.83-5.83-9.87c0-1.41,1.14-2.55,2.55-2.55c1.41,0,2.55,1.14,2.55,2.55
				c0,3.56,1.12,4.71,1.55,4.85c-0.11-0.04-0.19-0.03-0.19-0.03L47.11,169.22z"/>
		</g>
		<g>
			<path class="st1" d="M43.83,161.91c-1.41,0-2.55-1.14-2.55-2.55v-26.79c0-1.41,1.14-2.55,2.55-2.55c1.41,0,2.55,1.14,2.55,2.55
				v26.79C46.38,160.77,45.24,161.91,43.83,161.91z"/>
		</g>
		<g>
			<path class="st1" d="M42.9,116.09c-1.41,0-2.55-1.14-2.55-2.55V85.02c0-1.41,1.14-2.55,2.55-2.55c1.41,0,2.55,1.14,2.55,2.55
				v28.53C45.45,114.95,44.31,116.09,42.9,116.09z"/>
		</g>
		<g>
			<path class="st1" d="M42.9,87.56c-1.41,0-2.55-1.14-2.55-2.55c0-1.31,0.51-2.47,1.48-3.38c2.41-2.24,7.05-2.09,8.42-2
				c1.4,0.1,2.46,1.32,2.36,2.72c-0.1,1.4-1.31,2.46-2.72,2.36c-1.7-0.11-3.78,0.15-4.45,0.55C45.31,86.56,44.22,87.56,42.9,87.56z"
				/>
		</g>
		<g>
			<path class="st1" d="M49.37,84.72c-1.4,0-2.54-1.13-2.55-2.53c-0.01-1.41,1.13-2.55,2.53-2.56l26.38-0.14c0,0,0.01,0,0.01,0
				c1.4,0,2.54,1.13,2.55,2.53c0.01,1.41-1.13,2.55-2.53,2.56l-26.38,0.14C49.38,84.72,49.38,84.72,49.37,84.72z"/>
		</g>
		<g>
			<path class="st1" d="M120.07,75.78c-0.69,0-1.38-0.28-1.88-0.83l-10.21-11.18c-0.95-1.04-0.87-2.65,0.16-3.6
				c1.04-0.95,2.65-0.87,3.6,0.16l10.21,11.18c0.95,1.04,0.87,2.65-0.16,3.6C121.3,75.56,120.68,75.78,120.07,75.78z"/>
		</g>
		<g>
			<path class="st1" d="M127.46,73.48c-1.41,0-2.55-1.14-2.55-2.55v-15c0-1.41,1.14-2.55,2.55-2.55c1.41,0,2.55,1.14,2.55,2.55v15
				C130.01,72.34,128.87,73.48,127.46,73.48z"/>
		</g>
		<g>
			<path class="st1" d="M134.35,76.03c-0.65,0-1.29-0.24-1.79-0.73c-1-0.99-1.01-2.6-0.02-3.6l10.78-10.93c0.99-1,2.6-1.01,3.6-0.02
				c1,0.99,1.01,2.6,0.02,3.6l-10.78,10.93C135.66,75.78,135.01,76.03,134.35,76.03z"/>
		</g>
		<g>
			<path class="st1" d="M145.43,191.96c-0.68,0-1.36-0.27-1.86-0.81l-10.68-11.45c-0.96-1.03-0.9-2.64,0.12-3.6
				c1.03-0.96,2.64-0.9,3.6,0.12l10.68,11.45c0.96,1.03,0.9,2.64-0.12,3.6C146.68,191.74,146.06,191.96,145.43,191.96z"/>
		</g>
		<g>
			<path class="st1" d="M127.46,196.61c-1.41,0-2.55-1.14-2.55-2.55v-14.28c0-1.41,1.14-2.55,2.55-2.55c1.41,0,2.55,1.14,2.55,2.55
				v14.28C130.01,195.47,128.87,196.61,127.46,196.61z"/>
		</g>
		<g>
			<path class="st1" d="M110.58,191.11c-0.62,0-1.25-0.23-1.74-0.68c-1.03-0.96-1.08-2.57-0.12-3.6l9.89-10.6
				c0.96-1.03,2.57-1.08,3.6-0.12c1.03,0.96,1.08,2.57,0.12,3.6l-9.89,10.6C111.94,190.84,111.26,191.11,110.58,191.11z"/>
		</g>
	</g>
</g>
</svg>
