<?xml version="1.0" encoding="utf-8"?>
<!-- Generator: Adobe Illustrator 24.0.1, SVG Export Plug-In . SVG Version: 6.00 Build 0)  -->
<svg version="1.1" id="Layer_1" xmlns="http://www.w3.org/2000/svg" xmlns:xlink="http://www.w3.org/1999/xlink" x="0px" y="0px"
	 viewBox="0 0 256 256" style="enable-background:new 0 0 256 256;" xml:space="preserve">
<style type="text/css">
	.st0{fill:#FFFFFF;}
	.st1{fill:#699E3C;}
	.st2{fill:none;stroke:#699E3C;stroke-width:9;stroke-miterlimit:10;}
</style>
<polygon class="st0" points="174.27,159.98 165.54,166.24 174.86,175.46 182.25,163.92 "/>
<polygon class="st0" points="162.46,185.2 153.43,191.23 146.62,184.4 155.5,178.25 "/>
<g>
	<circle class="st1" cx="107.92" cy="88.88" r="10.59"/>
	<path class="st1" d="M160.61,155.64c0,0,42.35-61.19,65.79-70.52c9.33,2.38,3.78,8.07,3.78,8.07s-51.17,55.21-66.8,97.05
		c-11.09-1.26-24.7-45.37-24.7-45.37s0.5-10.59,9.07-4.29C156.32,146.88,160.61,155.64,160.61,155.64z"/>
	<circle class="st2" cx="107.92" cy="123.18" r="68.82"/>
	<path class="st1" d="M128.44,90.4c0,0-1.42,12.59-15.31,13.43c-9.69-2.91-14.79-2.84-14.79-2.84s-13.24,0.06-10.01-23.05
		c-9.43-7.3-6.78,12.95-6.78,12.95s1.03,12.75,13.82,16.56c-9.3,23.89-3.97,37.39-3.97,37.39s0.55,0.58,3.62,0.16
		c2.2,12.4,9.27,24.77,10.4,24.86c1.13,0.1,6.75,1.29,7.1-4.84c-7.69-10.62-8.85-21.89-8.85-21.89l3.78-1.19
		c0,0,5.88,15.95,23.6,12.79c5.1-5.78-1.68-8.3-1.68-8.3s-10.69,1.1-13.34-7.3c2.91-1,5.88-2.58,5.88-2.58s1.29-0.23-1.65-6.52
		c-3.78-13.79-3.33-19.79-3.33-19.79s14.21-2.32,17.69-16.73c0-1.49,0-2.97,0-2.97S131.28,85.3,128.44,90.4z"/>
</g>
<path class="st0" d="M168.9,144.17l13.41-17.33l1.91-13.96c0,0-11.25,8.23-15.79,3.64c-4.54-4.6-0.62,29.13-0.62,29.13"/>
<path class="st0" d="M149.11,172.07c0,0,4.3,8.25,4.7,8.9s-14.22,11.9-14.22,11.9s-8.31-6.81-6.84-17.06
	C134.21,165.57,149.11,172.07,149.11,172.07z"/>
</svg>
