<?xml version="1.0" encoding="utf-8"?>
<!-- Generator: Adobe Illustrator 24.0.1, SVG Export Plug-In . SVG Version: 6.00 Build 0)  -->
<svg version="1.1" id="Layer_1" xmlns="http://www.w3.org/2000/svg" xmlns:xlink="http://www.w3.org/1999/xlink" x="0px" y="0px"
	 viewBox="0 0 256 256" style="enable-background:new 0 0 256 256;" xml:space="preserve">
<style type="text/css">
	.st0{fill:#699E3C;}
</style>
<g>
	<circle class="st0" cx="128.14" cy="78.68" r="20.03"/>
	<circle class="st0" cx="188.01" cy="85.79" r="16.51"/>
	<circle class="st0" cx="66.44" cy="85.79" r="16.51"/>
	<path class="st0" d="M100.82,110.02c-6.61,0.82-35.15,3.94-54.46-1c-1.61-0.41-3.33,0.12-4.38,1.4
		c-5.03,6.18-0.59,10.41,1.26,11.78c0.45,0.33,0.95,0.56,1.49,0.7c3.27,0.84,17.27,3.78,48.01,2.21c2.46-0.12,4.55,1.8,4.61,4.26
		c0.23,8.9,0.18,24.23,0.17,26.95c0,0.33,0.03,0.66,0.11,0.98c0.55,2.35,3.61,11.24,18.36,10.45c16.29,0.05,29.59-0.57,29.82-0.46
		c0.23,0.11,13.13-1.83,11.25-20.17c-0.01-0.08-0.01-0.18-0.02-0.26c-0.23-8.28-0.37-13.75-0.45-17.17
		c-0.06-2.55,2.05-4.62,4.6-4.48c7.57,0.42,24.01,0.73,47.62-2.09c0.57-0.07,1.2-0.17,1.65-0.54c7.3-5.99,3.69-11.86,0.38-13.33
		c-0.7-0.31-1.46-0.43-2.22-0.35c-7.21,0.74-48.54,4.81-53.98,1.15c-5.96-4.01-11.47-3.9-11.47-3.9l-33.13,0
		c-0.41,0-0.81,0.05-1.2,0.17c-1.22,0.36-4,1.27-5.79,2.72C102.39,109.57,101.64,109.91,100.82,110.02z"/>
	<g>
		<path class="st0" d="M41.15,124.17c0,0,6.19,6.54,52.07,4.13c0.23,7.68,0,20.87,0,20.87s0.46,13.88-9.86,14.11
			c-10.32,0.23-23.28,0.46-23.28,0.46s-10.9,1.38-15.25-7.34c-5.28,14.79-15.71,6.77-15.71,6.77s-4.59-4.36,3.21-19.61
			S41.15,124.17,41.15,124.17z"/>
	</g>
	<g>
		<path class="st0" d="M214.85,124.17c0,0-6.19,6.54-52.07,4.13c-0.23,7.68,0,20.87,0,20.87s-0.46,13.88,9.86,14.11
			c10.32,0.23,23.28,0.46,23.28,0.46s10.9,1.38,15.25-7.34c5.28,14.79,15.71,6.77,15.71,6.77s4.59-4.36-3.21-19.61
			C215.88,128.3,214.85,124.17,214.85,124.17z"/>
	</g>
</g>
</svg>
