<?xml version="1.0" encoding="utf-8"?>
<!-- Generator: Adobe Illustrator 24.0.1, SVG Export Plug-In . SVG Version: 6.00 Build 0)  -->
<svg version="1.1" id="Layer_1" xmlns="http://www.w3.org/2000/svg" xmlns:xlink="http://www.w3.org/1999/xlink" x="0px" y="0px"
	 viewBox="0 0 256 256" style="enable-background:new 0 0 256 256;" xml:space="preserve">
<style type="text/css">
	.st0{fill:#FFFFFF;}
	.st1{fill:#699E3C;}
</style>
<g>
	<g>
		<path class="st0" d="M133.38,171.6c-1.04,0-1.89-0.84-1.89-1.89c0-34.61-0.33-136.89-0.33-137.92c0-1.04,0.84-1.89,1.88-1.89
			c0,0,0,0,0.01,0c1.04,0,1.88,0.84,1.89,1.88c0,1.03,0.33,103.32,0.33,137.94C135.27,170.76,134.42,171.6,133.38,171.6z"/>
	</g>
	<g>
		<path class="st0" d="M189.76,89.19c-0.9,0-1.7-0.65-1.86-1.57c-3.63-21.65-13.94-37.3-30.65-46.52
			c-12.52-6.91-24.16-7.43-24.28-7.43c-1.04-0.04-1.85-0.91-1.81-1.96c0.04-1.04,0.91-1.85,1.95-1.82
			c0.51,0.02,12.52,0.53,25.81,7.81c12.27,6.73,27.91,20.74,32.7,49.28c0.17,1.03-0.52,2-1.55,2.17
			C189.97,89.18,189.87,89.19,189.76,89.19z"/>
	</g>
	<g>
		<path class="st0" d="M157.69,148.68c-0.67,0-1.32-0.36-1.66-1c-0.49-0.92-0.15-2.06,0.77-2.55c14.76-7.91,24.48-19.98,28.89-35.85
			c3.31-11.93,2.22-21.65,2.2-21.75c-0.12-1.03,0.62-1.97,1.65-2.1c1.03-0.12,1.97,0.61,2.1,1.65c0.05,0.42,1.2,10.45-2.27,23.06
			c-3.21,11.67-11.16,27.79-30.78,38.32C158.3,148.61,157.99,148.68,157.69,148.68z"/>
	</g>
	<g>
		<path class="st0" d="M157.69,171.6c-1.04,0-1.89-0.84-1.89-1.89V146.8c0-1.04,0.84-1.89,1.89-1.89c1.04,0,1.89,0.84,1.89,1.89
			v22.92C159.58,170.76,158.73,171.6,157.69,171.6z"/>
	</g>
	<g>
		<path class="st0" d="M157.69,171.6h-24.31c-1.04,0-1.89-0.84-1.89-1.89c0-1.04,0.84-1.89,1.89-1.89h24.31
			c1.04,0,1.89,0.84,1.89,1.89C159.58,170.76,158.73,171.6,157.69,171.6z"/>
	</g>
	<g>
		<path class="st0" d="M161.41,96.74"/>
	</g>
	<g>
		<path class="st0" d="M133.91,107.73"/>
	</g>
	<g>
		<path class="st0" d="M145.77,110.98c-6.23,0-11.88-1.32-12.3-1.42c-1.01-0.24-1.64-1.26-1.4-2.27c0.24-1.01,1.26-1.64,2.27-1.4
			c4.67,1.11,17.87,2.97,22.82-1.72c1.81-1.72,2.39-4.21,1.77-7.62c-0.19-1.03,0.49-2.01,1.52-2.19c1.02-0.19,2.01,0.49,2.19,1.52
			c0.85,4.7-0.12,8.41-2.89,11.04C156.41,110.09,150.89,110.98,145.77,110.98z"/>
	</g>
	<g>
		<path class="st0" d="M143.32,110.28c-0.17,0-0.34-0.02-0.51-0.07c-1-0.28-1.59-1.32-1.31-2.32c4.22-15.18,11.32-16.92,14.17-16.97
			c3.24-0.04,6.02,1.85,6.93,4.73c0.31,0.99-0.24,2.05-1.23,2.37c-0.99,0.31-2.05-0.24-2.37-1.23c-0.33-1.06-1.45-2.11-3.26-2.09
			c-3.23,0.05-7.71,3.81-10.6,14.21C144.9,109.73,144.14,110.28,143.32,110.28z"/>
	</g>
	<g>
		<path class="st0" d="M142.28,171.32c-1.02,0-1.85-0.81-1.88-1.83c-0.06-2.01-1.47-49.31,1.46-61.81c0.24-1.02,1.25-1.64,2.27-1.41
			c1.01,0.24,1.64,1.25,1.4,2.27c-2.82,12.02-1.38,60.34-1.37,60.83c0.03,1.04-0.79,1.91-1.83,1.94
			C142.32,171.32,142.3,171.32,142.28,171.32z"/>
	</g>
	<g>
		<path class="st0" d="M162.43,53.59c-0.36,0-0.72-0.13-0.99-0.4c-8.1-7.95-14.99-8.42-15.06-8.42c-0.78-0.04-1.38-0.71-1.34-1.48
			c0.04-0.78,0.69-1.37,1.47-1.34c0.32,0.01,7.97,0.46,16.91,9.23c0.56,0.55,0.57,1.44,0.02,2
			C163.16,53.45,162.8,53.59,162.43,53.59z"/>
	</g>
	<g>
		<path class="st0" d="M156.15,52.95c-0.28,0-0.57-0.13-0.75-0.37c-1.51-1.98-4.18-2.88-5.32-3.26c-0.32-0.11-0.52-0.17-0.67-0.25
			c-0.46-0.24-0.64-0.81-0.41-1.27c0.24-0.46,0.8-0.64,1.26-0.41c0.08,0.04,0.23,0.08,0.42,0.15c1.31,0.44,4.36,1.46,6.22,3.9
			c0.32,0.41,0.24,1.01-0.18,1.32C156.55,52.89,156.35,52.95,156.15,52.95z"/>
	</g>
	<g>
		<path class="st0" d="M123.75,171.6L123.75,171.6c-1.04,0-1.89-0.85-1.89-1.89l0.02-136.13c0-1.04,0.84-1.89,1.89-1.89l0,0
			c1.04,0,1.89,0.85,1.89,1.89l-0.02,136.13C125.64,170.76,124.8,171.6,123.75,171.6z"/>
	</g>
	<g>
		<path class="st0" d="M123.75,171.6h-27c-1.04,0-1.89-0.84-1.89-1.89c0-1.04,0.84-1.89,1.89-1.89h27c1.04,0,1.89,0.84,1.89,1.89
			C125.64,170.76,124.8,171.6,123.75,171.6z"/>
	</g>
	<g>
		<path class="st0" d="M96.76,171.6c-1.04,0-1.89-0.84-1.89-1.89v-23.47c0-1.04,0.84-1.89,1.89-1.89c1.04,0,1.89,0.84,1.89,1.89
			v23.47C98.64,170.76,97.8,171.6,96.76,171.6z"/>
	</g>
	<g>
		<path class="st0" d="M96.76,148.13c-0.26,0-0.53-0.06-0.79-0.17c-11.55-5.3-10.33-18.79-10.27-19.36c0.1-1.04,1.04-1.79,2.07-1.69
			c1.04,0.1,1.79,1.03,1.69,2.06c-0.05,0.48-0.98,11.39,8.09,15.55c0.95,0.43,1.36,1.55,0.93,2.5
			C98.15,147.72,97.47,148.13,96.76,148.13z"/>
	</g>
	<g>
		<g>
			<path class="st0" d="M87.59,133.68c-0.03,0-0.06,0-0.1,0c-13.69-0.69-20.82-11.18-20.58-20.7c0.23-9,7.05-18.07,21.8-18.07
				c1.04,0,1.89,0.84,1.89,1.89s-0.84,1.89-1.89,1.89c-13.04,0-17.86,7.75-18.02,14.39c-0.19,7.74,5.7,16.26,17,16.83
				c1.04,0.05,1.84,0.94,1.79,1.98C89.42,132.9,88.59,133.68,87.59,133.68z"/>
		</g>
		<g>
			<path class="st0" d="M82.11,59.23c-0.06,0-0.12,0-0.18-0.01c-2.46-0.24-4.47-2.24-5.52-5.51c-1.72-5.34-0.75-13.46,4.43-17.99
				c3.43-2.99,9.87-5.43,21.12-0.06c0.94,0.45,1.34,1.58,0.89,2.52c-0.45,0.94-1.57,1.34-2.52,0.89c-7.44-3.56-13.32-3.73-17.01-0.5
				c-3.77,3.3-4.66,9.83-3.32,14c0.55,1.71,1.43,2.82,2.29,2.91c1.04,0.1,1.8,1.02,1.7,2.06C83.89,58.5,83.07,59.23,82.11,59.23z"/>
		</g>
		<g>
			<path class="st0" d="M87.59,131.79"/>
		</g>
		<g>
			<path class="st0" d="M70.7,121.82"/>
		</g>
	</g>
	<g>
		<g>
			<path class="st0" d="M70.81,87.82c-0.37,0-0.75-0.11-1.07-0.34c-6.3-4.37-9.37-13.57-7.15-21.4
				c2.38-8.39,10.22-13.55,21.52-14.16c1.03-0.05,1.93,0.74,1.99,1.78s-0.74,1.93-1.78,1.99c-9.73,0.53-16.16,4.58-18.1,11.42
				c-1.77,6.25,0.72,13.84,5.67,17.27c0.86,0.59,1.07,1.77,0.47,2.63C72,87.54,71.41,87.82,70.81,87.82z"/>
		</g>
		<g>
			<path class="st0" d="M76.23,113.22c-0.1,0-0.21-0.01-0.31-0.03c-13.44-2.23-19.46-12.93-18.44-22.35
				c0.94-8.8,8.16-17.38,22.19-16.69c1.04,0.05,1.84,0.94,1.79,1.98c-0.05,1.04-0.93,1.84-1.98,1.79
				c-12.36-0.61-17.55,6.79-18.25,13.32c-0.82,7.66,4.17,16.38,15.31,18.23c1.03,0.17,1.72,1.14,1.55,2.17
				C77.93,112.57,77.13,113.22,76.23,113.22z"/>
		</g>
		<g>
			<path class="st0" d="M66.54,80.98"/>
		</g>
	</g>
	<g>
		<path class="st0" d="M89.82,41.08c-0.43,0-0.86-0.14-1.21-0.44c-0.8-0.67-0.9-1.86-0.24-2.66c8.64-10.33,18.12-11.4,24.56-10.47
			c6.91,0.99,11.74,4.4,11.94,4.54c0.85,0.61,1.04,1.78,0.44,2.63c-0.61,0.85-1.79,1.04-2.63,0.44c-0.69-0.49-17.1-11.81-31.41,5.28
			C90.89,40.85,90.36,41.08,89.82,41.08z"/>
	</g>
	<g>
		<path class="st0" d="M102.25,58.22c-2.9,0-5.81-0.72-8.12-1.82c-3.11-1.48-4.89-3.55-4.89-5.69c0-1.04,0.84-1.89,1.89-1.89
			c1.04,0,1.89,0.84,1.89,1.89c0,0.31,0.69,1.31,2.74,2.28c3.66,1.74,9.26,2.21,12.42-0.36c3.52-2.87,3-8.65,1.94-12.99
			c-0.25-1.01,0.37-2.03,1.38-2.28c1.01-0.25,2.03,0.37,2.28,1.38c2.39,9.78-0.43,14.54-3.22,16.81
			C108.21,57.45,105.23,58.22,102.25,58.22z"/>
	</g>
	<g>
		<path class="st0" d="M94.76,128.82c-0.93,0-1.75-0.69-1.87-1.65c-0.13-1.03,0.6-1.98,1.63-2.11c1.18-0.15,2.34-1.35,3.02-3.13
			c0.83-2.17,0.91-5.25-0.8-7.23c-1.63-1.9-4.66-2.42-8.74-1.52c-1.02,0.23-2.02-0.42-2.25-1.44c-0.22-1.02,0.42-2.02,1.44-2.25
			c6.98-1.54,10.6,0.65,12.41,2.75c2.39,2.78,2.96,7.11,1.46,11.04c-1.2,3.12-3.46,5.18-6.06,5.52
			C94.92,128.81,94.84,128.82,94.76,128.82z"/>
	</g>
	<g>
		<path class="st0" d="M107.23,105.02c-1.83,0-3.61-0.49-5-1.23c-2.45-1.31-3.92-3.45-3.92-5.72c0-1.04,0.84-1.89,1.89-1.89
			s1.89,0.84,1.89,1.89c0,0.85,0.72,1.74,1.93,2.39c1.62,0.86,4.2,1.24,6.04,0.01c2.18-1.45,2.37-4.54,2.14-6.87
			c-0.1-1.04,0.66-1.96,1.7-2.06c1.04-0.1,1.96,0.66,2.06,1.7c0.59,6.09-1.74,9-3.8,10.38
			C110.64,104.61,108.91,105.02,107.23,105.02z"/>
	</g>
	<g>
		<path class="st0" d="M114.33,123.18c-0.39,0-0.79-0.03-1.18-0.08c-2-0.27-6.77-1.7-7.84-9.23c-0.15-1.03,0.57-1.99,1.6-2.13
			c1.04-0.15,1.99,0.57,2.13,1.6c0.51,3.55,2.14,5.69,4.61,6.02c2.8,0.38,5.98-1.6,7.24-4.51c0.41-0.96,1.52-1.4,2.48-0.98
			c0.96,0.41,1.4,1.52,0.98,2.48C122.59,120.41,118.43,123.18,114.33,123.18z"/>
	</g>
	<g>
		<path class="st0" d="M112.71,149.38c-5.27,0-9.14-4.06-9.77-8.08c-0.57-3.6,1.27-8.03,8.15-9.65c1.02-0.24,2.03,0.39,2.27,1.4
			c0.24,1.01-0.39,2.03-1.4,2.27c-3.76,0.89-5.68,2.85-5.28,5.39c0.41,2.58,3.15,5.15,6.59,4.87c1.04-0.08,1.95,0.69,2.03,1.73
			c0.08,1.04-0.69,1.95-1.73,2.03C113.27,149.36,112.99,149.38,112.71,149.38z"/>
	</g>
	<g>
		<path class="st0" d="M98.35,87.34c-2.72,0-4.99-1.39-6.47-3.11c-2.97-3.48-3.69-9.31,0.24-13.06c0.75-0.72,1.95-0.69,2.67,0.07
			c0.72,0.76,0.69,1.95-0.07,2.67c-2.28,2.17-1.76,5.78,0.02,7.87c0.92,1.08,3.48,3.26,7.41,0.25c0.83-0.63,2.01-0.48,2.64,0.35
			c0.63,0.83,0.48,2.01-0.35,2.65C102.29,86.69,100.22,87.34,98.35,87.34z"/>
	</g>
	<g>
		<path class="st0" d="M109.63,74.43c-0.42,0-0.85-0.14-1.2-0.43c-1.17-0.97-1.57-2.74-1.11-4.98c0.64-3.14,2.98-7.02,6.61-8.1
			c2.14-0.64,5.51-0.56,9.47,3.42c0.73,0.74,0.73,1.93-0.01,2.67c-0.74,0.73-1.94,0.73-2.67-0.01c-2.59-2.61-4.88-3.26-6.81-1.93
			c-2.35,1.63-3.25,5.24-2.96,6.13c0.69,0.68,0.76,1.79,0.13,2.55C110.71,74.2,110.17,74.43,109.63,74.43z M110.97,71.25
			L110.97,71.25L110.97,71.25z M110.83,71.09C110.83,71.09,110.83,71.09,110.83,71.09C110.83,71.09,110.83,71.09,110.83,71.09z"/>
	</g>
	<g>
		<path class="st0" d="M147.73,180.29C147.73,180.29,147.72,180.29,147.73,180.29l-46.87-0.17c-1.04,0-1.88-0.85-1.88-1.89
			c0-1.04,0.86-1.87,1.89-1.88l46.86,0.17c1.04,0,1.88,0.85,1.88,1.89C149.61,179.45,148.77,180.29,147.73,180.29z"/>
	</g>
	<g>
		<path class="st0" d="M101.03,202.26c-1.04,0-1.88-0.84-1.89-1.87l-0.17-22.14c-0.01-1.04,0.83-1.89,1.87-1.9c0.01,0,0.01,0,0.01,0
			c1.04,0,1.88,0.84,1.89,1.87l0.17,22.14c0.01,1.04-0.83,1.89-1.87,1.9C101.04,202.26,101.03,202.26,101.03,202.26z"/>
	</g>
	<g>
		<path class="st0" d="M148.22,202.26c-1.04,0-1.88-0.84-1.89-1.87l-0.16-21.85c-0.01-1.04,0.83-1.89,1.87-1.9c0.01,0,0.01,0,0.01,0
			c1.04,0,1.88,0.84,1.89,1.87l0.16,21.85c0.01,1.04-0.83,1.89-1.87,1.9C148.23,202.26,148.23,202.26,148.22,202.26z"/>
	</g>
	<g>
		<path class="st0" d="M106.15,206.63c-2.7,0-4.84-1.15-6.03-3.24c-0.91-1.61-0.98-3.25-0.98-3.72c0-1.04,0.84-1.89,1.89-1.89
			s1.89,0.84,1.89,1.89c0,0.34,0.1,1.17,0.49,1.86c0.32,0.57,0.96,1.33,2.74,1.33c0,0,0,0,0,0c1.04,0,1.89,0.84,1.89,1.89
			C108.04,205.79,107.19,206.63,106.15,206.63C106.15,206.63,106.15,206.63,106.15,206.63z"/>
	</g>
	<g>
		<path class="st0" d="M142.32,206.63C142.32,206.63,142.32,206.63,142.32,206.63c-1.05,0-1.89-0.85-1.89-1.89
			c0-1.04,0.85-1.89,1.89-1.89c0,0,0,0,0,0c3.43,0,3.98-2.52,4.02-2.75c0.04-1.01,0.87-1.81,1.89-1.81c1.04,0,1.89,0.84,1.89,1.89
			c0,0.88-0.49,2.43-1.56,3.73C147.54,205.15,145.63,206.63,142.32,206.63z M146.34,200.14c0,0.02,0,0.04,0,0.05
			C146.34,200.17,146.34,200.15,146.34,200.14z"/>
	</g>
	<g>
		<path class="st0" d="M142.32,206.63h-36.17c-1.04,0-1.89-0.84-1.89-1.89s0.84-1.89,1.89-1.89h36.17c1.04,0,1.89,0.84,1.89,1.89
			S143.36,206.63,142.32,206.63z"/>
	</g>
	<g>
		<path class="st0" d="M123.64,214.34c-7.85,0-10.58-6.09-10.92-9.41c-0.11-1.04,0.65-1.96,1.68-2.07c1.04-0.11,1.96,0.64,2.07,1.67
			c0.07,0.64,0.89,6.03,7.19,6.03c0.16,0,0.32,0,0.49-0.01c1.03-0.05,1.92,0.76,1.97,1.8c0.04,1.04-0.76,1.92-1.8,1.97
			C124.09,214.34,123.86,214.34,123.64,214.34z"/>
	</g>
	<g>
		<path class="st0" d="M125.58,214.39c-0.49,0-0.99-0.02-1.51-0.07c-1.04-0.09-1.8-1.01-1.71-2.05c0.09-1.04,1.01-1.8,2.05-1.71
			c7.44,0.68,8.38-5.34,8.46-6.03c0.12-1.03,1.05-1.78,2.09-1.66c1.03,0.12,1.77,1.04,1.66,2.07
			C136.26,208.34,133.47,214.39,125.58,214.39z"/>
	</g>
	<g>
		<path class="st0" d="M101.02,188.28c-1.04,0-1.88-0.84-1.89-1.88c0-1.04,0.84-1.89,1.88-1.89l47.2-0.08c0,0,0,0,0,0
			c1.04,0,1.88,0.84,1.89,1.88c0,1.04-0.84,1.89-1.88,1.89L101.02,188.28C101.03,188.28,101.03,188.28,101.02,188.28z"/>
	</g>
	<g>
		<path class="st0" d="M101.04,197.9c-1.04,0-1.88-0.84-1.89-1.88c0-1.04,0.84-1.89,1.88-1.89l47.2-0.08c0,0,0,0,0,0
			c1.04,0,1.88,0.84,1.89,1.88c0,1.04-0.84,1.89-1.88,1.89L101.04,197.9C101.04,197.9,101.04,197.9,101.04,197.9z"/>
	</g>
</g>
<g>
	<g>
		<path class="st1" d="M141.09,174.99c-1.1,0-2-0.9-2-2c0-36.7-0.35-145.14-0.35-146.23c0-1.1,0.89-2,1.99-2.01c0,0,0,0,0.01,0
			c1.1,0,2,0.89,2,1.99c0,1.09,0.35,109.54,0.35,146.25C143.09,174.1,142.19,174.99,141.09,174.99z"/>
	</g>
	<g>
		<path class="st1" d="M200.87,87.62c-0.96,0-1.81-0.69-1.97-1.67c-3.85-22.96-14.78-39.55-32.49-49.32
			c-13.28-7.32-25.62-7.87-25.74-7.88c-1.1-0.04-1.96-0.97-1.92-2.07c0.04-1.1,0.96-1.96,2.07-1.93c0.54,0.02,13.28,0.56,27.37,8.29
			c13.01,7.13,29.59,21.99,34.67,52.25c0.18,1.09-0.55,2.12-1.64,2.3C201.09,87.61,200.98,87.62,200.87,87.62z"/>
	</g>
	<g>
		<path class="st1" d="M166.86,150.69c-0.71,0-1.4-0.38-1.77-1.06c-0.52-0.97-0.16-2.19,0.82-2.71
			c15.65-8.39,25.96-21.18,30.63-38.01c3.51-12.64,2.35-22.96,2.34-23.06c-0.13-1.1,0.65-2.09,1.75-2.22
			c1.09-0.13,2.09,0.65,2.22,1.75c0.05,0.45,1.27,11.08-2.41,24.45c-3.41,12.38-11.83,29.47-32.64,40.62
			C167.5,150.62,167.18,150.69,166.86,150.69z"/>
	</g>
	<g>
		<path class="st1" d="M166.86,174.99c-1.1,0-2-0.9-2-2v-24.3c0-1.1,0.9-2,2-2c1.1,0,2,0.9,2,2v24.3
			C168.86,174.1,167.97,174.99,166.86,174.99z"/>
	</g>
	<g>
		<path class="st1" d="M166.86,174.99h-25.77c-1.1,0-2-0.9-2-2c0-1.1,0.9-2,2-2h25.77c1.1,0,2,0.9,2,2
			C168.86,174.1,167.97,174.99,166.86,174.99z"/>
	</g>
	<g>
		<path class="st1" d="M170.8,95.62"/>
	</g>
	<g>
		<path class="st1" d="M141.65,107.27"/>
	</g>
	<g>
		<path class="st1" d="M154.22,110.72c-6.61,0-12.59-1.4-13.04-1.5c-1.07-0.26-1.74-1.34-1.48-2.41c0.26-1.07,1.33-1.74,2.41-1.48
			c4.95,1.18,18.95,3.15,24.2-1.83c1.92-1.82,2.53-4.46,1.87-8.08c-0.2-1.09,0.52-2.13,1.61-2.33c1.08-0.2,2.13,0.52,2.33,1.61
			c0.91,4.98-0.12,8.92-3.06,11.7C165.5,109.78,159.65,110.72,154.22,110.72z"/>
	</g>
	<g>
		<path class="st1" d="M151.62,109.98c-0.18,0-0.36-0.02-0.54-0.07c-1.06-0.3-1.69-1.4-1.39-2.46c4.48-16.09,12-17.94,15.03-17.99
			c3.44-0.04,6.38,1.96,7.34,5.02c0.33,1.05-0.26,2.18-1.31,2.51c-1.05,0.33-2.18-0.26-2.51-1.31c-0.35-1.12-1.54-2.24-3.46-2.21
			c-3.42,0.06-8.17,4.04-11.24,15.06C153.3,109.4,152.5,109.98,151.62,109.98z"/>
	</g>
	<g>
		<path class="st1" d="M150.53,174.7c-1.08,0-1.97-0.86-2-1.94c-0.07-2.13-1.56-52.28,1.55-65.53c0.25-1.08,1.33-1.74,2.4-1.49
			c1.08,0.25,1.74,1.33,1.49,2.4c-2.99,12.75-1.46,63.98-1.45,64.5c0.03,1.1-0.83,2.03-1.94,2.06
			C150.57,174.7,150.55,174.7,150.53,174.7z"/>
	</g>
	<g>
		<path class="st1" d="M171.89,49.88c-0.38,0-0.76-0.14-1.05-0.43c-8.59-8.43-15.9-8.92-15.97-8.93c-0.82-0.05-1.46-0.75-1.42-1.57
			c0.04-0.82,0.74-1.45,1.56-1.42c0.34,0.02,8.45,0.49,17.93,9.78c0.59,0.58,0.6,1.53,0.02,2.12
			C172.66,49.73,172.28,49.88,171.89,49.88z"/>
	</g>
	<g>
		<path class="st1" d="M165.23,49.2c-0.3,0-0.6-0.14-0.8-0.39c-1.6-2.1-4.44-3.05-5.65-3.46c-0.34-0.12-0.55-0.18-0.71-0.27
			c-0.49-0.25-0.68-0.86-0.43-1.35c0.25-0.49,0.85-0.68,1.34-0.43c0.09,0.04,0.24,0.09,0.44,0.15c1.38,0.46,4.63,1.55,6.6,4.14
			c0.34,0.44,0.25,1.07-0.19,1.4C165.65,49.13,165.44,49.2,165.23,49.2z"/>
	</g>
	<g>
		<path class="st1" d="M130.88,174.99L130.88,174.99c-1.11,0-2-0.9-2-2l0.02-144.33c0-1.1,0.9-2,2-2l0,0c1.11,0,2,0.9,2,2
			l-0.02,144.33C132.88,174.1,131.99,174.99,130.88,174.99z"/>
	</g>
	<g>
		<path class="st1" d="M130.88,174.99h-28.62c-1.1,0-2-0.9-2-2c0-1.1,0.9-2,2-2h28.62c1.1,0,2,0.9,2,2
			C132.88,174.1,131.99,174.99,130.88,174.99z"/>
	</g>
	<g>
		<path class="st1" d="M102.26,174.99c-1.1,0-2-0.9-2-2V148.1c0-1.1,0.9-2,2-2s2,0.9,2,2v24.89
			C104.26,174.1,103.36,174.99,102.26,174.99z"/>
	</g>
	<g>
		<path class="st1" d="M102.26,150.1c-0.28,0-0.56-0.06-0.83-0.18C89.17,144.3,90.47,130,90.53,129.4c0.11-1.1,1.1-1.9,2.19-1.79
			c1.1,0.11,1.9,1.09,1.79,2.19c-0.05,0.51-1.04,12.08,8.58,16.49c1,0.46,1.44,1.65,0.98,2.65
			C103.74,149.67,103.01,150.1,102.26,150.1z"/>
	</g>
	<g>
		<g>
			<path class="st1" d="M92.54,134.79c-0.03,0-0.07,0-0.1,0c-14.51-0.73-22.07-11.85-21.82-21.94c0.24-9.54,7.48-19.16,23.11-19.16
				c1.1,0,2,0.9,2,2c0,1.1-0.9,2-2,2c-13.82,0-18.93,8.22-19.11,15.26c-0.21,8.2,6.04,17.24,18.02,17.85c1.1,0.06,1.95,1,1.9,2.1
				C94.48,133.96,93.6,134.79,92.54,134.79z"/>
		</g>
		<g>
			<path class="st1" d="M86.73,55.85c-0.06,0-0.13,0-0.19-0.01c-2.61-0.25-4.74-2.38-5.86-5.84c-1.82-5.66-0.8-14.28,4.7-19.08
				c3.63-3.17,10.47-5.76,22.39-0.06c1,0.48,1.42,1.67,0.94,2.67c-0.48,1-1.67,1.42-2.67,0.94c-7.88-3.77-14.12-3.95-18.03-0.54
				c-4,3.5-4.94,10.42-3.52,14.84c0.58,1.81,1.51,2.99,2.43,3.08c1.1,0.11,1.91,1.08,1.8,2.18C88.62,55.07,87.75,55.85,86.73,55.85z
				"/>
		</g>
		<g>
			<path class="st1" d="M92.54,132.79"/>
		</g>
		<g>
			<path class="st1" d="M74.63,122.22"/>
		</g>
	</g>
	<g>
		<g>
			<path class="st1" d="M74.75,86.16c-0.39,0-0.79-0.12-1.14-0.36c-6.67-4.63-9.93-14.39-7.58-22.69
				c2.52-8.89,10.84-14.37,22.82-15.02c1.09-0.05,2.05,0.79,2.11,1.89c0.06,1.1-0.79,2.05-1.89,2.11
				c-10.32,0.56-17.13,4.86-19.19,12.11c-1.88,6.63,0.76,14.67,6.01,18.31c0.91,0.63,1.13,1.88,0.5,2.78
				C76.01,85.86,75.38,86.16,74.75,86.16z"/>
		</g>
		<g>
			<path class="st1" d="M80.49,113.1c-0.11,0-0.22-0.01-0.33-0.03c-14.25-2.36-20.63-13.71-19.56-23.7
				c1-9.33,8.66-18.43,23.53-17.69c1.1,0.05,1.95,0.99,1.9,2.1c-0.05,1.1-0.98,1.95-2.1,1.9c-13.1-0.64-18.61,7.2-19.35,14.12
				c-0.87,8.12,4.43,17.37,16.23,19.33c1.09,0.18,1.83,1.21,1.65,2.3C82.3,112.4,81.45,113.1,80.49,113.1z"/>
		</g>
		<g>
			<path class="st1" d="M70.22,78.91"/>
		</g>
	</g>
	<g>
		<path class="st1" d="M94.9,36.61c-0.45,0-0.91-0.15-1.28-0.47c-0.85-0.71-0.96-1.97-0.25-2.82c9.16-10.95,19.22-12.08,26.04-11.1
			c7.32,1.05,12.44,4.66,12.66,4.82c0.9,0.64,1.11,1.89,0.46,2.79c-0.64,0.9-1.89,1.11-2.79,0.46c-0.73-0.52-18.13-12.53-33.3,5.6
			C96.04,36.36,95.47,36.61,94.9,36.61z"/>
	</g>
	<g>
		<path class="st1" d="M108.08,54.78c-3.08,0-6.16-0.77-8.61-1.93c-3.3-1.57-5.19-3.77-5.19-6.03c0-1.1,0.9-2,2-2c1.1,0,2,0.9,2,2
			c0,0.33,0.73,1.38,2.9,2.42c3.89,1.85,9.82,2.34,13.16-0.38c3.74-3.04,3.18-9.17,2.05-13.77c-0.26-1.07,0.4-2.16,1.47-2.42
			c1.07-0.26,2.16,0.4,2.42,1.47c2.54,10.37-0.46,15.41-3.41,17.82C114.41,53.97,111.24,54.78,108.08,54.78z"/>
	</g>
	<g>
		<path class="st1" d="M100.14,129.63c-0.99,0-1.85-0.74-1.98-1.74c-0.14-1.1,0.63-2.1,1.73-2.24c1.25-0.16,2.48-1.43,3.2-3.31
			c0.88-2.3,0.96-5.57-0.84-7.66c-1.73-2.01-4.94-2.57-9.27-1.62c-1.08,0.24-2.15-0.44-2.38-1.52c-0.24-1.08,0.44-2.15,1.52-2.38
			c7.4-1.63,11.24,0.68,13.16,2.91c2.54,2.94,3.14,7.54,1.55,11.71c-1.27,3.31-3.67,5.5-6.42,5.85
			C100.31,129.62,100.22,129.63,100.14,129.63z"/>
	</g>
	<g>
		<path class="st1" d="M113.37,104.4c-1.94,0-3.83-0.52-5.31-1.31c-2.6-1.39-4.16-3.66-4.16-6.06c0-1.1,0.9-2,2-2c1.1,0,2,0.9,2,2
			c0,0.9,0.76,1.85,2.04,2.53c1.71,0.92,4.45,1.31,6.4,0.01c2.31-1.54,2.51-4.81,2.27-7.29c-0.11-1.1,0.7-2.08,1.8-2.18
			c1.1-0.1,2.08,0.7,2.18,1.8c0.62,6.45-1.85,9.55-4.03,11C116.97,103.97,115.15,104.4,113.37,104.4z"/>
	</g>
	<g>
		<path class="st1" d="M120.89,123.66c-0.42,0-0.84-0.03-1.25-0.08c-2.12-0.28-7.17-1.81-8.31-9.78c-0.16-1.09,0.6-2.11,1.7-2.26
			c1.1-0.16,2.11,0.6,2.26,1.7c0.54,3.77,2.27,6.03,4.88,6.38c2.97,0.4,6.34-1.7,7.67-4.78c0.44-1.01,1.62-1.48,2.63-1.04
			c1.01,0.44,1.48,1.62,1.04,2.63C129.65,120.72,125.24,123.66,120.89,123.66z"/>
	</g>
	<g>
		<path class="st1" d="M119.17,151.43c-5.59,0-9.69-4.31-10.36-8.57c-0.6-3.82,1.35-8.52,8.64-10.23c1.08-0.25,2.15,0.41,2.41,1.49
			c0.25,1.08-0.41,2.15-1.49,2.41c-3.99,0.94-6.03,3.02-5.6,5.72c0.43,2.73,3.34,5.46,6.98,5.17c1.1-0.09,2.07,0.73,2.16,1.83
			c0.09,1.1-0.73,2.07-1.83,2.16C119.77,151.42,119.47,151.43,119.17,151.43z"/>
	</g>
	<g>
		<path class="st1" d="M103.94,85.66c-2.88,0-5.29-1.47-6.85-3.3c-3.15-3.69-3.91-9.87,0.26-13.84c0.8-0.76,2.07-0.73,2.83,0.07
			c0.76,0.8,0.73,2.07-0.07,2.83c-2.42,2.3-1.87,6.12,0.03,8.34c0.98,1.14,3.69,3.45,7.85,0.27c0.88-0.67,2.13-0.51,2.8,0.37
			c0.67,0.88,0.51,2.13-0.37,2.8C108.12,84.96,105.92,85.66,103.94,85.66z"/>
	</g>
	<g>
		<path class="st1" d="M115.91,71.97c-0.45,0-0.9-0.15-1.27-0.46c-1.24-1.03-1.66-2.9-1.18-5.28c0.67-3.33,3.16-7.44,7.01-8.59
			c2.26-0.68,5.84-0.6,10.04,3.63c0.78,0.78,0.77,2.05-0.01,2.83c-0.78,0.78-2.05,0.77-2.83-0.01c-2.75-2.77-5.18-3.45-7.23-2.04
			c-2.5,1.72-3.44,5.56-3.13,6.5c0.74,0.72,0.81,1.9,0.14,2.7C117.05,71.72,116.48,71.97,115.91,71.97z M117.33,68.6L117.33,68.6
			L117.33,68.6z M117.18,68.43C117.18,68.43,117.18,68.43,117.18,68.43C117.18,68.43,117.18,68.43,117.18,68.43z"/>
	</g>
	<g>
		<path class="st1" d="M156.3,184.2C156.3,184.2,156.29,184.2,156.3,184.2l-49.69-0.18c-1.1,0-2-0.9-1.99-2.01s0.91-1.99,2.01-1.99
			l49.69,0.18c1.1,0,2,0.9,1.99,2.01C158.3,183.31,157.4,184.2,156.3,184.2z"/>
	</g>
	<g>
		<path class="st1" d="M106.79,207.5c-1.1,0-1.99-0.89-2-1.99l-0.18-23.48c-0.01-1.1,0.88-2.01,1.99-2.02c0.01,0,0.01,0,0.02,0
			c1.1,0,1.99,0.89,2,1.99l0.18,23.48c0.01,1.1-0.88,2.01-1.99,2.02C106.8,207.5,106.79,207.5,106.79,207.5z"/>
	</g>
	<g>
		<path class="st1" d="M156.83,207.5c-1.1,0-1.99-0.89-2-1.99l-0.17-23.17c-0.01-1.1,0.88-2.01,1.99-2.02c0.01,0,0.01,0,0.02,0
			c1.1,0,1.99,0.89,2,1.99l0.17,23.17c0.01,1.1-0.88,2.01-1.99,2.02C156.84,207.5,156.83,207.5,156.83,207.5z"/>
	</g>
	<g>
		<path class="st1" d="M112.21,212.13c-2.86,0-5.13-1.22-6.39-3.44c-0.97-1.7-1.04-3.45-1.04-3.94c0-1.1,0.9-2,2-2s2,0.9,2,2
			c0,0.36,0.11,1.24,0.52,1.97c0.34,0.61,1.02,1.41,2.91,1.41c0,0,0,0,0,0c1.1,0,2,0.9,2,2
			C114.22,211.24,113.32,212.13,112.21,212.13C112.22,212.13,112.21,212.13,112.21,212.13z"/>
	</g>
	<g>
		<path class="st1" d="M150.57,212.13C150.56,212.13,150.56,212.13,150.57,212.13c-1.11,0-2-0.9-2-2c0-1.1,0.9-2,2-2c0,0,0,0,0,0
			c3.63,0,4.22-2.67,4.26-2.91c0.04-1.07,0.92-1.92,2-1.92c1.1,0,2,0.9,2,2c0,0.94-0.52,2.57-1.65,3.95
			C156.1,210.57,154.07,212.13,150.57,212.13z M154.82,205.25c0,0.02,0,0.04,0,0.05C154.82,205.28,154.82,205.27,154.82,205.25z"/>
	</g>
	<g>
		<path class="st1" d="M150.56,212.13h-38.35c-1.1,0-2-0.9-2-2c0-1.1,0.9-2,2-2h38.35c1.1,0,2,0.9,2,2
			C152.56,211.24,151.67,212.13,150.56,212.13z"/>
	</g>
	<g>
		<path class="st1" d="M130.76,220.31c-8.33,0-11.22-6.46-11.58-9.97c-0.11-1.1,0.69-2.08,1.78-2.19c1.1-0.11,2.08,0.68,2.19,1.77
			c0.08,0.68,0.95,6.39,7.62,6.39c0.17,0,0.34,0,0.52-0.01c1.09-0.05,2.04,0.81,2.08,1.91c0.05,1.1-0.81,2.04-1.91,2.08
			C131.23,220.3,131,220.31,130.76,220.31z"/>
	</g>
	<g>
		<path class="st1" d="M132.81,220.36c-0.51,0-1.05-0.02-1.6-0.07c-1.1-0.1-1.91-1.07-1.81-2.17c0.1-1.1,1.07-1.91,2.17-1.81
			c7.89,0.72,8.89-5.67,8.97-6.4c0.13-1.09,1.11-1.88,2.21-1.76c1.09,0.12,1.88,1.1,1.77,2.19
			C144.14,213.94,141.18,220.36,132.81,220.36z"/>
	</g>
	<g>
		<path class="st1" d="M106.78,192.67c-1.1,0-2-0.89-2-2c0-1.1,0.89-2,2-2l50.04-0.09c0,0,0,0,0,0c1.1,0,2,0.89,2,2
			c0,1.1-0.89,2-2,2L106.78,192.67C106.78,192.67,106.78,192.67,106.78,192.67z"/>
	</g>
	<g>
		<path class="st1" d="M106.8,202.88c-1.1,0-2-0.89-2-2c0-1.1,0.89-2,2-2l50.04-0.09c0,0,0,0,0,0c1.1,0,2,0.89,2,2c0,1.1-0.89,2-2,2
			L106.8,202.88C106.8,202.88,106.8,202.88,106.8,202.88z"/>
	</g>
</g>
</svg>
