<?xml version="1.0" encoding="utf-8"?>
<!-- Generator: Adobe Illustrator 24.0.1, SVG Export Plug-In . SVG Version: 6.00 Build 0)  -->
<svg version="1.1" id="Layer_1" xmlns="http://www.w3.org/2000/svg" xmlns:xlink="http://www.w3.org/1999/xlink" x="0px" y="0px"
	 viewBox="0 0 256 256" style="enable-background:new 0 0 256 256;" xml:space="preserve">
<style type="text/css">
	.st0{fill:none;stroke:#699E3C;stroke-width:3;stroke-linecap:round;stroke-miterlimit:10;}
	.st1{fill:none;stroke:#699E3C;stroke-linecap:round;stroke-miterlimit:10;}
	.st2{fill:#FFFFFF;stroke:#699E3C;stroke-width:3;stroke-miterlimit:10;}
	.st3{fill:none;stroke:#699E3C;stroke-width:2;stroke-linecap:round;stroke-miterlimit:10;}
	.st4{fill:#699E3C;stroke:#699E3C;stroke-width:0.25;stroke-miterlimit:10;}
</style>
<g>
	<g>
		<path class="st0" d="M62.51,62.76l126.68,4.79c0,0,15.06,66.76,41.26,84.22c-0.06,0.06-7.59,1.4-19.17,3.43
			c-39.11,6.85-124.45,21.57-124.45,21.57S61.14,76.29,61.14,62.76H62.51z"/>
		<path class="st1" d="M211.27,155.21c0,0,2.1,13.99,4.19,18.1"/>
		<path class="st0" d="M215.46,173.31L78.99,202.96C73.98,157.39,62.55,88.57,62.55,88.57l-1.41-25.81c0,0-3.9,39.16-4.11,42.88
			c-0.64,11.56-0.64,63.94-0.64,63.94s12.33,1.03,17.2-1.8"/>
		<line class="st0" x1="65" y1="169.66" x2="78.99" y2="202.96"/>
		<line class="st1" x1="65.16" y1="86.33" x2="65.16" y2="86.33"/>
		<path class="st0" d="M65.16,86.33c0,0,74.17-3.54,129.31,0.51"/>
		<path class="st0" d="M76.16,61.86c0,0,6.93-9.76,11.68-0.77c4.75,8.98-4.24,11.94-4.24,11.94"/>
		<path class="st0" d="M96.7,61.86c0,0,6.93-9.76,11.68-0.77c4.75,8.98-4.24,11.94-4.24,11.94"/>
		<path class="st0" d="M117.63,62.33c0,0,6.93-10.23,11.68-1.24c4.75,8.98-4.24,11.94-4.24,11.94"/>
		<path class="st0" d="M135.93,63.53c0,0,5.24-8.17,10.21-3.77c7.6,6.74-2.76,12.5-2.76,12.5"/>
		<path class="st0" d="M154.86,64.39c0,0,3.3-8.52,9.07-4.03c8.02,6.24-2.4,11.9-2.4,11.9"/>
		<path class="st0" d="M173.1,65.36c0,0,3.31-11.14,10.01-4.48c4.71,4.67-2.57,11.38-2.57,11.38"/>
		<g>
			<path class="st0" d="M128.76,107.38l1.77,4.31c0.48,1.17,1.76,1.79,2.97,1.45l3.52-0.98c1.13-0.31,1.69-1.58,1.17-2.63
				l-2.99-5.99c-0.5-0.99-1.66-1.45-2.7-1.06l-1.93,0.73C128.9,103.84,128.08,105.73,128.76,107.38z"/>
			<path class="st0" d="M152.05,107.38l1.77,4.31c0.48,1.17,1.76,1.79,2.97,1.45l3.52-0.98c1.13-0.31,1.69-1.58,1.17-2.63
				l-2.99-5.99c-0.5-0.99-1.66-1.45-2.7-1.06l-1.93,0.73C152.19,103.84,151.37,105.73,152.05,107.38z"/>
			<path class="st0" d="M176.53,104.96l1.77,4.31c0.48,1.17,1.76,1.79,2.97,1.45l3.52-0.98c1.13-0.31,1.69-1.58,1.17-2.63
				l-2.99-5.99c-0.5-0.99-1.66-1.45-2.7-1.06l-1.93,0.73C176.67,101.42,175.85,103.31,176.53,104.96z"/>
			<path class="st0" d="M184.84,123.97l1.77,4.31c0.48,1.17,1.76,1.79,2.97,1.45l3.52-0.98c1.13-0.31,1.69-1.58,1.17-2.63
				l-2.99-5.99c-0.5-0.99-1.66-1.45-2.7-1.06l-1.93,0.73C184.98,120.43,184.16,122.32,184.84,123.97z"/>
			<path class="st0" d="M160.79,126.37l1.77,4.31c0.48,1.17,1.76,1.79,2.97,1.45l3.52-0.98c1.13-0.31,1.69-1.58,1.17-2.63
				l-2.99-5.99c-0.5-0.99-1.66-1.45-2.7-1.06l-1.93,0.73C160.93,122.83,160.11,124.72,160.79,126.37z"/>
			<path class="st0" d="M136.17,126.37l1.77,4.31c0.48,1.17,1.76,1.79,2.97,1.45l3.52-0.98c1.13-0.31,1.69-1.58,1.17-2.63
				l-2.99-5.99c-0.5-0.99-1.66-1.45-2.7-1.06l-1.93,0.73C136.31,122.83,135.49,124.72,136.17,126.37z"/>
			<path class="st0" d="M111.54,126.37l1.77,4.31c0.48,1.17,1.76,1.79,2.97,1.45l3.52-0.98c1.13-0.31,1.69-1.58,1.17-2.63
				l-2.99-5.99c-0.5-0.99-1.66-1.45-2.7-1.06l-1.93,0.73C111.68,122.83,110.86,124.72,111.54,126.37z"/>
			<path class="st0" d="M98.22,150.56l1.77,4.31c0.48,1.17,1.76,1.79,2.97,1.45l3.52-0.98c1.13-0.31,1.69-1.58,1.17-2.63l-2.99-5.99
				c-0.5-0.99-1.66-1.45-2.7-1.06l-1.93,0.73C98.36,147.02,97.54,148.9,98.22,150.56z"/>
			<path class="st0" d="M119.33,145.11l1.77,4.31c0.48,1.17,1.76,1.79,2.97,1.45l3.52-0.98c1.13-0.31,1.69-1.58,1.17-2.63
				l-2.99-5.99c-0.5-0.99-1.66-1.45-2.7-1.06l-1.93,0.73C119.47,141.57,118.65,143.46,119.33,145.11z"/>
			<path class="st0" d="M145.23,145.36l1.77,4.31c0.48,1.17,1.76,1.79,2.97,1.45l3.52-0.98c1.13-0.31,1.69-1.58,1.17-2.63
				l-2.99-5.99c-0.5-0.99-1.66-1.45-2.7-1.06l-1.93,0.73C145.37,141.82,144.55,143.71,145.23,145.36z"/>
			<path class="st0" d="M169.58,145.36l1.77,4.31c0.48,1.17,1.76,1.79,2.97,1.45l3.52-0.98c1.13-0.31,1.69-1.58,1.17-2.63
				l-2.99-5.99c-0.5-0.99-1.66-1.45-2.7-1.06l-1.93,0.73C169.73,141.82,168.9,143.71,169.58,145.36z"/>
			<path class="st0" d="M193.56,142.98l1.77,4.31c0.48,1.17,1.76,1.79,2.97,1.45l3.52-0.98c1.13-0.31,1.69-1.58,1.17-2.63
				l-2.99-5.99c-0.5-0.99-1.66-1.45-2.7-1.06l-1.93,0.73C193.7,139.44,192.88,141.33,193.56,142.98z"/>
		</g>
		<circle class="st2" cx="70.98" cy="89.03" r="30.57"/>
		<line class="st3" x1="69.27" y1="72.26" x2="69.27" y2="88.82"/>
		<line class="st3" x1="80.14" y1="88.82" x2="69.27" y2="88.82"/>
	</g>
	<ellipse class="st4" cx="70" cy="61.67" rx="1.35" ry="1.74"/>
	<ellipse class="st4" cx="97.54" cy="87.61" rx="1.35" ry="1.74"/>
	<ellipse class="st4" cx="70" cy="115.91" rx="1.35" ry="1.74"/>
	<ellipse class="st4" cx="43.08" cy="88.39" rx="1.35" ry="1.74"/>
	<ellipse class="st4" cx="47.21" cy="76.34" rx="1.35" ry="1.74"/>
	<ellipse class="st4" cx="82.7" cy="65.96" rx="1.35" ry="1.74"/>
	<ellipse class="st4" cx="92.44" cy="75.63" rx="1.35" ry="1.74"/>
	<ellipse class="st4" cx="94.36" cy="100.6" rx="1.35" ry="1.74"/>
	<ellipse class="st4" cx="55.34" cy="110.79" rx="1.35" ry="1.74"/>
	<ellipse class="st4" cx="48.24" cy="102.06" rx="1.35" ry="1.74"/>
	<ellipse class="st4" cx="84.6" cy="110.26" rx="1.35" ry="1.74"/>
	<ellipse class="st4" cx="55.34" cy="67.12" rx="1.35" ry="1.74"/>
</g>
</svg>
