<?xml version="1.0" encoding="utf-8"?>
<!-- Generator: Adobe Illustrator 24.0.1, SVG Export Plug-In . SVG Version: 6.00 Build 0)  -->
<svg version="1.1" xmlns="http://www.w3.org/2000/svg" xmlns:xlink="http://www.w3.org/1999/xlink" x="0px" y="0px"
	 viewBox="0 0 256 256" style="enable-background:new 0 0 256 256;" xml:space="preserve">
<style type="text/css">
	.st0{fill:none;stroke:#699E3C;stroke-width:6;stroke-linecap:round;stroke-miterlimit:10;}
	.st1{fill:none;stroke:#699E3C;stroke-width:7;stroke-linecap:round;stroke-miterlimit:10;}
	.st2{fill:none;stroke:#699E3C;stroke-width:6;stroke-miterlimit:10;}
	.st3{fill:none;stroke:#699E3C;stroke-width:7;stroke-miterlimit:10;}
	.st4{fill:#699E3C;}
</style>
<g id="Layer_2">
</g>
<g id="Layer_1">
	<g>
		<path class="st0" d="M134.79,117.68"/>
		<path class="st0" d="M126.05,131.71"/>
		<path class="st0" d="M110.26,126.06"/>
		<path class="st0" d="M122.7,131.71"/>
		<path class="st1" d="M138.05,188.36"/>
		<path class="st1" d="M115.82,188.36"/>
		<path class="st2" d="M46.11,52.21l21.84,15.01c4.04,2.78,9.13,3.55,13.81,2.08l47.07-14.71c4.82-1.51,10.07-0.72,14.24,2.13
			l53.66,36.08c3.21,2.2,5.38,5.65,5.87,9.51c0.9,7.12-0.07,17.29-12.48,11.31c-19.06-9.18-36.71-20.82-36.71-20.82
			s11.05-21.47-9.53-18.71c-10.02,1.34-39.18,11.65-39.18,11.65"/>
		<path class="st3" d="M46.11,100.56l29.4,12.55c3.86,1.65,8.08,2.25,12.25,1.72c12-1.51,38.44-6.43,65.64-22.04"/>
		<path class="st2" d="M90.76,181.92c0,0,7.47,24.18,35.94,26.29s36.76-27,36.76-27s12.27-6.45,2.05-14.3
			c-1.33-1.02-2.31-2.43-2.78-4.04c-7.93-27.22-22.42-28.26-37.14-31.03c-0.74-0.14-1.51-0.17-2.25-0.05
			c-22.43,3.53-30.26,24.11-32.12,30.24c-0.33,1.1-0.97,2.08-1.83,2.84C86.05,167.86,79.17,174.98,90.76,181.92L90.76,181.92z"/>
		<path class="st0" d="M126.05,131.71c0,0,1.68-11.65,8.74-14.03"/>
		<path class="st0" d="M122.7,131.71c0,0-3.18-6.8-12.44-5.65"/>
		<circle class="st4" cx="113.7" cy="167.98" r="5.12"/>
		<circle class="st4" cx="139.9" cy="167.98" r="5.12"/>
		<path class="st1" d="M115.81,188.36c0,0,10.68,8.12,22.24,0"/>
	</g>
</g>
</svg>
