<?xml version="1.0" encoding="utf-8"?>
<!-- Generator: Adobe Illustrator 24.0.1, SVG Export Plug-In . SVG Version: 6.00 Build 0)  -->
<svg version="1.1" id="Layer_1" xmlns="http://www.w3.org/2000/svg" xmlns:xlink="http://www.w3.org/1999/xlink" x="0px" y="0px"
	 viewBox="0 0 256 256" style="enable-background:new 0 0 256 256;" xml:space="preserve">
<style type="text/css">
	.st0{fill:none;stroke:#699E3C;stroke-width:5;stroke-miterlimit:10;}
	.st1{fill:#FFFFFF;stroke:#699E3C;stroke-width:3;stroke-miterlimit:10;}
	.st2{fill:#699E3C;}
</style>
<g>
	<circle class="st0" cx="96.76" cy="96.16" r="51.65"/>
	<path class="st1" d="M148,164.18l-24.01-41.95c0,0,1.45-14.1,14.07-6.97c4.9,7.49,13.29,21.81,13.29,21.81s2.07-6.45,10.97-3.74
		c7.1-11.1,19.88-4,19.88-4s7.87-6.97,14.07,1.29c6.2,8.26,8.52,10.58,11.1,19.75s-1.55,17.94,10.58,38.59
		c-1.68,3.49-34.85,20.39-34.85,20.39L163.1,190.9c0,0-8.48-8-29.47-4c-14.54-6.45-1.83-17.55-1.83-17.55L148,164.18z"/>
	<polygon class="st2" points="80.08,93.52 92.6,106.04 118.9,81.08 122.81,86.03 92.34,115.08 75.44,98.42 	"/>
</g>
</svg>
