<?xml version="1.0" encoding="utf-8"?>
<!-- Generator: Adobe Illustrator 24.0.1, SVG Export Plug-In . SVG Version: 6.00 Build 0)  -->
<svg version="1.1" xmlns="http://www.w3.org/2000/svg" xmlns:xlink="http://www.w3.org/1999/xlink" x="0px" y="0px"
	 viewBox="0 0 256 256" style="enable-background:new 0 0 256 256;" xml:space="preserve">
<style type="text/css">
	.st0{fill:#699E3C;}
	.st1{fill:#699E3C;stroke:#FFFFFF;stroke-width:5;stroke-miterlimit:10;}
	.st2{fill:#699E3C;stroke:#FFFFFF;stroke-width:3;stroke-miterlimit:10;}
</style>
<g id="Layer_1">
</g>
<g id="Layer_2">
	<g>
		<path class="st0" d="M104.31,108.16c-8.29-6.1-27.34-18.11-47.02-16.54c9.07,22.47-0.56,47.44-0.56,47.44s-12.77,39.14,34,48.89
			c6.27,1.31,12.85,0.84,18.73-1.7c2.23-0.96,4.32-2.2,5.74-3.8c4.52-5.05,16.12-35.77-3.37-66.28
			C109.85,113.07,107.29,110.35,104.31,108.16z"/>
		<path class="st1" d="M158.32,36.29c0,0-4.19,28.89-23.65,48.14s-27,43.12-27,43.12s-11.93,30.98,13.61,52.54
			s55.05-1.88,55.05-1.88s29.3-21.56,23.86-59.65C194.74,80.45,158.32,36.29,158.32,36.29z"/>
		<path class="st2" d="M93.49,162.99c0,0,7.67,17.02,9.77,41.3c35.86-26.23,42.42-69.91,42.42-69.91s-19.4,36.84-37.82,46.89
			C101.3,167.6,93.49,162.99,93.49,162.99z"/>
	</g>
</g>
</svg>
