<?xml version="1.0" encoding="utf-8"?>
<!-- Generator: Adobe Illustrator 24.0.1, SVG Export Plug-In . SVG Version: 6.00 Build 0)  -->
<svg version="1.1" xmlns="http://www.w3.org/2000/svg" xmlns:xlink="http://www.w3.org/1999/xlink" x="0px" y="0px"
	 viewBox="0 0 256 256" style="enable-background:new 0 0 256 256;" xml:space="preserve">
<style type="text/css">
	.st0{fill:#699E3C;}
	.st1{fill:#FFFFFF;}
	.st2{fill:none;stroke:#FFFFFF;stroke-width:3;stroke-miterlimit:10;}
	.st3{fill:none;stroke:#FFFFFF;stroke-width:2;stroke-miterlimit:10;}
</style>
<g id="Layer_2">
</g>
<g id="Layer_1">
	<g>
		<polygon class="st0" points="86.42,118.28 28.79,118.17 29.4,191 88.38,190.37 229.4,188.55 229.53,114.83 170.71,113.97 
			170.59,106.49 178.95,106.45 129.28,52.09 79.66,106.7 86.74,106.61 		"/>
		<g>
			<polygon class="st1" points="172.25,189.28 170.71,113.97 175.01,113.95 176.06,189.23 			"/>
		</g>
		<line class="st2" x1="84.54" y1="118.27" x2="84.97" y2="190.4"/>
		
			<ellipse transform="matrix(1.877901e-03 -1 1 1.877901e-03 44.8096 212.1147)" class="st3" cx="128.66" cy="83.61" rx="10.63" ry="10.7"/>
		
			<rect x="96.96" y="117.24" transform="matrix(1.877901e-03 -1 1 1.877901e-03 -19.6997 224.6985)" class="st3" width="11.5" height="9.96"/>
		<polygon class="st3" points="125.05,116.56 125.03,125.72 135.65,125.74 135.67,116.95 		"/>
		<polygon class="st3" points="150.29,117.46 150.27,124.86 158.2,124.55 158.22,117.16 		"/>
		<polygon class="st3" points="151.54,135.2 151.53,144.72 159.7,144.74 159.72,134.47 151.55,134.45 		"/>
		
			<rect x="151.97" y="165.65" transform="matrix(1.877901e-03 -1 1 1.877901e-03 -10.8811 324.9906)" class="st3" width="10.79" height="4.6"/>
		<polygon class="st3" points="99.45,164.28 99.81,175.63 105.14,175.64 105.16,164.29 		"/>
		
			<rect x="99" y="137.08" transform="matrix(1.877901e-03 -1 1 1.877901e-03 -37.2179 242.8442)" class="st3" width="8.09" height="5.97"/>
		<polygon class="st3" points="117.39,136.42 117.38,143 124.01,143.01 124.02,136.06 117.39,136.05 		"/>
		<polygon class="st3" points="134.38,135.35 134.37,141.89 141.72,141.91 141.73,135.09 		"/>
		<polygon class="st3" points="62.52,129 62.5,138.45 73.47,138.47 73.49,128.22 62.52,128.19 		"/>
		<polygon class="st3" points="63.57,164.34 63.55,172.26 72.3,171.9 72.31,163.29 63.57,163.66 		"/>
		<polygon class="st3" points="40.94,164 40.92,172.4 51.17,171.76 50.52,163.06 		"/>
		<polygon class="st3" points="39.85,130.05 39.83,139.05 49.44,139.07 49.46,129.38 39.85,129.05 		"/>
		<polygon class="st3" points="181.49,127.69 182.09,138.3 192.85,137.63 192.87,126.72 181.47,126.7 		"/>
		<polygon class="st3" points="206.67,127.37 206.64,139.7 217.57,139.2 218.12,128 		"/>
		<polygon class="st3" points="207.95,162.37 207.93,171.22 216.68,170.9 216.7,161.63 		"/>
		<polygon class="st3" points="184.02,160.9 184,171.84 192.34,171.86 192.36,161.2 		"/>
		<path class="st2" d="M114.63,190.02l0.06-29.63c0,0-0.77-9.2,5.46-9.13c6.57,0.07,21.89-0.01,21.89-0.01h0
			c1.71,0.58,3.21,2.51,3.18,5.08c-0.01,0.56,0.01,4.12,0.01,4.68l-0.38,28.87"/>
		<line class="st2" x1="128.65" y1="151.54" x2="128.59" y2="181.82"/>
		<line class="st2" x1="144.37" y1="170.04" x2="137.86" y2="165.45"/>
		<line class="st2" x1="144.68" y1="179.8" x2="136.16" y2="172.32"/>
		<g>
			<polygon class="st1" points="86.67,109.13 86.74,106.61 170.59,106.49 170.63,108.92 			"/>
		</g>
	</g>
</g>
</svg>
