<?xml version="1.0" encoding="utf-8"?>
<!-- Generator: Adobe Illustrator 24.0.1, SVG Export Plug-In . SVG Version: 6.00 Build 0)  -->
<svg version="1.1" id="Layer_1" xmlns="http://www.w3.org/2000/svg" xmlns:xlink="http://www.w3.org/1999/xlink" x="0px" y="0px"
	 viewBox="0 0 256 256" style="enable-background:new 0 0 256 256;" xml:space="preserve">
<style type="text/css">
	.st0{fill:#699E3C;}
</style>
<g>
	<circle class="st0" cx="131.15" cy="41.16" r="9.64"/>
	<path class="st0" d="M131.15,60.08l5.93-6.13c0,0,10.4-1.46,11.44,10.5s0,22.87,0,22.87s-1.98,3.33-5.61,3.22
		c-0.1,3.22-0.21,11.23-0.21,11.23s-10.95-9.06-23.13,0.32c-0.43-0.21,0.14-7.75-0.12-11.34c0,0-4.72,0-6.07-3.53
		c0-3.33,0-24.01,0-24.01s1.46-9.99,11.85-9.31C127.92,56.34,131.15,60.08,131.15,60.08z"/>
	<g>
		<path class="st0" d="M112.58,142.97c0,0,0.76-10.8,18.56-10.32c17.81,0.47,18.99,10.89,18.99,10.89s3.41,0.14,3.74,3.88
			c0.29,3.36,0,13.45,0,13.45h-3.6l-0.38-12.6l-0.19-0.76l-36.46-0.19l-0.66-0.09v13.64h-4.55v-14.12
			C108.04,146.75,108.46,143.16,112.58,142.97z"/>
	</g>
	<g>
		<circle class="st0" cx="182.86" cy="106.69" r="10.73"/>
		<path class="st0" d="M164.3,130.89c0,0,0.76-10.8,18.56-10.32c17.81,0.47,18.99,10.89,18.99,10.89s3.41,0.14,3.74,3.88
			c0.29,3.36,0,13.45,0,13.45h-3.6l-0.38-12.6l-0.19-0.76l-36.46-0.19l-0.66-0.09v13.64h-4.55v-14.12
			C159.75,134.67,160.18,131.08,164.3,130.89z"/>
	</g>
	<g>
		<circle class="st0" cx="79.72" cy="106.69" r="10.73"/>
		<path class="st0" d="M61.16,130.89c0,0,0.76-10.8,18.56-10.32c17.81,0.47,18.99,10.89,18.99,10.89s3.41,0.14,3.74,3.88
			c0.29,3.36,0,13.45,0,13.45h-3.6l-0.38-12.6l-0.19-0.76l-36.46-0.19l-0.66-0.09v13.64h-4.55v-14.12
			C56.61,134.67,57.04,131.08,61.16,130.89z"/>
	</g>
	<g>
		<circle class="st0" cx="90.57" cy="165.51" r="10.73"/>
		<path class="st0" d="M72.01,189.71c0,0,0.76-10.8,18.56-10.32c17.81,0.47,18.99,10.89,18.99,10.89s3.41,0.14,3.74,3.88
			c0.29,3.36,0,13.45,0,13.45h-3.6l-0.38-12.6l-0.19-0.76l-36.46-0.19l-0.66-0.09v13.64h-4.55v-14.12
			C67.46,193.49,67.89,189.9,72.01,189.71z"/>
	</g>
	<g>
		<circle class="st0" cx="169.13" cy="165.51" r="10.73"/>
		<path class="st0" d="M150.57,189.71c0,0,0.76-10.8,18.56-10.32c17.81,0.47,18.99,10.89,18.99,10.89s3.41,0.14,3.74,3.88
			c0.29,3.36,0,13.45,0,13.45h-3.6l-0.38-12.6l-0.19-0.76l-36.46-0.19l-0.66-0.09v13.64h-4.55v-14.12
			C146.03,193.49,146.45,189.9,150.57,189.71z"/>
	</g>
	<g>
		<circle class="st0" cx="131.15" cy="118.91" r="10.73"/>
	</g>
</g>
</svg>
