<?xml version="1.0" encoding="utf-8"?>
<!-- Generator: Adobe Illustrator 24.0.1, SVG Export Plug-In . SVG Version: 6.00 Build 0)  -->
<svg version="1.1" id="Layer_1" xmlns="http://www.w3.org/2000/svg" xmlns:xlink="http://www.w3.org/1999/xlink" x="0px" y="0px"
	 viewBox="0 0 256 256" style="enable-background:new 0 0 256 256;" xml:space="preserve">
<style type="text/css">
	.st0{fill:none;stroke:#699E3C;stroke-miterlimit:10;}
	.st1{fill:none;stroke:#699E3C;stroke-linecap:round;stroke-miterlimit:10;}
	.st2{fill:#FFFFFF;stroke:#699E3C;stroke-miterlimit:10;}
	.st3{stroke:#699E3C;stroke-miterlimit:10;}
	.st4{fill:#699E3C;stroke:#699E3C;stroke-miterlimit:10;}
	.st5{fill:#699E3C;stroke:#699E3C;stroke-width:0.25;stroke-miterlimit:10;}
</style>
<g>
	<path class="st0" d="M116.42,136.77c0,0-14.69-14.38-32.88-6.99c-20.59,8.36-23.05,11.14-23.05,11.14l-5.13,19.99l-0.55,8.19
		l-1.53,5.46c0,0-1.09,14.86,8.19,10.16c2.51,3.39,6.55,9.94,15.84,8.74c5.9,5.35,11.03,12.13,19.66,12.24c0,0,3.28,0,6.88-5.46
		c6.99,16.6,19.15,2.35,19.15,2.35s4.19,4.97,9.83,0.16c12.31,13.69,19.54-1.15,19.54-1.15s3.18,5.03,4.13,5.3
		c1.01,0.29,3.61,2.4,10.27-1.75s11.41-6.6,12.13-7.21c0.69-0.58,11.58,1.97,16.6-8.08c11.58,5.24,8.05-13.56,8.41-13.98
		c0.44-0.51-0.33-13.22-0.33-13.22l-3.5-16.17c0,0-7.97-8.3-23.71-14.31c-15.73-6.01-29.17,2.95-30.15,4.26
		c-0.98,1.31-8.67,2.26-8.67,2.26l-5.54-2.04l-5.61-0.07l-1.75,0.51C124.68,137.1,118.56,134.84,116.42,136.77z"/>
	<path class="st0" d="M53.73,172.94c0,0,2.6-7.59,8.25-4.84c-0.07,3.22-3.35,7.3-3.35,7.3s-3.38,5.46-2.77,7.65
		c0.61,2.18,0.82,2.06,0.82,2.06l-0.69-0.19"/>
	<path class="st0" d="M61.41,184.45c0,0,3.26-8.25,21.03-18.37c4.88-2.4,7.06-3.86,7.06-3.86s10.85-11.07,19.74-8.67
		c0.29,0.1,0.57,0.2,0.84,0.3c4.54,1.71,5.2,3.12,5.2,3.12l0.51,0.87c0,0-4.08,7.28-10.78,8.96c-6.7,1.68-5.55-6.51-5.48-6.72
		c0.6-1.72,2.15-6.31,8.7-6.75"/>
	<line class="st1" x1="104.2" y1="166.97" x2="77.34" y2="191.32"/>
	<path class="st1" d="M77.43,193.23c0,0-0.33-1.53-0.09-1.91"/>
	<path class="st1" d="M115.5,156.84c0,0,2.26-1.66,4.59-0.78"/>
	<path class="st1" d="M103.89,199.88c0,0,4.92-13.66,15.18-25.24"/>
	<path class="st1" d="M123.19,182.65c-5.3-6.53-4.26-12.13-4.26-12.13s4.01-4.51,8.63-2.06c5.65,6.98,5.06,11.71,5.06,11.71
		s-0.91,2.76-2.47,3.3c-1.56,0.55-3.66-1.28-3.66-1.28s-6.39-6.26-7.65-10.41"/>
	<g>
		<path class="st1" d="M118.74,171.13c-0.12-0.09-5.95-0.79-4.28-7.12c2.7-7.05,5.84-7.81,5.84-7.81s5.87-1.83,9.45,1.23
			c-1.45,2.13-0.19,4.83-0.19,4.83s6.47,17.15,14.88,6.58c0.44-10.54-6.77-12.64-6.77-12.64s-4.89-0.29-7.95,1.28"/>
		<path class="st1" d="M129.57,162.5c0,0-2.43,4.79-3.5,5.24"/>
		<path class="st1" d="M127.01,168.26c0,0,11.35-2.05,25.37,33.15"/>
	</g>
	<path class="st1" d="M123.08,202.39c0,0-10.02-12.83-4.23-18.82c5.33-5.51,19.96,13.52,14.12,18.82"/>
	<path class="st1" d="M119.86,185.4c0,0-2.32,0.89-0.78,5.83c1.83,5.88,6.9,2.05,6.9,2.05s1.91-4.56-1.09-7.16
		C122.12,184.25,119.86,185.4,119.86,185.4z"/>
	<path class="st2" d="M128.93,164.24c0,0-0.55,4.03-1.06,3.95c-0.51-0.08,3.86,0.69,4.1,1.06c0.24,0.38-1.95-3.78-2.04-5.33
		C129.85,162.38,128.93,164.24,128.93,164.24z"/>
	<path class="st3" d="M138.5,156.14"/>
	<path class="st0" d="M144.24,157.71c0,0,2-1.55,6.37-2.31c4.37-0.76,9.45,6.72,9.45,6.72s1.75,7.32-4.92,6.77
		c-5.84-1.15-10.88-8.79-10.9-8.85C144.22,159.98,143.66,158.65,144.24,157.71z"/>
	<path class="st1" d="M154.81,168.92l24.31,25.21c0,0,1.64,1.73,0.04,3.53"/>
	<path class="st1" d="M152.12,155.34c0,0,7.39-1.52,17.6,9.78c11.69,6.67,24.93,20.39,25.75,24.59"/>
	<path class="st1" d="M204,177.7c0,0-3.13-6.88-7.29-4.37c-1.78,1.82,3.2,8.63,3.2,8.63s3.05,5.09,2.46,6.86"/>
	<path class="st4" d="M185.46,176.9l0.15-3.24c0,0,2-0.66,1.27-2.77c0.84-1.6-0.15-2.78-0.15-2.78s0.8-1.12,0.15-2.25
		c1.27-1.2,0.34-2.51,0.34-2.51s0.19-1.89-0.64-2.44c0.97-1.24-0.17-2.62-0.17-2.62s0.84-1.38-0.33-2.26
		c0.47-1.53-0.84-2.59-0.84-2.59s-1.75-0.04-1.97-0.8c-0.22-0.76-1.24-0.84-0.91-2.29c0.33-1.46-1.71-0.98-1.71-0.98
		s0.36-2.66-2.26-2.04c-1.13-2.99-3.86-1.53-3.86-1.53s-2.51-1.97-4.7,0.44c-1.82-1.57-3.75-0.47-3.75-0.47s-0.87-2.77-3.24-1.06
		c-2.26-1.46-3.57,0.69-3.57,0.69s-1.13-3.57-4.33-2.33c-3.2,1.24-3.61-1.97-3.61-1.97s-3.24-0.84-5.57-0.36
		c-2.22-1.38-8.19-2.04-8.19-2.04l-9.69-2.09l-11.93-0.26c0,0-3.58,0.6-3.62,1.51c-0.04,0.91-0.76-2.77-4.01-1.89
		c-3.24,0.87-6.45-0.62-6.45-0.62s-2.62-1.42-4.22,2.55c-1.6,3.97-3.02,2.69-3.02,2.69s-2.84,0.62-2.77,2.11
		c-1.17-0.51-2.8,0.22-2.8,0.22s-1.49-0.47-1.53,1.06c-2.11,0.29-2.11,1.97-2.11,1.97s-2.33,0.55-1.38,2.55
		c-1.46,0.47-1.13,1.89-1.13,1.89s-0.25,1.17-0.73,1.02c-0.47-0.15-1.86-1.13-2.48,0.87c-1.86-0.33-2.29,1.27-2.29,1.27
		s-2.73,0.58-1.97,2.62c0.76,2.04-0.29,1.78-0.29,1.78s-1.97,0.98-1.06,3.35c-1.13,1.35-0.22,2.68-0.4,2.65
		c-0.18-0.03-1.24,2.59,0.8,2.99c-1.24,2,1.13,3.06,1.13,3.06l7.14-4.41l3.5-1.86l2.53-1.53l1.22-0.84l2.77-2.51l2.4-1.68l2.95-1.82
		l2.95-1.35l2.22-0.81l2.4-0.39l1.38-0.07l1.35,0.25l0.84,0.2l1.35,0.63l1.53,0.66l1.31,0.62l1.42,0.74l0.66,0.52l0.95-0.71
		l0.29,0.19l1.2-0.21l1.89,0.21l0.95-0.21c0,0,1.31,0.16,1.42,0c0.11-0.16,1.09-0.2,1.09-0.2h0.76c0,0,0.33,0,0.55,0
		c0.22,0,0.51,0.29,0.69,0.2c0.18-0.09,1.07,0.21,1.07,0.21h1.42l0.49,0.52l0.99,0.38l0.59,0.22l1.18-0.56l1.27-0.04l1.46-0.24
		l2.4-0.15l2.29,0.07l1.57,0.31l1.99,0.47l2.01,0.75l3.29-1.39l3.71-0.94l1.89-0.15l2.47,0.42l4.9,1.87l2.33,1.42l4.1,3.3l2.55,2.56
		l2.41,1.63l4.57,3.04l2.38,1.75l3.23,2.54L185.46,176.9z"/>
	<g>
		<path class="st5" d="M126.49,139.51c0,0-1.01-21.57-1.01-22.04s0.31-14.36,0.5-15.05c0.19-0.7-2.41-8.21-6.43-12.36
			c-1.88-1.76-10.24-12.96-21.62-12.42c12.42,1.45,23.38,16.92,23.38,16.92S110.09,98.07,99.59,90c-7.57-6.86-9.36-10.5-9.36-10.5
			s-5.17-7.6-7.81-7.66c1.45-0.57,23.59-9.57,34.45,7.5c3.81,8.04,5.19,9.97,5.19,9.97s1.6,2.4,5.11,6.94
			c1.03-0.93,3.58-17.47,3.72-23.38c0.09-3.67-0.87-12.34-1.55-14.59c-0.64-2.13-1.97-8.17-7.24-12
			c9.88,11.64,6.36,33.01,6.36,33.01s-22.66-10.45-11.74-44.23c37.95,14.98,16.68,40.35,16.68,40.35l-1.94,11.87
			c0,0-2.48,9.54-2.64,22.94c1.29-3.52,5.85-13.86,5.85-13.86s3.57-23.85,23.85-27.01c14.38-1.03,16.4,0,16.4,0
			s-2.9,0.93-8.02,12.11c-10.3,24.31-31.3,21.68-31.3,21.68s8.07-18.99,22.97-24.06c-14.54,2.28-23.54,21.31-23.54,21.31
			s-5.23,9.31-5.54,18.93c0.06,9.78,0.72,20.38,0.72,20.38L126.49,139.51z"/>
	</g>
</g>
</svg>
