<?xml version="1.0" encoding="utf-8"?>
<!-- Generator: Adobe Illustrator 24.0.1, SVG Export Plug-In . SVG Version: 6.00 Build 0)  -->
<svg version="1.1" xmlns="http://www.w3.org/2000/svg" xmlns:xlink="http://www.w3.org/1999/xlink" x="0px" y="0px"
	 viewBox="0 0 256 256" style="enable-background:new 0 0 256 256;" xml:space="preserve">
<style type="text/css">
	.st0{fill:none;stroke:#699E3C;stroke-width:4;stroke-linecap:round;stroke-miterlimit:10;}
	.st1{fill:#699E3C;stroke:#699E3C;stroke-width:4;stroke-linecap:round;stroke-miterlimit:10;}
</style>
<g id="Layer_1">
</g>
<g id="Layer_2">
	<g>
		<path class="st0" d="M206.36,120.31c0,41.49-33.64,75.13-75.13,75.13s-75.13-33.64-75.13-75.13s33.64-75.13,75.13-75.13"/>
		<line class="st0" x1="131.24" y1="45.18" x2="131.24" y2="120.31"/>
		<line class="st0" x1="206.36" y1="120.31" x2="131.24" y2="120.31"/>
		<path class="st1" d="M131.24,120.31l-67.01,34.01c0,0,27.46,59.69,98.94,34.01L131.24,120.31"/>
		<line class="st0" x1="131.24" y1="93.67" x2="149.34" y2="93.4"/>
		<line class="st0" x1="149.88" y1="82.74" x2="150.02" y2="120.31"/>
		<line class="st0" x1="166.91" y1="68.41" x2="167.83" y2="120.31"/>
		<line class="st0" x1="184.88" y1="56.65" x2="184.88" y2="119.35"/>
		<line class="st0" x1="202.31" y1="56.79" x2="202.31" y2="120.31"/>
		<line class="st0" x1="149.95" y1="81.78" x2="167.14" y2="81.78"/>
		<line class="st0" x1="166.91" y1="68.41" x2="184.88" y2="68.41"/>
		<line class="st0" x1="184.88" y1="56.65" x2="202.31" y2="56.65"/>
	</g>
</g>
</svg>
