<?xml version="1.0" encoding="utf-8"?>
<!-- Generator: Adobe Illustrator 24.0.1, SVG Export Plug-In . SVG Version: 6.00 Build 0)  -->
<svg version="1.1" id="Layer_1" xmlns="http://www.w3.org/2000/svg" xmlns:xlink="http://www.w3.org/1999/xlink" x="0px" y="0px"
	 viewBox="0 0 256 256" style="enable-background:new 0 0 256 256;" xml:space="preserve">
<style type="text/css">
	.st0{fill:#699E3C;}
	.st1{fill:#FFFFFF;}
	.st2{fill:#FFFFFF;stroke:#699E3C;stroke-width:5;stroke-miterlimit:10;}
</style>
<g>
	<path class="st0" d="M81.54,48.11c0,0-28.32,3.73-27.01,32.06H72.1l0.66,100.56c0,0,1.54,17.56,18.22,17.78s88.26,0,88.26,0
		s23.49,1.32,25.25-32.06c-26.35-0.88-99.24-0.22-99.24-0.22s-3.73,26.13-15.15,15.81c-5.05-6.15-3.51-40.18-3.51-40.18L86.37,72.7
		c0,0-0.66-7.68-4.83-10.98h83.65c0,0,8.7,1.39,7.47,22.78c0,0.03,0,0.06,0,0.1c0.66,23.29,0.22,70.65,0.22,70.65l13.17,0.22
		l0.44-86.95c0,0-2.63-18.66-19.54-20.42C149.82,47.33,81.54,48.11,81.54,48.11z"/>
	<path class="st0" d="M123.53,76.98c0,0,4.67-7.03,11.09-0.93c8.07-2.96,8.67,4.67,8.67,4.67s5.05-0.66,2.96,5.32
		c4.83,2.91,1.54,8.34,1.54,8.34s3.57,5.38-2.63,6.59c-1.7,7.41-6.09,6.09-6.09,6.09s-2.2,5.93-6.86,1.76
		c-4.01,4.61-6.86-1.37-6.86-1.37s-9.22,4.94-8.84-4.23c-6.04,0.44-4.89-5.65-4.89-5.65s-6.09-5.49,0.77-8.12
		c-2.74-5.54,2.96-6.81,2.96-6.81S114.52,73.08,123.53,76.98z"/>
	<polygon class="st1" points="122.69,90.3 126.26,94.04 135.26,85.04 137.62,87.67 126.64,99.09 120.39,92.88 	"/>
	<line class="st2" x1="105.58" y1="121.11" x2="153.44" y2="120.67"/>
	<line class="st2" x1="110.74" y1="130.12" x2="150.46" y2="129.76"/>
	<line class="st2" x1="107.29" y1="140.88" x2="157.58" y2="140.42"/>
</g>
</svg>
