<?xml version="1.0" encoding="utf-8"?>
<!-- Generator: Adobe Illustrator 24.0.1, SVG Export Plug-In . SVG Version: 6.00 Build 0)  -->
<svg version="1.1" id="Layer_1" xmlns="http://www.w3.org/2000/svg" xmlns:xlink="http://www.w3.org/1999/xlink" x="0px" y="0px"
	 viewBox="0 0 256 256" style="enable-background:new 0 0 256 256;" xml:space="preserve">
<style type="text/css">
	.st0{fill:none;stroke:#699E3C;stroke-width:5;stroke-miterlimit:10;}
	.st1{fill:none;stroke:#699E3C;stroke-width:5;stroke-linecap:round;stroke-miterlimit:10;}
</style>
<g>
	<circle class="st0" cx="142.62" cy="82.58" r="21.81"/>
	<path class="st1" d="M154.77,114.67l21.27,5.65c0,0,25.12,20.19,27.52,30.65c2.4,10.46,1.32,19.59,1.32,19.59H160.3
		c0,0-12.5-4.57-1.92-13.58c11.06-0.84,30.05-4.09,30.05-4.09"/>
	<line class="st1" x1="171.35" y1="139.43" x2="184.03" y2="153.62"/>
	<line class="st1" x1="34.7" y1="183.18" x2="217.75" y2="183.06"/>
	<polyline class="st1" points="131.87,172.48 61.26,171.64 44.55,114.67 106.33,114.07 110.59,126.43 122.2,160.11 155.21,160.49 	
		"/>
	<line class="st1" x1="79.65" y1="73.69" x2="79.77" y2="91.48"/>
	<line class="st1" x1="97.08" y1="98.45" x2="111.14" y2="85.71"/>
	<line class="st1" x1="62.58" y1="97.61" x2="48.16" y2="84.99"/>
</g>
</svg>
