<?xml version="1.0" encoding="utf-8"?>
<!-- Generator: Adobe Illustrator 24.0.1, SVG Export Plug-In . SVG Version: 6.00 Build 0)  -->
<svg version="1.1" id="Layer_1" xmlns="http://www.w3.org/2000/svg" xmlns:xlink="http://www.w3.org/1999/xlink" x="0px" y="0px"
	 viewBox="0 0 256 256" style="enable-background:new 0 0 256 256;" xml:space="preserve">
<style type="text/css">
	.st0{fill:none;stroke:#699E3C;stroke-width:7;stroke-linecap:round;stroke-miterlimit:10;}
	.st1{fill:none;stroke:#699E3C;stroke-width:5;stroke-linecap:round;stroke-miterlimit:10;}
	.st2{fill:none;stroke:#699E3C;stroke-width:3;stroke-linecap:round;stroke-miterlimit:10;}
</style>
<g>
	<g>
		<g>
			<path class="st0" d="M95.62,157.26h66.82h0.08c2.04,0,3.69,1.65,3.69,3.69v34.43v3.76l4.84,10.92c0.93,2.11-0.61,4.49-2.92,4.49
				H90.31c-1.86,0-3.15-1.84-2.53-3.59l4.31-12.06l0.11-38.24C92.21,158.79,93.74,157.26,95.62,157.26L95.62,157.26z"/>
		</g>
		<line class="st0" x1="92.09" y1="198.91" x2="166.21" y2="199.14"/>
	</g>
	<g>
		<line class="st1" x1="129.17" y1="95.14" x2="129.41" y2="140.9"/>
		<line class="st1" x1="136.78" y1="102.43" x2="129.17" y2="95.14"/>
		<line class="st1" x1="122.2" y1="102.67" x2="129.17" y2="95.14"/>
		<line class="st1" x1="129.41" y1="140.9" x2="136.78" y2="133.61"/>
		<line class="st1" x1="122.04" y1="133.77" x2="129.41" y2="140.9"/>
	</g>
	<path class="st2" d="M128.08,37.51l0.89,41.34c0.02,0.97-0.09,1.6,0.79,1.2c4.78-2.18,18.97-7.43,29.27-4.71
		c0.5-4.28,0.4-46.49,0.4-46.49S142.82,25.17,128.08,37.51z"/>
	<path class="st2" d="M128.08,37.51c-15.52-12.24-31.56-8.66-31.56-8.66v46.59c0,0,14.09-5.72,32.5,4.74"/>
	<line class="st2" x1="96.52" y1="32.97" x2="90.48" y2="33.43"/>
	<line class="st2" x1="90.12" y1="81.55" x2="90.48" y2="33.43"/>
	<line class="st2" x1="126.59" y1="82.47" x2="88.38" y2="81.82"/>
	<line class="st2" x1="168.29" y1="82.09" x2="125.85" y2="82.46"/>
	<line class="st2" x1="166.2" y1="33.56" x2="166.77" y2="81.95"/>
	<line class="st2" x1="159.44" y1="33.2" x2="166.2" y2="33.56"/>
	<line class="st2" x1="167.83" y1="39.8" x2="168.15" y2="80.91"/>
	<line class="st2" x1="88.21" y1="36.72" x2="88.38" y2="81.82"/>
	<line class="st2" x1="122.41" y1="84.72" x2="136.16" y2="84.61"/>
</g>
</svg>
