<?xml version="1.0" encoding="utf-8"?>
<!-- Generator: Adobe Illustrator 24.0.1, SVG Export Plug-In . SVG Version: 6.00 Build 0)  -->
<svg version="1.1" xmlns="http://www.w3.org/2000/svg" xmlns:xlink="http://www.w3.org/1999/xlink" x="0px" y="0px"
	 viewBox="0 0 256 256" style="enable-background:new 0 0 256 256;" xml:space="preserve">
<style type="text/css">
	.st0{fill:#699E3C;}
	.st1{fill:none;stroke:#699E3C;stroke-width:5;stroke-linecap:round;stroke-miterlimit:10;}
	.st2{fill:none;stroke:#699E3C;stroke-width:5;stroke-miterlimit:10;}
</style>
<g id="Layer_1">
</g>
<g id="Layer_2">
	<g>
		<circle class="st0" cx="194.4" cy="73.08" r="13.21"/>
		<circle class="st0" cx="64.26" cy="73.08" r="13.21"/>
		<path class="st0" d="M67.86,92.29l15.13,16.81l14.65-2.16c0,0,10.56,2.16,3.6,11.28c-6.96,2.88-17.77,4.48-17.77,4.48
			s-6-0.16-7.44-2.8c-1.44-2.64-3.84-3.84-3.84-3.84l0.24,19.93h23.77c0,0,12.01,1.2,9.12,13.69c0.45,14.41,0.45,27.13,0.45,27.13
			s-0.21,8.64-8.37,8.64s-8.16-6-8.16-6l-0.24-27.61l-21.13-0.24c0,0-12.01,1.44-12.01-7.68c0-9.12,0-44.42,0-44.42
			S56.81,88.69,67.86,92.29z"/>
		<path class="st0" d="M191.24,92.29l-15.13,16.81l-14.65-2.16c0,0-10.56,2.16-3.6,11.28c6.96,2.88,17.77,4.48,17.77,4.48
			s6-0.16,7.44-2.8c1.44-2.64,3.84-3.84,3.84-3.84l-0.24,19.93h-23.77c0,0-12.01,1.2-9.12,13.69c-0.45,14.41-0.45,27.13-0.45,27.13
			s0.21,8.64,8.37,8.64c8.16,0,8.16-6,8.16-6l0.24-27.61l21.13-0.24c0,0,12.01,1.44,12.01-7.68c0-9.12,0-44.42,0-44.42
			S202.28,88.69,191.24,92.29z"/>
		<g>
			<line class="st1" x1="47.93" y1="123.51" x2="48.16" y2="159.28"/>
			<line class="st1" x1="81.91" y1="159.64" x2="48.16" y2="159.28"/>
			<line class="st2" x1="63.3" y1="166.6" x2="63.3" y2="182.93"/>
			<line class="st1" x1="43.13" y1="182.93" x2="81.79" y2="182.93"/>
		</g>
		<g>
			<line class="st1" x1="211.24" y1="123.51" x2="211.01" y2="159.28"/>
			<line class="st1" x1="177.27" y1="159.64" x2="211.01" y2="159.28"/>
			<line class="st2" x1="195.88" y1="166.6" x2="195.88" y2="182.93"/>
			<line class="st1" x1="216.04" y1="182.93" x2="177.39" y2="182.93"/>
		</g>
		<line class="st1" x1="94.99" y1="130.23" x2="165.34" y2="129.99"/>
		<line class="st1" x1="116.6" y1="137.79" x2="116.96" y2="183.77"/>
		<line class="st1" x1="141.93" y1="137.91" x2="142.65" y2="184.37"/>
	</g>
</g>
</svg>
