<?xml version="1.0" encoding="utf-8"?>
<!-- Generator: Adobe Illustrator 24.0.1, SVG Export Plug-In . SVG Version: 6.00 Build 0)  -->
<svg version="1.1" id="Layer_1" xmlns="http://www.w3.org/2000/svg" xmlns:xlink="http://www.w3.org/1999/xlink" x="0px" y="0px"
	 viewBox="0 0 256 256" style="enable-background:new 0 0 256 256;" xml:space="preserve">
<style type="text/css">
	.st0{fill:#699E3C;}
</style>
<g>
	<g>
		<path class="st0" d="M73.63,92.86c0,0,6.4,18.66,6.93,24.88c9.06,2.84,39.8,30.56,39.8,30.56S95.13,99.97,73.63,92.86z"/>
	</g>
	<g>
		<path class="st0" d="M185.19,92.34c0,0-6.4,18.66-6.93,24.88c-9.06,2.84-39.8,30.56-39.8,30.56S163.69,99.45,185.19,92.34z"/>
	</g>
	<g>
		<path class="st0" d="M37.43,102.55c0,0,30.92,0,82.33,50.58c-27.84-16.82-74.98-26.06-74.98-26.06S39.92,108.71,37.43,102.55z"/>
	</g>
	<g>
		<path class="st0" d="M220.79,103.29c0,0-30.92,0-82.33,50.58c27.84-16.82,74.98-26.06,74.98-26.06S218.3,109.44,220.79,103.29z"/>
	</g>
	<path class="st0" d="M12.68,129.82c0,0,49.75-5.51,116.56,34.65c60.41-36.63,117.05-34.9,117.05-34.9s-84.05,13.23-116.81,44.32
		C99.07,143.06,12.68,129.82,12.68,129.82z"/>
	<path class="st0" d="M118.62,124.37c0,0,18.36,0.77,22.86,0c2.7-0.46,0-6.28,1.18-10.9c1.18-4.62,9.22-16.45,9.6-16.82
		c0.44-0.44,8.65-20.37-3.79-30.21c-7.69-6.59-16.82-6.14-19.21-6.35c-3.25-0.28-4.77-0.06-6.8,0.29
		c-6.71,1.15-17.11,4.4-19.72,19.09s8.7,22.68,11.9,30.15c3.14,7.31,0.34,6.22,1.6,12.85C116.66,124.63,118.62,124.37,118.62,124.37
		z"/>
</g>
<g>
	<path class="st0" d="M121.52,126.91h16.32c0,0,1.44,0.99,0,2.3c2.09,1.61,0.14,2.81,0.14,2.81s2.02,1.82-0.1,3.26
		c1.99,1.17,0.34,2.95,0.34,2.95h-2.85l-3.74,3.53c0,0-1.85,1.65-3.6,0c-1.75-1.65-3.81-3.46-3.81-3.46l-2.71,0.03
		c0,0-2.19-1.78,0-3.05c-3.02-1.95-0.24-3.29-0.24-3.29s-1.65-1.75,0.03-2.54C119.64,128.12,121.52,126.91,121.52,126.91z"/>
</g>
</svg>
