<?xml version="1.0" encoding="utf-8"?>
<!-- Generator: Adobe Illustrator 24.0.1, SVG Export Plug-In . SVG Version: 6.00 Build 0)  -->
<svg version="1.1" id="Layer_1" xmlns="http://www.w3.org/2000/svg" xmlns:xlink="http://www.w3.org/1999/xlink" x="0px" y="0px"
	 viewBox="0 0 256 256" style="enable-background:new 0 0 256 256;" xml:space="preserve">
<style type="text/css">
	.st0{fill:#699E3C;}
	.st1{fill:#FFFFFF;}
</style>
<g>
	<path class="st0" d="M193.21,141.75H127.1c-8.87,0-16.06-7.19-16.06-16.06V63.12c0-8.87,7.19-16.06,16.06-16.06h66.11
		c8.87,0,16.06,7.19,16.06,16.06v62.57C209.27,134.56,202.08,141.75,193.21,141.75z"/>
	<polygon class="st1" points="110.71,102.88 160.96,71.62 110.71,111.24 	"/>
	<path class="st0" d="M85.57,114.94h-30c0,0-15.28-0.09-15.19,16.23s0,36.74,0,36.74h30.38l1.23-43.1l13.58-0.09l22.97-10.63
		c0,0,6.08-9.3-4.08-8.45C98.58,108.86,85.57,114.94,85.57,114.94z"/>
	<circle class="st0" cx="57.19" cy="96.62" r="14.9"/>
	<g>
		<circle class="st0" cx="126.99" cy="165.66" r="10.63"/>
		<path class="st0" d="M116.36,179.21h21.26c0,0,7.91,0.57,9.62,7.97c1.71,7.4,1.52,13.29,1.52,13.29h5.38v6.27H99.65v-5.57h5.51
			l1.33-13.48C106.49,187.69,109.15,179.59,116.36,179.21z"/>
		<g>
			<g>
				<polygon class="st0" points="114.42,192.12 112.58,200.98 115.94,200.98 				"/>
			</g>
			<g>
				<polygon class="st0" points="139.17,192.12 138.05,200.98 141.4,200.98 				"/>
			</g>
		</g>
	</g>
	<g>
		<circle class="st0" cx="187.5" cy="165.66" r="10.63"/>
		<path class="st0" d="M176.86,179.21h21.26c0,0,7.91,0.57,9.62,7.97c1.71,7.4,1.52,13.29,1.52,13.29h5.38v6.27h-54.49v-5.57h5.51
			l1.33-13.48C166.99,187.69,169.65,179.59,176.86,179.21z"/>
		<g>
			<g>
				<polygon class="st0" points="174.92,192.12 173.09,200.98 176.44,200.98 				"/>
			</g>
			<g>
				<polygon class="st0" points="199.67,192.12 198.55,200.98 201.91,200.98 				"/>
			</g>
		</g>
	</g>
</g>
</svg>
