<?xml version="1.0" encoding="utf-8"?>
<!-- Generator: Adobe Illustrator 24.0.1, SVG Export Plug-In . SVG Version: 6.00 Build 0)  -->
<svg version="1.1" xmlns="http://www.w3.org/2000/svg" xmlns:xlink="http://www.w3.org/1999/xlink" x="0px" y="0px"
	 viewBox="0 0 256 256" style="enable-background:new 0 0 256 256;" xml:space="preserve">
<style type="text/css">
	.st0{fill:none;stroke:#699E3C;stroke-width:4;stroke-linecap:round;stroke-miterlimit:10;}
</style>
<g id="Layer_2">
</g>
<g id="Layer_1">
	<g>
		<path class="st0" d="M66.05,109.85l-15.42,81.27h41.02c0,0-2.22-23.19,15.94-22.73c18.29,0.57,44.42-0.52,44.42-0.52
			s12.61,0.26,13.59,13.85c0.31,4.36,0.27,6.82,0.17,8.12c-0.05,0.7,0.5,1.29,1.2,1.29h39.92l-15.94-81.27h-25.09l-1.03-23.45
			c-0.01-0.25-0.05-0.49-0.11-0.73c-0.54-1.99-3.66-10.82-16.63-12.67c-6.59,6.59-13.8,13.45-17.51,16.18
			c-0.99,0.73-2.37,0.66-3.29-0.16L109.17,73c0,0-13.62,0.76-17.81,12.68c-0.15,0.42-0.21,0.89-0.2,1.34
			c0.24,13.21-0.01,22.05-0.01,22.05L66.05,109.85z"/>
		<circle class="st0" cx="127.91" cy="45.63" r="19.47"/>
		<circle class="st0" cx="127.91" cy="149.11" r="19.47"/>
		<line class="st0" x1="91.14" y1="109.06" x2="165.87" y2="109.85"/>
		<line class="st0" x1="149.54" y1="94.04" x2="149.94" y2="109.68"/>
		<line class="st0" x1="105.44" y1="94.43" x2="105.44" y2="108.67"/>
		<line class="st0" x1="91.66" y1="191.11" x2="91.66" y2="213.78"/>
		<line class="st0" x1="105.44" y1="190.07" x2="105.44" y2="213.58"/>
		<line class="st0" x1="149.74" y1="191.11" x2="149.74" y2="213.78"/>
		<line class="st0" x1="165.89" y1="190.41" x2="165.61" y2="214.37"/>
	</g>
</g>
</svg>
