<?xml version="1.0" encoding="utf-8"?>
<!-- Generator: Adobe Illustrator 24.0.1, SVG Export Plug-In . SVG Version: 6.00 Build 0)  -->
<svg version="1.1" id="Layer_1" xmlns="http://www.w3.org/2000/svg" xmlns:xlink="http://www.w3.org/1999/xlink" x="0px" y="0px"
	 viewBox="0 0 256 256" style="enable-background:new 0 0 256 256;" xml:space="preserve">
<style type="text/css">
	.st0{fill:none;stroke:#699E3C;stroke-width:4;stroke-linecap:round;stroke-miterlimit:10;}
	.st1{fill:#699E3C;stroke:#699E3C;stroke-miterlimit:10;}
</style>
<g>
	<path class="st0" d="M46.05,159.94c-6.34-105.28,160.98-126.56,164.6,0"/>
	<path class="st0" d="M66.77,99.61c11.56-17.21,111.81-56.95,121.47,60.34"/>
	<line class="st0" x1="167.63" y1="81.61" x2="159.92" y2="91.94"/>
	<line class="st0" x1="190.65" y1="100.15" x2="176.29" y2="112.77"/>
	<line class="st0" x1="206.05" y1="129.67" x2="184.55" y2="135.89"/>
	<line class="st0" x1="188.24" y1="159.94" x2="210.65" y2="159.94"/>
	<line class="st0" x1="110.13" y1="152.02" x2="143.18" y2="110.36"/>
	<line class="st0" x1="125.3" y1="159.94" x2="143.18" y2="110.36"/>
	<path class="st0" d="M110.13,152.02c-2.94,4.68,2.26,21.13,15.17,7.92"/>
	<circle class="st1" cx="57.49" cy="149.87" r="3.06"/>
	<circle class="st1" cx="64.73" cy="123.38" r="3.06"/>
	<circle class="st1" cx="78.32" cy="103.4" r="3.06"/>
	<circle class="st1" cx="117.96" cy="155.16" r="3.06"/>
</g>
</svg>
