<?xml version="1.0" encoding="utf-8"?>
<!-- Generator: Adobe Illustrator 24.0.1, SVG Export Plug-In . SVG Version: 6.00 Build 0)  -->
<svg version="1.1" id="Layer_1" xmlns="http://www.w3.org/2000/svg" xmlns:xlink="http://www.w3.org/1999/xlink" x="0px" y="0px"
	 viewBox="0 0 256 256" style="enable-background:new 0 0 256 256;" xml:space="preserve">
<style type="text/css">
	.st0{fill:#699E3C;}
	.st1{fill:#FFFFFF;}
</style>
<polygon class="st0" points="126.49,139.25 126.7,148.11 133.91,148.13 133.68,139.23 "/>
<g>
	<path class="st0" d="M89.13,68.3c0,0,7.22-5.48,14.94-8.96c2.24-6.1,7.22-21.16,7.22-21.16h38.58l6.72,20.41
		c0,0,13.44,7.22,15.43,9.71c6.97-1.49,22.65-4.48,22.65-4.48l19.17,33.6l-14.69,16.68c0,0,1.24,18.42,0,18.92
		c3.14,4.29,14.69,16.18,14.69,16.18l-19.66,34.35l-22.15-5.23c0,0-8.21,6.97-15.68,8.96c-1.99,8.71-6.72,20.91-6.72,20.91h-39.08
		l-6.72-21.41c0,0-11.7-4.73-15.93-9.21c-5.73,1.49-21.66,4.98-21.66,4.98l-19.66-34.1l15.56-16.68c0,0-2.36-10.21,0-17.67
		c-2.36-4.98-15.56-17.67-15.56-17.67l20.66-34.1L89.13,68.3z"/>
	<circle class="st1" cx="130.2" cy="123.18" r="58.33"/>
	<polygon class="st0" points="94.94,99 92.83,99 97.62,86.64 102.79,99 100.3,99 100.49,141.81 108.54,129.84 118.5,136.74 
		134.11,116.33 143.79,116.24 154.23,100.43 150.2,98.04 163.9,90.66 162.66,105.61 158.82,103.4 146.76,121.51 136.6,121.51 
		119.75,143.92 109.98,137.31 100.4,151.96 160.74,151.96 160.45,149.76 172.9,154.65 160.74,159.72 160.55,157.52 95.03,157.52 	
		"/>
</g>
</svg>
