<?xml version="1.0" encoding="utf-8"?>
<!-- Generator: Adobe Illustrator 24.0.1, SVG Export Plug-In . SVG Version: 6.00 Build 0)  -->
<svg version="1.1" xmlns="http://www.w3.org/2000/svg" xmlns:xlink="http://www.w3.org/1999/xlink" x="0px" y="0px"
	 viewBox="0 0 256 256" style="enable-background:new 0 0 256 256;" xml:space="preserve">
<style type="text/css">
	.st0{fill:#699E3C;stroke:#FFFFFF;stroke-width:0.75;stroke-miterlimit:10;}
	.st1{fill:#699E3C;}
</style>
<g id="Layer_1">
</g>
<g id="Layer_2">
	<path class="st0" d="M101.34,210.38l27.45-1.91v-13.73c0,0-0.51-10.93-0.64-11.69c-0.13-0.76,4.45-11.31-13.09-24.66
		c-13.34-11.57-30.76-27.2-30.76-27.2s-8.01-9.28-11.18-1.53c-1.27,7.12,9.53,16.39,9.53,16.39s4.96,3.05,5.59,7.63
		c-2.29-1.65-15.89-13.22-16.78-21.1c-0.89-7.88,4.07-7.37,4.07-7.37l-1.78-16.27c0,0-0.47-3.81-2.39-4.58
		c-1.42-5.46-5.36-5.46-5.36-5.46s-0.25-5.34-7.12-3.18c-5.46,1.4-2.67,15.51-2.67,15.51l4.32,40.29c0,0,1.53,6.35,5.21,8.01
		c3.69,1.65,24.27,23.26,24.27,23.26s4.07,1.65,8.13,10.17C100.73,200.94,101.34,210.38,101.34,210.38z"/>
	<path class="st0" d="M160.93,210.38l-27.45-1.91v-13.73c0,0,0.51-10.93,0.64-11.69c0.13-0.76-4.45-11.31,13.09-24.66
		c13.34-11.57,30.76-27.2,30.76-27.2s8.01-9.28,11.18-1.53c1.27,7.12-9.53,16.39-9.53,16.39s-4.96,3.05-5.59,7.63
		c2.29-1.65,15.89-13.22,16.78-21.1s-4.07-7.37-4.07-7.37l1.78-16.27c0,0,0.47-3.81,2.39-4.58c1.42-5.46,5.36-5.46,5.36-5.46
		s0.25-5.34,7.12-3.18c5.46,1.4,2.67,15.51,2.67,15.51l-4.32,40.29c0,0-1.53,6.35-5.21,8.01c-3.69,1.65-24.27,23.26-24.27,23.26
		s-4.07,1.65-8.13,10.17C161.54,200.94,160.93,210.38,160.93,210.38z"/>
	<g>
		<circle class="st1" cx="128.05" cy="49.18" r="18.89"/>
		<path class="st1" d="M104.18,61.34c0,0,21.69,21.94,49.99,0c11.84,1.93,5.61,11.34,5.61,11.34s-31.17,28.55-62.96-1.87
			C93.46,60.34,104.18,61.34,104.18,61.34z"/>
		<path class="st1" d="M111.23,85.4c0,0,14.59,6.86,34.78,0c8.1,25.93-9.43,26.93-17.39,26.68C101.38,111.2,111.23,85.4,111.23,85.4
			z"/>
		<g>
			<path class="st1" d="M142.45,111.33c0,0,4.24-1,6.86-8.48c10.1,6.48,6.48,24.81,6.48,24.81s-4.01,6.78-8.94,2.88
				c-1.36-1.08-2.07-2.79-1.98-4.53C145.32,117.59,142.45,111.33,142.45,111.33z"/>
		</g>
		<g>
			<path class="st1" d="M116.15,112.07c0,0-4.24-1-6.86-8.48c-10.1,6.48-6.48,24.81-6.48,24.81s4.01,6.78,8.94,2.88
				c1.36-1.08,2.07-2.79,1.98-4.53C113.28,118.34,116.15,112.07,116.15,112.07z"/>
		</g>
	</g>
</g>
</svg>
