<?xml version="1.0" encoding="utf-8"?>
<!-- Generator: Adobe Illustrator 24.0.1, SVG Export Plug-In . SVG Version: 6.00 Build 0)  -->
<svg version="1.1" id="Layer_1" xmlns="http://www.w3.org/2000/svg" xmlns:xlink="http://www.w3.org/1999/xlink" x="0px" y="0px"
	 viewBox="0 0 256 256" style="enable-background:new 0 0 256 256;" xml:space="preserve">
<style type="text/css">
	.st0{fill:#699E3C;}
	.st1{fill:#FFFFFF;}
</style>
<g>
	<g>
		<circle class="st0" cx="96.83" cy="58.78" r="17.43"/>
		<path class="st1" d="M91.22,67.26c0,0,12.5-0.31,17.67-5.73C103.52,78.48,91.22,67.26,91.22,67.26z"/>
	</g>
	<g>
		<circle class="st0" cx="158.7" cy="103.94" r="14.36"/>
		<path class="st1" d="M151.32,107.9c0,0,9.19,4.66,15.06,2.75C155.85,120.84,151.32,107.9,151.32,107.9z"/>
	</g>
	<path class="st0" d="M68.3,39.44c0,0-3.22,7.34-5.73,27.58C73.58,74,84.6,80.63,84.6,80.63h29.67c0,0,13.85,1.97,17.79,28.83
		c6.63,2.51,12.28,5.1,12.28,5.1l4.55,3.75c0,0-10.92-0.25-12.72,5.48c-3.27-1.45-7.44-3.45-9.8-4.59
		c-0.85-0.41-1.76-0.69-2.66-0.97c-1.13-0.35-3.05-1.94-3.3-8.59c-0.36-9.49-3.58-11.1-3.58-11.1s0.18,43.88,0.9,44.77
		s-41.73,0-41.73,0l0.72-53.73L55.05,76.21c0,0-6.09-1.49-3.76-10c1.82-8.83,4.12-26.06,4.12-26.06s0.98-8.02,6.13-11.58
		c3.07-2.13,7.33-1.64,9.94,1.04C75.97,34.24,68.3,39.44,68.3,39.44z"/>
	<path class="st0" d="M145.19,122.8h25.67l16.83-12.21c0,0-4.3-18.62-8-19.94c-3.7-1.31-4.06-4.3-4.06-4.3s-0.24-5.97,7.28-3.7
		c7.52,2.27,13.01,26.62,13.01,26.62s1.91,4.3-2.15,6.33c-4.06,2.03-17.43,13.13-17.43,13.13l-0.24,14.45l-13.85,0.52l-2.87-3.86
		c0,0,0-4.89-4.06-5.61c-1.55-2.98-5.25-7.1-5.25-7.1l-1.19,0.9l3.46,5.61l-7.16,0.12l1.07-1.07l-1.93-1.31l-4.04,4.54h13.61
		c0,0,7.4,2.83,0.6,7.8h-23.88c0,0-3.34-2.67-1.13-6.13C131.7,134.12,134.8,125.46,145.19,122.8z"/>
	<polygon class="st0" points="44.82,146.05 214.15,146.05 214.15,149.64 208.94,149.64 208.94,156.08 204.4,156.08 204.76,216.02 
		200.23,216.02 199.75,191.78 58.99,191.78 58.87,216.02 53.85,216.02 54.45,156.32 50.27,156.08 50.27,149.87 44.82,149.99 	"/>
	<path class="st0" d="M103.76,193.99h18.09c0,0,2.42,15.13,1.34,16.48c-1.07,1.34-0.72,5.91-7.52,7.34s-10.48-5.19-10.48-5.19
		L103.76,193.99z"/>
	<path class="st0" d="M71.7,193.99h18.27c0,0-0.26,16.24-1.25,17.64c-0.98,1.38-2.69,7.08-9.67,7.48c-6.94,0.4-8.44-8.65-8.44-8.65
		L71.7,193.99z"/>
	<path class="st0" d="M126.5,193.99c0,0-3.13,7.52,4.66,10.66c7.79,3.13,10.39-10.66,10.39-10.66h-14.6H126.5z"/>
	<path class="st0" d="M176.47,193.99c0,0,0.72,10.51,8.6,11.12c7.88,0.61,6.81-11.12,6.81-11.12H176.47z"/>
	<polygon class="st0" points="157.31,193.99 157.31,200.91 135.82,207.6 135.82,210.35 138.86,209.87 157.31,204.44 157.31,210.35 
		161.07,210.35 161.07,204.44 178.97,210.35 182.62,210.35 182.62,207.84 161.42,200.85 161.42,193.99 	"/>
	<circle class="st0" cx="137.43" cy="213.33" r="4.12"/>
	<circle class="st0" cx="159.22" cy="213.33" r="4.12"/>
	<circle class="st0" cx="181" cy="213.33" r="4.12"/>
</g>
</svg>
