<?xml version="1.0" encoding="utf-8"?>
<!-- Generator: Adobe Illustrator 24.0.1, SVG Export Plug-In . SVG Version: 6.00 Build 0)  -->
<svg version="1.1" xmlns="http://www.w3.org/2000/svg" xmlns:xlink="http://www.w3.org/1999/xlink" x="0px" y="0px"
	 viewBox="0 0 256 256" style="enable-background:new 0 0 256 256;" xml:space="preserve">
<style type="text/css">
	.st0{fill:none;stroke:#699E3C;stroke-width:6;stroke-miterlimit:10;}
	.st1{fill:none;stroke:#699E3C;stroke-width:5;stroke-miterlimit:10;}
	.st2{fill:none;stroke:#699E3C;stroke-width:4;stroke-miterlimit:10;}
	.st3{fill:#699E3C;}
</style>
<g id="Layer_1">
</g>
<g id="Layer_2">
	<g>
		<circle class="st0" cx="136.51" cy="137.51" r="41.97"/>
		<path class="st0" d="M109.31,169.47c0,0,8.7-14.04,19.31-14.36c5.12-2.88,1.45-9.33,1.45-9.33l-6.27-7.24c0,0-3.7-1.93-1.13-8.84
			c0.16-6.59-0.8-11.58,9.33-15.28c10.13-3.7,15.92,4.82,15.92,4.82s2.67,5.22,2.21,9.44c-0.15,1.38,1.45,2.86,1.69,4.23
			c0.44,2.53-0.81,4.55-1.63,5.56c-0.49,0.6-0.89,1.26-1.23,1.96c-0.73,1.49-2.12,3.99-3.82,5.55c-1.95,1.78-2.82,4.52-2.14,7.07
			c0.86,3.19,3.38,2.89,6.05,3.32c4.82,0.78,15.11,11.44,15.11,11.44"/>
	</g>
	<g>
		<circle class="st1" cx="219.15" cy="102.65" r="28.02"/>
		<path class="st1" d="M200.99,123.99c0,0,5.81-9.37,12.89-9.58c3.41-1.92,0.97-6.23,0.97-6.23l-4.19-4.83c0,0-2.47-1.29-0.75-5.9
			c0.11-4.4-0.54-7.73,6.23-10.2s10.63,3.22,10.63,3.22s1.78,3.49,1.48,6.3c-0.1,0.92,0.97,1.91,1.13,2.82
			c0.29,1.69-0.54,3.04-1.09,3.71c-0.33,0.4-0.59,0.84-0.82,1.31c-0.49,1-1.41,2.67-2.55,3.71c-1.3,1.19-1.88,3.02-1.43,4.72
			c0.57,2.13,2.26,1.93,4.04,2.22c3.22,0.52,10.09,7.64,10.09,7.64"/>
	</g>
	<g>
		<circle class="st2" cx="210.93" cy="179.48" r="20.29"/>
		<path class="st2" d="M197.78,194.93c0,0,4.2-6.78,9.33-6.94c2.47-1.39,0.7-4.51,0.7-4.51l-3.03-3.5c0,0-1.79-0.93-0.54-4.27
			c0.08-3.19-0.39-5.6,4.51-7.38c4.9-1.79,7.69,2.33,7.69,2.33s1.29,2.52,1.07,4.56c-0.07,0.67,0.7,1.38,0.82,2.04
			c0.21,1.22-0.39,2.2-0.79,2.69c-0.24,0.29-0.43,0.61-0.59,0.95c-0.35,0.72-1.02,1.93-1.84,2.68c-0.94,0.86-1.36,2.18-1.03,3.42
			c0.41,1.54,1.63,1.4,2.92,1.61c2.33,0.38,7.3,5.53,7.3,5.53"/>
	</g>
	<g>
		<circle class="st2" cx="102.61" cy="218.43" r="20.29"/>
		<path class="st2" d="M89.47,233.88c0,0,4.2-6.78,9.33-6.94c2.47-1.39,0.7-4.51,0.7-4.51l-3.03-3.5c0,0-1.79-0.93-0.54-4.27
			c0.08-3.19-0.39-5.6,4.51-7.38c4.9-1.79,7.69,2.33,7.69,2.33s1.29,2.52,1.07,4.56c-0.07,0.67,0.7,1.38,0.82,2.04
			c0.21,1.22-0.39,2.2-0.79,2.69c-0.24,0.29-0.43,0.61-0.59,0.95c-0.35,0.72-1.02,1.93-1.84,2.68c-0.94,0.86-1.36,2.18-1.03,3.42
			c0.41,1.54,1.63,1.4,2.92,1.61c2.33,0.38,7.3,5.53,7.3,5.53"/>
	</g>
	<g>
		<circle class="st1" cx="41.76" cy="167.88" r="28.89"/>
		<path class="st1" d="M23.05,189.88c0,0,5.99-9.66,13.29-9.88c3.52-1.98,1-6.42,1-6.42l-4.32-4.98c0,0-2.55-1.33-0.77-6.09
			c0.11-4.54-0.55-7.97,6.42-10.51s10.96,3.32,10.96,3.32s1.84,3.59,1.52,6.5c-0.1,0.95,1,1.97,1.16,2.91
			c0.3,1.74-0.56,3.13-1.12,3.83c-0.34,0.41-0.61,0.87-0.85,1.35c-0.5,1.03-1.46,2.75-2.63,3.82c-1.34,1.23-1.94,3.11-1.47,4.86
			c0.59,2.2,2.33,1.99,4.16,2.29c3.32,0.54,10.4,7.87,10.4,7.87"/>
	</g>
	<g>
		<circle class="st1" cx="101.04" cy="51.91" r="28.89"/>
		<path class="st1" d="M82.32,73.92c0,0,5.99-9.66,13.29-9.88c3.52-1.98,1-6.42,1-6.42l-4.32-4.98c0,0-2.55-1.33-0.77-6.09
			c0.11-4.54-0.55-7.97,6.42-10.51c6.97-2.55,10.96,3.32,10.96,3.32s1.84,3.59,1.52,6.5c-0.1,0.95,1,1.97,1.16,2.91
			c0.3,1.74-0.56,3.13-1.12,3.83c-0.34,0.41-0.61,0.87-0.85,1.35c-0.5,1.03-1.46,2.75-2.63,3.82c-1.34,1.23-1.94,3.11-1.47,4.86
			c0.59,2.2,2.33,1.99,4.16,2.29c3.32,0.54,10.4,7.87,10.4,7.87"/>
	</g>
	<g>
		<circle class="st2" cx="173.25" cy="37.19" r="20.01"/>
		<path class="st2" d="M160.28,52.43c0,0,4.15-6.69,9.21-6.85c2.44-1.37,0.69-4.45,0.69-4.45l-2.99-3.45c0,0-1.76-0.92-0.54-4.22
			c0.08-3.14-0.38-5.52,4.45-7.28s7.59,2.3,7.59,2.3s1.27,2.49,1.05,4.5c-0.07,0.66,0.69,1.36,0.81,2.02
			c0.21,1.21-0.39,2.17-0.78,2.65c-0.23,0.29-0.42,0.6-0.59,0.93c-0.35,0.71-1.01,1.9-1.82,2.65c-0.93,0.85-1.35,2.15-1.02,3.37
			c0.41,1.52,1.61,1.38,2.88,1.58c2.3,0.37,7.21,5.45,7.21,5.45"/>
	</g>
	<circle class="st3" cx="113.51" cy="191.78" r="2.47"/>
	<circle class="st3" cx="117.53" cy="184.4" r="2.47"/>
	<circle class="st3" cx="79.26" cy="198.14" r="2.47"/>
	<circle class="st3" cx="58.33" cy="133.14" r="2.47"/>
	<circle class="st3" cx="63.27" cy="125.55" r="2.47"/>
	<circle class="st3" cx="67.79" cy="118.23" r="2.47"/>
	<circle class="st3" cx="72.15" cy="111.36" r="2.47"/>
	<circle class="st3" cx="76.77" cy="104.28" r="2.47"/>
	<circle class="st3" cx="81.14" cy="97.2" r="2.47"/>
	<circle class="st3" cx="85.9" cy="89.71" r="2.47"/>
	<circle class="st3" cx="131.51" cy="217.82" r="2.92"/>
	<circle class="st3" cx="141.53" cy="214.06" r="2.92"/>
	<circle class="st3" cx="150.97" cy="210.27" r="2.92"/>
	<circle class="st3" cx="159.94" cy="206.8" r="2.92"/>
	<circle class="st3" cx="169.3" cy="203.29" r="2.92"/>
	<circle class="st3" cx="178.43" cy="199.62" r="2.92"/>
	<circle class="st3" cx="188.21" cy="195.83" r="2.92"/>
	<circle class="st3" cx="129.9" cy="77.99" r="2.74"/>
	<circle class="st3" cx="138.94" cy="82.39" r="2.74"/>
	<circle class="st3" cx="164.22" cy="94.35" r="2.74"/>
	<circle class="st3" cx="172.62" cy="98.2" r="2.74"/>
	<circle class="st3" cx="181.53" cy="102.41" r="2.74"/>
	<circle class="st3" cx="109.31" cy="86.63" r="2.47"/>
	<circle class="st3" cx="113.51" cy="93.17" r="2.47"/>
	<circle class="st3" cx="153.28" cy="85.49" r="2.47"/>
	<circle class="st3" cx="157.89" cy="78.41" r="2.47"/>
	<circle class="st3" cx="162.27" cy="71.32" r="2.47"/>
	<circle class="st3" cx="167.02" cy="63.83" r="2.47"/>
	<circle class="st3" cx="185.46" cy="148.53" r="2.47"/>
	<circle class="st3" cx="190.3" cy="155.1" r="2.47"/>
	<circle class="st3" cx="192.58" cy="143.97" r="2.47"/>
	<circle class="st3" cx="199.48" cy="139.32" r="2.47"/>
	<circle class="st3" cx="206.89" cy="134.45" r="2.47"/>
	<circle class="st3" cx="72.34" cy="192.35" r="2.47"/>
</g>
</svg>
