<?xml version="1.0" encoding="utf-8"?>
<!-- Generator: Adobe Illustrator 24.0.1, SVG Export Plug-In . SVG Version: 6.00 Build 0)  -->
<svg version="1.1" xmlns="http://www.w3.org/2000/svg" xmlns:xlink="http://www.w3.org/1999/xlink" x="0px" y="0px"
	 viewBox="0 0 256 256" style="enable-background:new 0 0 256 256;" xml:space="preserve">
<style type="text/css">
	.st0{fill:none;stroke:#699E3C;stroke-width:4;stroke-miterlimit:10;}
	.st1{fill:none;stroke:#699E3C;stroke-width:3;stroke-miterlimit:10;}
	.st2{fill:#699E3C;}
</style>
<g id="Layer_1">
</g>
<g id="Layer_2">
	<g>
		<circle class="st0" cx="135.39" cy="135.87" r="34.76"/>
		<path class="st1" d="M112.87,162.34c0,0,7.2-11.63,16-11.89c4.24-2.39,1.2-7.73,1.2-7.73l-5.19-5.99c0,0-3.06-1.6-0.93-7.33
			c0.13-5.46-0.67-9.59,7.73-12.65s13.19,4,13.19,4s2.21,4.32,1.83,7.82c-0.12,1.14,1.2,2.37,1.4,3.5c0.36,2.1-0.67,3.77-1.35,4.6
			c-0.4,0.5-0.74,1.04-1.02,1.62c-0.61,1.24-1.75,3.31-3.16,4.6c-1.61,1.48-2.34,3.74-1.77,5.85c0.71,2.64,2.8,2.39,5.01,2.75
			c3.99,0.65,12.52,9.47,12.52,9.47"/>
	</g>
	<g>
		<circle class="st0" cx="203.84" cy="107" r="23.21"/>
		<path class="st1" d="M188.8,124.67c0,0,4.81-7.76,10.68-7.94c2.83-1.59,0.8-5.16,0.8-5.16l-3.47-4c0,0-2.04-1.07-0.62-4.89
			c0.09-3.65-0.44-6.4,5.16-8.45c5.6-2.04,8.8,2.67,8.8,2.67s1.48,2.89,1.22,5.22c-0.08,0.76,0.8,1.58,0.93,2.34
			c0.24,1.4-0.45,2.51-0.9,3.07c-0.27,0.33-0.49,0.7-0.68,1.08c-0.41,0.83-1.17,2.21-2.11,3.07c-1.08,0.99-1.56,2.5-1.18,3.91
			c0.47,1.76,1.87,1.6,3.34,1.84c2.67,0.43,8.36,6.32,8.36,6.32"/>
	</g>
	<g>
		<circle class="st0" cx="197.03" cy="170.63" r="16.8"/>
		<path class="st1" d="M186.14,183.42c0,0,3.48-5.62,7.73-5.75c2.05-1.15,0.58-3.73,0.58-3.73l-2.51-2.9c0,0-1.48-0.77-0.45-3.54
			c0.06-2.64-0.32-4.63,3.73-6.12c4.06-1.48,6.37,1.93,6.37,1.93s1.07,2.09,0.88,3.78c-0.06,0.55,0.58,1.15,0.68,1.69
			c0.17,1.01-0.32,1.82-0.65,2.23c-0.2,0.24-0.36,0.5-0.49,0.78c-0.29,0.6-0.85,1.6-1.53,2.22c-0.78,0.71-1.13,1.81-0.86,2.83
			c0.34,1.28,1.35,1.16,2.42,1.33c1.93,0.31,6.05,4.58,6.05,4.58"/>
	</g>
	<g>
		<circle class="st0" cx="107.32" cy="202.89" r="16.8"/>
		<path class="st1" d="M96.43,215.68c0,0,3.48-5.62,7.73-5.75c2.05-1.15,0.58-3.73,0.58-3.73l-2.51-2.9c0,0-1.48-0.77-0.45-3.54
			c0.06-2.64-0.32-4.63,3.73-6.12c4.06-1.48,6.37,1.93,6.37,1.93s1.07,2.09,0.88,3.78c-0.06,0.55,0.58,1.15,0.68,1.69
			c0.17,1.01-0.32,1.82-0.65,2.23c-0.2,0.24-0.36,0.5-0.49,0.78c-0.29,0.6-0.85,1.6-1.53,2.22c-0.78,0.71-1.13,1.81-0.86,2.83
			c0.34,1.28,1.35,1.16,2.42,1.33c1.93,0.31,6.05,4.58,6.05,4.58"/>
	</g>
	<g>
		<circle class="st0" cx="56.92" cy="161.02" r="23.93"/>
		<path class="st1" d="M41.42,179.24c0,0,4.96-8,11.01-8.19c2.92-1.64,0.83-5.32,0.83-5.32l-3.58-4.13c0,0-2.11-1.1-0.64-5.04
			c0.09-3.76-0.46-6.6,5.32-8.71s9.08,2.75,9.08,2.75s1.52,2.98,1.26,5.38c-0.09,0.79,0.83,1.63,0.96,2.41
			c0.25,1.44-0.46,2.59-0.93,3.17c-0.28,0.34-0.51,0.72-0.7,1.12c-0.42,0.85-1.21,2.28-2.18,3.16c-1.11,1.02-1.61,2.58-1.22,4.03
			c0.49,1.82,1.93,1.65,3.45,1.89c2.75,0.45,8.62,6.52,8.62,6.52"/>
	</g>
	<g>
		<circle class="st0" cx="106.02" cy="64.97" r="23.93"/>
		<path class="st1" d="M90.52,83.2c0,0,4.96-8,11.01-8.19c2.92-1.64,0.83-5.32,0.83-5.32l-3.58-4.13c0,0-2.11-1.1-0.64-5.04
			c0.09-3.76-0.46-6.6,5.32-8.71c5.78-2.11,9.08,2.75,9.08,2.75s1.52,2.98,1.26,5.38c-0.09,0.79,0.83,1.63,0.96,2.41
			c0.25,1.44-0.46,2.59-0.93,3.17c-0.28,0.34-0.51,0.72-0.7,1.12c-0.42,0.85-1.21,2.28-2.18,3.16c-1.11,1.02-1.61,2.58-1.22,4.03
			c0.49,1.82,1.93,1.65,3.45,1.89c2.75,0.45,8.62,6.52,8.62,6.52"/>
	</g>
	<g>
		<circle class="st0" cx="165.82" cy="52.78" r="16.57"/>
		<path class="st1" d="M155.09,65.4c0,0,3.43-5.54,7.63-5.67c2.02-1.14,0.57-3.68,0.57-3.68l-2.48-2.86c0,0-1.46-0.76-0.44-3.49
			c0.06-2.6-0.32-4.57,3.68-6.03c4-1.46,6.29,1.91,6.29,1.91s1.05,2.06,0.87,3.73c-0.06,0.55,0.57,1.13,0.67,1.67
			c0.17,1-0.32,1.8-0.64,2.2c-0.19,0.24-0.35,0.5-0.49,0.77c-0.29,0.59-0.84,1.58-1.51,2.19c-0.77,0.7-1.11,1.78-0.84,2.79
			c0.34,1.26,1.34,1.14,2.39,1.31c1.9,0.31,5.97,4.52,5.97,4.52"/>
	</g>
	<circle class="st2" cx="116.35" cy="180.82" r="2.04"/>
	<circle class="st2" cx="119.67" cy="174.7" r="2.04"/>
	<circle class="st2" cx="87.98" cy="186.09" r="2.04"/>
	<circle class="st2" cx="70.65" cy="132.25" r="2.04"/>
	<circle class="st2" cx="74.74" cy="125.96" r="2.04"/>
	<circle class="st2" cx="78.48" cy="119.9" r="2.04"/>
	<circle class="st2" cx="82.09" cy="114.21" r="2.04"/>
	<circle class="st2" cx="85.91" cy="108.35" r="2.04"/>
	<circle class="st2" cx="89.54" cy="102.48" r="2.04"/>
	<circle class="st2" cx="93.47" cy="96.27" r="2.04"/>
	<circle class="st2" cx="131.25" cy="202.39" r="2.42"/>
	<circle class="st2" cx="139.55" cy="199.27" r="2.42"/>
	<circle class="st2" cx="147.37" cy="196.13" r="2.42"/>
	<circle class="st2" cx="154.8" cy="193.25" r="2.42"/>
	<circle class="st2" cx="162.55" cy="190.35" r="2.42"/>
	<circle class="st2" cx="170.12" cy="187.31" r="2.42"/>
	<circle class="st2" cx="178.21" cy="184.17" r="2.42"/>
	<circle class="st2" cx="129.92" cy="86.57" r="2.27"/>
	<circle class="st2" cx="137.41" cy="90.22" r="2.27"/>
	<circle class="st2" cx="158.35" cy="100.12" r="2.27"/>
	<circle class="st2" cx="165.31" cy="103.31" r="2.27"/>
	<circle class="st2" cx="172.68" cy="106.8" r="2.27"/>
	<circle class="st2" cx="112.87" cy="93.73" r="2.04"/>
	<circle class="st2" cx="116.35" cy="99.14" r="2.04"/>
	<circle class="st2" cx="149.28" cy="92.78" r="2.04"/>
	<circle class="st2" cx="153.1" cy="86.92" r="2.04"/>
	<circle class="st2" cx="156.73" cy="81.05" r="2.04"/>
	<circle class="st2" cx="160.66" cy="74.85" r="2.04"/>
	<circle class="st2" cx="175.93" cy="144.99" r="2.04"/>
	<circle class="st2" cx="179.94" cy="150.43" r="2.04"/>
	<circle class="st2" cx="181.83" cy="141.22" r="2.04"/>
	<circle class="st2" cx="187.55" cy="137.36" r="2.04"/>
	<circle class="st2" cx="193.69" cy="133.33" r="2.04"/>
	<circle class="st2" cx="82.25" cy="181.29" r="2.04"/>
</g>
</svg>
