<?xml version="1.0" encoding="utf-8"?>
<!-- Generator: Adobe Illustrator 24.0.1, SVG Export Plug-In . SVG Version: 6.00 Build 0)  -->
<svg version="1.1" id="Layer_1" xmlns="http://www.w3.org/2000/svg" xmlns:xlink="http://www.w3.org/1999/xlink" x="0px" y="0px"
	 viewBox="0 0 256 256" style="enable-background:new 0 0 256 256;" xml:space="preserve">
<style type="text/css">
	.st0{fill:#699E3C;}
</style>
<g>
	<g>
		<circle class="st0" cx="75.11" cy="121.69" r="19.17"/>
		<path class="st0" d="M67.99,139.49c0,0-20.46,4.01-19.87,29.01c-0.16,16.95-0.16,19.95-0.16,19.95h53.88v-26.6
			c0,0,0.43-17.61-19.61-22.36C72.63,138.25,67.99,139.49,67.99,139.49z"/>
	</g>
	<g>
		<circle class="st0" cx="189.33" cy="121.69" r="19.17"/>
		<path class="st0" d="M182.21,139.49c0,0-20.46,4.01-19.87,29.01c-0.16,16.95-0.16,19.95-0.16,19.95h53.88v-26.6
			c0,0,0.43-17.61-19.61-22.36C186.85,138.25,182.21,139.49,182.21,139.49z"/>
	</g>
	<g>
		<ellipse class="st0" cx="115.17" cy="97.52" rx="19.44" ry="16.04"/>
	</g>
	<g>
		<ellipse class="st0" cx="151.88" cy="69.19" rx="26.42" ry="21.8"/>
	</g>
	<polygon class="st0" points="102.91,108.84 97.45,116.32 111.51,109.52 	"/>
	<polygon class="st0" points="161.42,89.23 171.12,97.09 166.27,82.53 	"/>
</g>
</svg>
