<?xml version="1.0" encoding="utf-8"?>
<!-- Generator: Adobe Illustrator 24.0.1, SVG Export Plug-In . SVG Version: 6.00 Build 0)  -->
<svg version="1.1" id="Layer_1" xmlns="http://www.w3.org/2000/svg" xmlns:xlink="http://www.w3.org/1999/xlink" x="0px" y="0px"
	 viewBox="0 0 256 256" style="enable-background:new 0 0 256 256;" xml:space="preserve">
<style type="text/css">
	.st0{fill:#699E3C;}
	.st1{fill:#FFFFFF;}
</style>
<g>
	<circle class="st0" cx="128.45" cy="70.18" r="27.76"/>
	<path class="st0" d="M110.01,106.06c0,0-19.36-1.28-31.89,25.06c-5.23,10.15-8.62,14.95-10.33,17.05c-1.1,1.35-1.79,2.99-1.93,4.73
		c-0.28,3.45-0.24,9.57,4.72,15.25c8.98,10.29,17.29,14.28,17.29,14.28s15.52,3.99,11.25-12.81c-9.98-3.17-14.88-12.54-14.88-12.54
		l12.96-18.82l1-1.14l2.49,58.23h61.58v-55.39l14.95,14.67l-13.56,14.38c-0.56,0.6-0.95,1.33-1.13,2.13
		c-0.86,3.76-2.08,14.16,11.8,10.86c0.52-0.12,1.02-0.34,1.47-0.64c9.56-6.57,18.16-22.48,18.16-22.48s1.97-7.25-2.36-13.71
		c-3.63-5.41-18.95-27.93-18.95-27.93s-8.54-9.93-23.05-11.16c-5.98,12.97-13.95,33.75-13.95,33.75l-1.03,2.94l-9.08,0.05
		l-0.26-0.61L110.01,106.06z"/>
</g>
<polygon class="st0" points="116.21,105.82 130.06,140.11 143.91,105.82 "/>
<polygon class="st0" points="125.88,142.74 126.12,153.11 134.57,153.14 134.29,142.72 "/>
<path class="st1" d="M133.07,152.4h-5.81c-0.24,0-0.43-0.19-0.43-0.43v-7.98c0-0.24,0.19-0.43,0.43-0.43h5.81
	c0.24,0,0.43,0.19,0.43,0.43v7.98C133.5,152.2,133.31,152.4,133.07,152.4z"/>
<circle class="st0" cx="130.17" cy="148.21" r="1.45"/>
</svg>
