<?xml version="1.0" encoding="utf-8"?>
<!-- Generator: Adobe Illustrator 24.0.1, SVG Export Plug-In . SVG Version: 6.00 Build 0)  -->
<svg version="1.1" xmlns="http://www.w3.org/2000/svg" xmlns:xlink="http://www.w3.org/1999/xlink" x="0px" y="0px"
	 viewBox="0 0 256 256" style="enable-background:new 0 0 256 256;" xml:space="preserve">
<style type="text/css">
	.st0{fill:#699E3C;}
	.st1{fill:#FFFFFF;}
</style>
<g id="Layer_1">
</g>
<g id="Layer_2">
	<g>
		<path class="st0" d="M78.08,88.76c0,0,46.93-16.44,105.23,0c12.45,3.97,8.97,25.41,8.97,25.41l0.45,78.62
			c0,0-0.75,10.46-10.31,9.87c-0.03,2.33-0.16,4.45-0.29,6.09c-0.14,1.84-1.68,3.25-3.53,3.25h-15.86c-1.39,0-2.5-1.14-2.48-2.52
			l0.11-7.19l-58.37-0.07l-0.14,6.32c-0.05,2.22-1.86,3.99-4.08,3.99H82.6c-2.08,0-3.77-1.69-3.77-3.77v-6.39c0,0-8.3-0.3-9.64-7.32
			c-1.35-7.03-0.45-50-0.45-50L68.96,107C68.96,107,67.07,91.71,78.08,88.76z"/>
		<circle class="st1" cx="85.48" cy="176.84" r="6.95"/>
		<circle class="st1" cx="175.05" cy="176.84" r="6.95"/>
		<path class="st1" d="M105.99,177.73h48.99c0,0-11.66,14.69-25.45,12C112.83,190.06,105.99,177.73,105.99,177.73z"/>
		<rect x="80.32" y="107" class="st1" width="100.67" height="46.3"/>
		<path class="st0" d="M136.15,146.99h7.96c0,0,0.78-10.17,10.87-10.17c10.09,0,10.65,10.17,10.65,10.17h8.52
			c0,0-0.45-19.29-19-18.54s-19,17.56-19,17.56V146.99z"/>
		<path class="st1" d="M122.14,88.84h17.15c0,0,4.6,1.12,3.59,6.39c-1.01,5.27-4.37,4.37-4.37,4.37l-15.92,0.06
			c0,0-5.38-0.45-4.71-5.41C118.55,89.28,122.14,88.84,122.14,88.84z"/>
		<path class="st0" d="M208.84,123.32l0.14,17.15c0,0-1.08,4.61-6.36,3.64c-5.28-0.97-4.41-4.34-4.41-4.34l-0.19-15.92
			c0,0,0.4-5.38,5.37-4.75C208.37,119.74,208.84,123.32,208.84,123.32z"/>
		<path class="st0" d="M62.38,123.32l0.14,17.15c0,0-1.08,4.61-6.36,3.64s-4.41-4.34-4.41-4.34l-0.19-15.92c0,0,0.4-5.38,5.37-4.75
			S62.38,123.32,62.38,123.32z"/>
		<path class="st0" d="M115.75,76.06c0,0,13.45-18.68,29.74,0c4.48-2.39,8.82-4.15,8.82-4.15s-6.2-14.08-23.65-14.38
			c-17.45-0.3-23.28,13.75-23.28,13.75L115.75,76.06z"/>
		<path class="st0" d="M100.5,67.69c0,0,11.21-19.73,31.09-17.64c19.88,2.09,28.85,17.64,28.85,17.64l8.82-4.63
			c0,0-10.76-22.42-37.07-22.87c-26.31-0.45-40.51,22.87-40.51,22.87L100.5,67.69z"/>
	</g>
</g>
</svg>
